G75*
G70*
%OFA0B0*%
%FSLAX24Y24*%
%IPPOS*%
%LPD*%
%AMOC8*
5,1,8,0,0,1.08239X$1,22.5*
%
%ADD10OC8,0.0610*%
%ADD11C,0.1266*%
%ADD12OC8,0.0700*%
%ADD13C,0.0600*%
%ADD14C,0.0160*%
%ADD15C,0.0357*%
%ADD16C,0.0100*%
D10*
X010463Y005680D03*
X011463Y005680D03*
X011463Y006680D03*
X010463Y006680D03*
X010463Y007680D03*
X011463Y007680D03*
D11*
X012443Y015980D03*
X012473Y017340D03*
X015723Y017340D03*
X015693Y015980D03*
X018943Y015980D03*
X018973Y017340D03*
X022473Y017340D03*
X022443Y015980D03*
X025943Y015980D03*
X025973Y017340D03*
X008973Y017340D03*
X008943Y015980D03*
X005443Y015980D03*
X005473Y017340D03*
X001973Y017340D03*
X001943Y015980D03*
D12*
X027213Y013680D03*
X027213Y012680D03*
X027213Y011680D03*
X027213Y010680D03*
X027213Y009680D03*
X027213Y008680D03*
D13*
X002423Y011640D02*
X001823Y011640D01*
X001823Y012640D02*
X002423Y012640D01*
D14*
X000743Y018146D02*
X000743Y000460D01*
X027803Y000460D01*
X027803Y018146D01*
X026151Y018146D01*
X026433Y018029D01*
X026662Y017801D01*
X026786Y017502D01*
X026786Y017178D01*
X026662Y016879D01*
X026433Y016651D01*
X026425Y016647D01*
X026632Y016441D01*
X026756Y016142D01*
X026756Y015818D01*
X026632Y015519D01*
X026403Y015291D01*
X026105Y015167D01*
X025781Y015167D01*
X025482Y015291D01*
X025254Y015519D01*
X025130Y015818D01*
X025130Y016142D01*
X025254Y016441D01*
X025482Y016669D01*
X025490Y016673D01*
X025284Y016879D01*
X025160Y017178D01*
X025160Y017502D01*
X025284Y017801D01*
X025512Y018029D01*
X025794Y018146D01*
X022651Y018146D01*
X022933Y018029D01*
X023162Y017801D01*
X023286Y017502D01*
X023286Y017178D01*
X023162Y016879D01*
X022933Y016651D01*
X022925Y016647D01*
X023132Y016441D01*
X023256Y016142D01*
X023256Y015818D01*
X023132Y015519D01*
X022903Y015291D01*
X022605Y015167D01*
X022281Y015167D01*
X021982Y015291D01*
X021754Y015519D01*
X021630Y015818D01*
X021630Y016142D01*
X021754Y016441D01*
X021982Y016669D01*
X021990Y016673D01*
X021784Y016879D01*
X021660Y017178D01*
X021660Y017502D01*
X021784Y017801D01*
X022012Y018029D01*
X022294Y018146D01*
X019151Y018146D01*
X019433Y018029D01*
X019662Y017801D01*
X019786Y017502D01*
X019786Y017178D01*
X019662Y016879D01*
X019433Y016651D01*
X019425Y016647D01*
X019632Y016441D01*
X019756Y016142D01*
X019756Y015818D01*
X019632Y015519D01*
X019403Y015291D01*
X019105Y015167D01*
X018781Y015167D01*
X018551Y015262D01*
X017873Y014585D01*
X017873Y014585D01*
X017848Y014560D01*
X021408Y014560D01*
X021430Y014538D01*
X021534Y014538D01*
X021666Y014484D01*
X021767Y014383D01*
X021821Y014251D01*
X021821Y014109D01*
X021767Y013977D01*
X021666Y013876D01*
X021534Y013822D01*
X021392Y013822D01*
X021260Y013876D01*
X021159Y013977D01*
X021108Y014100D01*
X017727Y014100D01*
X017766Y014084D01*
X017867Y013983D01*
X017921Y013851D01*
X017921Y013709D01*
X017867Y013577D01*
X017766Y013476D01*
X017634Y013422D01*
X017492Y013422D01*
X017360Y013476D01*
X017286Y013550D01*
X015170Y013550D01*
X015083Y013544D01*
X015076Y013550D01*
X015068Y013550D01*
X015005Y013612D01*
X012993Y015380D01*
X012903Y015291D01*
X012605Y015167D01*
X012281Y015167D01*
X011982Y015291D01*
X011754Y015519D01*
X011630Y015818D01*
X011630Y016142D01*
X011754Y016441D01*
X011982Y016669D01*
X011990Y016673D01*
X011784Y016879D01*
X011660Y017178D01*
X011660Y017502D01*
X011784Y017801D01*
X012012Y018029D01*
X012294Y018146D01*
X009151Y018146D01*
X009433Y018029D01*
X009662Y017801D01*
X009786Y017502D01*
X009786Y017178D01*
X009662Y016879D01*
X009433Y016651D01*
X009425Y016647D01*
X009632Y016441D01*
X009756Y016142D01*
X009756Y015818D01*
X009671Y015614D01*
X012454Y013010D01*
X014486Y013010D01*
X014560Y013084D01*
X014692Y013138D01*
X014834Y013138D01*
X014966Y013084D01*
X015067Y012983D01*
X015121Y012851D01*
X015121Y012709D01*
X015085Y012621D01*
X015437Y012621D01*
X015510Y012694D01*
X015642Y012748D01*
X015784Y012748D01*
X015916Y012694D01*
X016017Y012593D01*
X016071Y012461D01*
X016071Y012319D01*
X016026Y012210D01*
X016528Y012210D01*
X016643Y012325D01*
X016778Y012460D01*
X018086Y012460D01*
X018150Y012524D01*
X018282Y012578D01*
X018424Y012578D01*
X018556Y012524D01*
X018657Y012423D01*
X018711Y012291D01*
X018711Y012149D01*
X018672Y012055D01*
X019123Y012505D01*
X019258Y012640D01*
X020323Y012640D01*
X020345Y012654D01*
X020416Y012640D01*
X020488Y012640D01*
X020506Y012622D01*
X020531Y012617D01*
X020572Y012557D01*
X020623Y012505D01*
X020623Y012480D01*
X020750Y012288D01*
X020784Y012288D01*
X020916Y012234D01*
X021017Y012133D01*
X021071Y012001D01*
X021071Y011859D01*
X021017Y011727D01*
X020916Y011626D01*
X020784Y011572D01*
X020741Y011572D01*
X020856Y011524D01*
X020957Y011423D01*
X021011Y011291D01*
X021011Y011187D01*
X022103Y010095D01*
X022103Y009417D01*
X022177Y009343D01*
X022231Y009211D01*
X022231Y009069D01*
X022184Y008956D01*
X022294Y008974D01*
X022311Y010875D01*
X022239Y010947D01*
X022184Y011079D01*
X022184Y011221D01*
X022239Y011353D01*
X022340Y011454D01*
X022472Y011508D01*
X022614Y011508D01*
X022746Y011454D01*
X022847Y011353D01*
X022901Y011221D01*
X022901Y011079D01*
X022847Y010947D01*
X022770Y010871D01*
X022753Y008798D01*
X022766Y008725D01*
X022752Y008706D01*
X022752Y008683D01*
X022699Y008630D01*
X022655Y008569D01*
X022633Y008565D01*
X022616Y008549D01*
X022541Y008550D01*
X020776Y008250D01*
X020767Y008227D01*
X020666Y008126D01*
X020534Y008072D01*
X020392Y008072D01*
X020383Y008075D01*
X020383Y006525D01*
X020393Y006515D01*
X020393Y006369D01*
X020461Y005957D01*
X021305Y005488D01*
X021334Y005488D01*
X021400Y005554D01*
X021532Y005608D01*
X021674Y005608D01*
X021806Y005554D01*
X021907Y005453D01*
X021931Y005393D01*
X024843Y008168D01*
X024833Y012605D01*
X024833Y012605D01*
X024833Y012700D01*
X024833Y012795D01*
X024833Y012795D01*
X024833Y012795D01*
X024900Y012862D01*
X024967Y012930D01*
X024967Y012930D01*
X024992Y012954D01*
X025015Y013004D01*
X025057Y013019D01*
X025088Y013050D01*
X025143Y013050D01*
X026683Y013605D01*
X026683Y013900D01*
X026993Y014210D01*
X027432Y014210D01*
X027743Y013900D01*
X027743Y013460D01*
X027462Y013180D01*
X027743Y012900D01*
X027743Y012460D01*
X027462Y012180D01*
X027743Y011900D01*
X027743Y011460D01*
X027462Y011180D01*
X027743Y010900D01*
X027743Y010460D01*
X027462Y010180D01*
X027743Y009900D01*
X027743Y009460D01*
X027462Y009180D01*
X027743Y008900D01*
X027743Y008460D01*
X027443Y008160D01*
X027443Y001215D01*
X026983Y000755D01*
X026848Y000620D01*
X022918Y000620D01*
X022783Y000755D01*
X020076Y003462D01*
X020002Y003462D01*
X019870Y003516D01*
X019769Y003617D01*
X019714Y003749D01*
X019714Y003891D01*
X019769Y004023D01*
X019856Y004110D01*
X019799Y004167D01*
X019774Y004228D01*
X019757Y004187D01*
X019656Y004086D01*
X019524Y004032D01*
X019382Y004032D01*
X019368Y004037D01*
X018873Y003743D01*
X018859Y003729D01*
X018829Y003717D01*
X018801Y003700D01*
X018782Y003697D01*
X018763Y003690D01*
X018731Y003690D01*
X018699Y003685D01*
X018680Y003690D01*
X012559Y003719D01*
X012516Y003676D01*
X012384Y003622D01*
X012242Y003622D01*
X012110Y003676D01*
X012009Y003777D01*
X011954Y003909D01*
X011954Y004051D01*
X012009Y004183D01*
X012110Y004284D01*
X012242Y004338D01*
X012384Y004338D01*
X012516Y004284D01*
X012561Y004239D01*
X018642Y004210D01*
X019104Y004485D01*
X019149Y004593D01*
X019250Y004694D01*
X019382Y004748D01*
X019524Y004748D01*
X019656Y004694D01*
X019757Y004593D01*
X019782Y004532D01*
X019799Y004573D01*
X019900Y004674D01*
X020032Y004728D01*
X020174Y004728D01*
X020306Y004674D01*
X020407Y004573D01*
X020461Y004441D01*
X020461Y004337D01*
X020481Y004317D01*
X020529Y004433D01*
X020630Y004534D01*
X020762Y004588D01*
X020904Y004588D01*
X021036Y004534D01*
X021137Y004433D01*
X021191Y004301D01*
X021423Y004301D01*
X021423Y004177D02*
X021349Y004103D01*
X021323Y004041D01*
X021191Y004183D01*
X021191Y004301D01*
X021229Y004143D02*
X021388Y004143D01*
X021423Y004177D02*
X021423Y004718D01*
X021421Y004720D01*
X021423Y004813D01*
X021423Y004905D01*
X021425Y004908D01*
X021425Y004911D01*
X021443Y004928D01*
X021400Y004946D01*
X021318Y005028D01*
X021272Y005029D01*
X021214Y005013D01*
X021180Y005032D01*
X021141Y005033D01*
X021100Y005076D01*
X020211Y005570D01*
X020197Y005567D01*
X020130Y005615D01*
X020058Y005655D01*
X020054Y005670D01*
X020042Y005678D01*
X020028Y005759D01*
X020006Y005838D01*
X020013Y005851D01*
X019938Y006299D01*
X019923Y006315D01*
X019923Y006391D01*
X019910Y006466D01*
X019923Y006484D01*
X019923Y009035D01*
X019053Y009905D01*
X019053Y011553D01*
X018979Y011627D01*
X018954Y011686D01*
X018702Y011434D01*
X018693Y010245D01*
X018708Y010221D01*
X018693Y010153D01*
X018692Y010083D01*
X018672Y010063D01*
X018666Y010035D01*
X018606Y009998D01*
X018581Y009974D01*
X018581Y009959D01*
X018527Y009827D01*
X018426Y009726D01*
X018294Y009672D01*
X018152Y009672D01*
X018020Y009726D01*
X017919Y009827D01*
X017864Y009959D01*
X017864Y010101D01*
X017919Y010233D01*
X018020Y010334D01*
X018152Y010388D01*
X018234Y010388D01*
X018243Y011531D01*
X018243Y011625D01*
X018244Y011626D01*
X018244Y011627D01*
X018311Y011693D01*
X018518Y011900D01*
X018424Y011862D01*
X018282Y011862D01*
X018150Y011916D01*
X018066Y012000D01*
X018000Y012000D01*
X018017Y011983D01*
X018071Y011851D01*
X018071Y011709D01*
X018017Y011577D01*
X017943Y011503D01*
X017943Y010735D01*
X017808Y010600D01*
X017508Y010300D01*
X015408Y010300D01*
X015343Y010235D01*
X015466Y010184D01*
X015567Y010083D01*
X015621Y009951D01*
X015621Y009847D01*
X016069Y009399D01*
X019126Y009050D01*
X019170Y009094D01*
X019302Y009148D01*
X019444Y009148D01*
X019576Y009094D01*
X019677Y008993D01*
X019731Y008861D01*
X019731Y008719D01*
X019677Y008587D01*
X019576Y008486D01*
X019444Y008432D01*
X019302Y008432D01*
X019170Y008486D01*
X019069Y008587D01*
X019066Y008594D01*
X015950Y008950D01*
X015868Y008950D01*
X015857Y008961D01*
X015842Y008962D01*
X015791Y009027D01*
X015296Y009522D01*
X015192Y009522D01*
X015060Y009576D01*
X014959Y009677D01*
X014908Y009800D01*
X014558Y009450D01*
X012240Y009450D01*
X012166Y009376D01*
X012034Y009322D01*
X011892Y009322D01*
X011760Y009376D01*
X011659Y009477D01*
X011604Y009609D01*
X011604Y009751D01*
X011659Y009883D01*
X011726Y009950D01*
X011605Y009950D01*
X011443Y009626D01*
X011443Y009585D01*
X011402Y009544D01*
X011376Y009492D01*
X011337Y009479D01*
X011308Y009450D01*
X011250Y009450D01*
X011195Y009432D01*
X011159Y009450D01*
X009517Y009450D01*
X009480Y009432D01*
X009426Y009450D01*
X009368Y009450D01*
X009339Y009479D01*
X009300Y009492D01*
X009274Y009544D01*
X009233Y009585D01*
X009233Y009626D01*
X008774Y010544D01*
X008733Y010585D01*
X008733Y010626D01*
X008715Y010662D01*
X008733Y010717D01*
X008733Y011403D01*
X008659Y011477D01*
X008604Y011609D01*
X008604Y011751D01*
X008659Y011883D01*
X008760Y011984D01*
X008892Y012038D01*
X009034Y012038D01*
X009166Y011984D01*
X009267Y011883D01*
X009321Y011751D01*
X009321Y011609D01*
X009267Y011477D01*
X009193Y011403D01*
X009193Y010734D01*
X009605Y009910D01*
X011071Y009910D01*
X011233Y010234D01*
X011233Y010275D01*
X011274Y010316D01*
X011300Y010368D01*
X011339Y010381D01*
X011368Y010410D01*
X011426Y010410D01*
X011480Y010428D01*
X011517Y010410D01*
X014338Y010410D01*
X014809Y011133D01*
X014794Y011169D01*
X014794Y011311D01*
X014833Y011404D01*
X012266Y011410D01*
X011832Y011279D01*
X011807Y011217D01*
X011706Y011116D01*
X011574Y011062D01*
X011432Y011062D01*
X011300Y011116D01*
X011199Y011217D01*
X011144Y011349D01*
X011144Y011491D01*
X011199Y011623D01*
X011300Y011724D01*
X011432Y011778D01*
X011574Y011778D01*
X011706Y011724D01*
X011708Y011722D01*
X012111Y011844D01*
X012138Y011870D01*
X012199Y011870D01*
X012258Y011888D01*
X012291Y011870D01*
X014332Y011865D01*
X014314Y011909D01*
X010445Y011909D01*
X010177Y011777D02*
X010127Y011657D01*
X010026Y011556D01*
X009894Y011502D01*
X009752Y011502D01*
X009620Y011556D01*
X009519Y011657D01*
X009464Y011789D01*
X009464Y011931D01*
X009519Y012063D01*
X009620Y012164D01*
X009752Y012218D01*
X009894Y012218D01*
X009968Y012188D01*
X010787Y012590D01*
X010828Y012630D01*
X010870Y012630D01*
X010907Y012648D01*
X010961Y012630D01*
X012189Y012627D01*
X009361Y015273D01*
X009105Y015167D01*
X008781Y015167D01*
X008482Y015291D01*
X008254Y015519D01*
X008130Y015818D01*
X008130Y016142D01*
X008254Y016441D01*
X008482Y016669D01*
X008490Y016673D01*
X008284Y016879D01*
X008160Y017178D01*
X008160Y017502D01*
X008284Y017801D01*
X008512Y018029D01*
X008794Y018146D01*
X005651Y018146D01*
X005933Y018029D01*
X006162Y017801D01*
X006286Y017502D01*
X006286Y017178D01*
X006162Y016879D01*
X005933Y016651D01*
X005925Y016647D01*
X006132Y016441D01*
X006256Y016142D01*
X006256Y015818D01*
X006132Y015519D01*
X005903Y015291D01*
X005605Y015167D01*
X005281Y015167D01*
X004982Y015291D01*
X004754Y015519D01*
X004630Y015818D01*
X004630Y016142D01*
X004754Y016441D01*
X004982Y016669D01*
X004990Y016673D01*
X004784Y016879D01*
X004660Y017178D01*
X004660Y017502D01*
X004784Y017801D01*
X005012Y018029D01*
X005294Y018146D01*
X002151Y018146D01*
X002433Y018029D01*
X002662Y017801D01*
X002786Y017502D01*
X002786Y017178D01*
X002662Y016879D01*
X002433Y016651D01*
X002425Y016647D01*
X002632Y016441D01*
X002756Y016142D01*
X002756Y015818D01*
X002632Y015519D01*
X002403Y015291D01*
X002105Y015167D01*
X001781Y015167D01*
X001482Y015291D01*
X001254Y015519D01*
X001130Y015818D01*
X001130Y016142D01*
X001254Y016441D01*
X001482Y016669D01*
X001490Y016673D01*
X001284Y016879D01*
X001160Y017178D01*
X001160Y017502D01*
X001284Y017801D01*
X001512Y018029D01*
X001794Y018146D01*
X000743Y018146D01*
X000743Y018091D02*
X001660Y018091D01*
X001415Y017932D02*
X000743Y017932D01*
X000743Y017774D02*
X001272Y017774D01*
X001207Y017615D02*
X000743Y017615D01*
X000743Y017457D02*
X001160Y017457D01*
X001160Y017298D02*
X000743Y017298D01*
X000743Y017140D02*
X001176Y017140D01*
X001241Y016981D02*
X000743Y016981D01*
X000743Y016823D02*
X001340Y016823D01*
X001477Y016664D02*
X000743Y016664D01*
X000743Y016506D02*
X001319Y016506D01*
X001215Y016347D02*
X000743Y016347D01*
X000743Y016189D02*
X001149Y016189D01*
X001130Y016030D02*
X000743Y016030D01*
X000743Y015872D02*
X001130Y015872D01*
X001173Y015713D02*
X000743Y015713D01*
X000743Y015555D02*
X001239Y015555D01*
X001377Y015396D02*
X000743Y015396D01*
X000743Y015238D02*
X001611Y015238D01*
X002275Y015238D02*
X005111Y015238D01*
X004877Y015396D02*
X002509Y015396D01*
X002647Y015555D02*
X004739Y015555D01*
X004673Y015713D02*
X002712Y015713D01*
X002756Y015872D02*
X004630Y015872D01*
X004630Y016030D02*
X002756Y016030D01*
X002737Y016189D02*
X004649Y016189D01*
X004715Y016347D02*
X002671Y016347D01*
X002567Y016506D02*
X004819Y016506D01*
X004977Y016664D02*
X002447Y016664D01*
X002605Y016823D02*
X004840Y016823D01*
X004741Y016981D02*
X002704Y016981D01*
X002770Y017140D02*
X004676Y017140D01*
X004660Y017298D02*
X002786Y017298D01*
X002786Y017457D02*
X004660Y017457D01*
X004707Y017615D02*
X002739Y017615D01*
X002673Y017774D02*
X004772Y017774D01*
X004915Y017932D02*
X002531Y017932D01*
X002286Y018091D02*
X005160Y018091D01*
X005786Y018091D02*
X008660Y018091D01*
X008415Y017932D02*
X006031Y017932D01*
X006173Y017774D02*
X008272Y017774D01*
X008207Y017615D02*
X006239Y017615D01*
X006286Y017457D02*
X008160Y017457D01*
X008160Y017298D02*
X006286Y017298D01*
X006270Y017140D02*
X008176Y017140D01*
X008241Y016981D02*
X006204Y016981D01*
X006105Y016823D02*
X008340Y016823D01*
X008477Y016664D02*
X005947Y016664D01*
X006067Y016506D02*
X008319Y016506D01*
X008215Y016347D02*
X006171Y016347D01*
X006237Y016189D02*
X008149Y016189D01*
X008130Y016030D02*
X006256Y016030D01*
X006256Y015872D02*
X008130Y015872D01*
X008173Y015713D02*
X006212Y015713D01*
X006147Y015555D02*
X008239Y015555D01*
X008377Y015396D02*
X006009Y015396D01*
X005775Y015238D02*
X008611Y015238D01*
X009275Y015238D02*
X009400Y015238D01*
X009569Y015079D02*
X000743Y015079D01*
X000743Y014921D02*
X009739Y014921D01*
X009908Y014762D02*
X000743Y014762D01*
X000743Y014604D02*
X010077Y014604D01*
X010247Y014445D02*
X000743Y014445D01*
X000743Y014287D02*
X010416Y014287D01*
X010586Y014128D02*
X000743Y014128D01*
X000743Y013970D02*
X010755Y013970D01*
X010924Y013811D02*
X000743Y013811D01*
X000743Y013653D02*
X011094Y013653D01*
X011263Y013494D02*
X000743Y013494D01*
X000743Y013336D02*
X011432Y013336D01*
X011602Y013177D02*
X000743Y013177D01*
X000743Y013019D02*
X001523Y013019D01*
X001551Y013047D02*
X001416Y012912D01*
X001343Y012735D01*
X001343Y012545D01*
X001416Y012368D01*
X001551Y012233D01*
X001727Y012160D01*
X002518Y012160D01*
X002695Y012233D01*
X002830Y012368D01*
X002903Y012545D01*
X002903Y012735D01*
X002830Y012912D01*
X002695Y013047D01*
X002518Y013120D01*
X001727Y013120D01*
X001551Y013047D01*
X001394Y012860D02*
X000743Y012860D01*
X000743Y012702D02*
X001343Y012702D01*
X001343Y012543D02*
X000743Y012543D01*
X000743Y012385D02*
X001409Y012385D01*
X001568Y012226D02*
X000743Y012226D01*
X000743Y012068D02*
X001605Y012068D01*
X001639Y012085D02*
X001571Y012051D01*
X001510Y012006D01*
X001457Y011953D01*
X001412Y011892D01*
X001378Y011824D01*
X001355Y011752D01*
X001343Y011678D01*
X001343Y011660D01*
X002103Y011660D01*
X002103Y012120D01*
X001785Y012120D01*
X001710Y012108D01*
X001639Y012085D01*
X001425Y011909D02*
X000743Y011909D01*
X000743Y011751D02*
X001354Y011751D01*
X001343Y011620D02*
X001343Y011602D01*
X001355Y011528D01*
X001378Y011456D01*
X001412Y011388D01*
X001457Y011327D01*
X001510Y011274D01*
X001571Y011229D01*
X001639Y011195D01*
X001710Y011172D01*
X001785Y011160D01*
X002103Y011160D01*
X002103Y011620D01*
X002143Y011620D01*
X002143Y011660D01*
X002903Y011660D01*
X002903Y011678D01*
X002891Y011752D01*
X002868Y011824D01*
X002833Y011892D01*
X002789Y011953D01*
X002736Y012006D01*
X002674Y012051D01*
X002607Y012085D01*
X002535Y012108D01*
X002461Y012120D01*
X002143Y012120D01*
X002143Y011660D01*
X002103Y011660D01*
X002103Y011620D01*
X001343Y011620D01*
X001344Y011592D02*
X000743Y011592D01*
X000743Y011434D02*
X001389Y011434D01*
X001509Y011275D02*
X000743Y011275D01*
X000743Y011117D02*
X008733Y011117D01*
X008733Y011275D02*
X002737Y011275D01*
X002736Y011274D02*
X002789Y011327D01*
X002833Y011388D01*
X002868Y011456D01*
X002891Y011528D01*
X002903Y011602D01*
X002903Y011620D01*
X002143Y011620D01*
X002143Y011160D01*
X002461Y011160D01*
X002535Y011172D01*
X002607Y011195D01*
X002674Y011229D01*
X002736Y011274D01*
X002856Y011434D02*
X008702Y011434D01*
X008611Y011592D02*
X002901Y011592D01*
X002891Y011751D02*
X008604Y011751D01*
X008685Y011909D02*
X002821Y011909D01*
X002641Y012068D02*
X009523Y012068D01*
X009464Y011909D02*
X009241Y011909D01*
X009321Y011751D02*
X009480Y011751D01*
X009584Y011592D02*
X009314Y011592D01*
X009223Y011434D02*
X011144Y011434D01*
X011175Y011275D02*
X009193Y011275D01*
X009193Y011117D02*
X011299Y011117D01*
X011706Y011117D02*
X014798Y011117D01*
X014794Y011275D02*
X011831Y011275D01*
X011802Y011751D02*
X011642Y011751D01*
X011364Y011751D02*
X010165Y011751D01*
X010177Y011777D02*
X010976Y012170D01*
X014361Y012163D01*
X014314Y012051D01*
X014314Y011909D01*
X014321Y012068D02*
X010767Y012068D01*
X010692Y012543D02*
X002902Y012543D01*
X002903Y012702D02*
X012110Y012702D01*
X011941Y012860D02*
X002851Y012860D01*
X002723Y013019D02*
X011771Y013019D01*
X012106Y013336D02*
X025934Y013336D01*
X025495Y013177D02*
X012275Y013177D01*
X012445Y013019D02*
X014494Y013019D01*
X015031Y013019D02*
X025055Y013019D01*
X024898Y012860D02*
X015118Y012860D01*
X015118Y012702D02*
X015528Y012702D01*
X015897Y012702D02*
X024833Y012702D01*
X024833Y012543D02*
X020585Y012543D01*
X020686Y012385D02*
X024834Y012385D01*
X024834Y012226D02*
X020924Y012226D01*
X021044Y012068D02*
X024834Y012068D01*
X024835Y011909D02*
X021071Y011909D01*
X021026Y011751D02*
X024835Y011751D01*
X024835Y011592D02*
X020833Y011592D01*
X020946Y011434D02*
X022319Y011434D01*
X022207Y011275D02*
X021011Y011275D01*
X021082Y011117D02*
X022184Y011117D01*
X022234Y010958D02*
X021240Y010958D01*
X021399Y010800D02*
X022310Y010800D01*
X022309Y010641D02*
X021557Y010641D01*
X021716Y010483D02*
X022307Y010483D01*
X022306Y010324D02*
X021874Y010324D01*
X022033Y010166D02*
X022305Y010166D01*
X022303Y010007D02*
X022103Y010007D01*
X022103Y009849D02*
X022302Y009849D01*
X022301Y009690D02*
X022103Y009690D01*
X022103Y009532D02*
X022299Y009532D01*
X022298Y009373D02*
X022147Y009373D01*
X022230Y009215D02*
X022296Y009215D01*
X022295Y009056D02*
X022226Y009056D01*
X022755Y009056D02*
X024841Y009056D01*
X024841Y008898D02*
X022754Y008898D01*
X022763Y008739D02*
X024841Y008739D01*
X024842Y008581D02*
X022663Y008581D01*
X022757Y009215D02*
X024840Y009215D01*
X024840Y009373D02*
X022758Y009373D01*
X022759Y009532D02*
X024840Y009532D01*
X024839Y009690D02*
X022761Y009690D01*
X022762Y009849D02*
X024839Y009849D01*
X024839Y010007D02*
X022763Y010007D01*
X022765Y010166D02*
X024838Y010166D01*
X024838Y010324D02*
X022766Y010324D01*
X022767Y010483D02*
X024838Y010483D01*
X024837Y010641D02*
X022769Y010641D01*
X022770Y010800D02*
X024837Y010800D01*
X024837Y010958D02*
X022851Y010958D01*
X022901Y011117D02*
X024836Y011117D01*
X024836Y011275D02*
X022879Y011275D01*
X022766Y011434D02*
X024836Y011434D01*
X026374Y013494D02*
X017784Y013494D01*
X017898Y013653D02*
X026683Y013653D01*
X026683Y013811D02*
X017921Y013811D01*
X017872Y013970D02*
X021166Y013970D01*
X021705Y014445D02*
X027803Y014445D01*
X027803Y014287D02*
X021807Y014287D01*
X021821Y014128D02*
X026911Y014128D01*
X026753Y013970D02*
X021759Y013970D01*
X022111Y015238D02*
X019275Y015238D01*
X019509Y015396D02*
X021877Y015396D01*
X021739Y015555D02*
X019647Y015555D01*
X019712Y015713D02*
X021673Y015713D01*
X021630Y015872D02*
X019756Y015872D01*
X019756Y016030D02*
X021630Y016030D01*
X021649Y016189D02*
X019737Y016189D01*
X019671Y016347D02*
X021715Y016347D01*
X021819Y016506D02*
X019567Y016506D01*
X019447Y016664D02*
X021977Y016664D01*
X021840Y016823D02*
X019605Y016823D01*
X019704Y016981D02*
X021741Y016981D01*
X021676Y017140D02*
X019770Y017140D01*
X019786Y017298D02*
X021660Y017298D01*
X021660Y017457D02*
X019786Y017457D01*
X019739Y017615D02*
X021707Y017615D01*
X021772Y017774D02*
X019673Y017774D01*
X019531Y017932D02*
X021915Y017932D01*
X022160Y018091D02*
X019286Y018091D01*
X018611Y015238D02*
X018526Y015238D01*
X018367Y015079D02*
X027803Y015079D01*
X027803Y014921D02*
X018209Y014921D01*
X018050Y014762D02*
X027803Y014762D01*
X027803Y014604D02*
X017892Y014604D01*
X017342Y013494D02*
X011936Y013494D01*
X011767Y013653D02*
X014959Y013653D01*
X014779Y013811D02*
X011598Y013811D01*
X011428Y013970D02*
X014598Y013970D01*
X014418Y014128D02*
X011259Y014128D01*
X011089Y014287D02*
X014238Y014287D01*
X014057Y014445D02*
X010920Y014445D01*
X010751Y014604D02*
X013877Y014604D01*
X013696Y014762D02*
X010581Y014762D01*
X010412Y014921D02*
X013516Y014921D01*
X013335Y015079D02*
X010242Y015079D01*
X010073Y015238D02*
X012111Y015238D01*
X011877Y015396D02*
X009904Y015396D01*
X009734Y015555D02*
X011739Y015555D01*
X011673Y015713D02*
X009712Y015713D01*
X009756Y015872D02*
X011630Y015872D01*
X011630Y016030D02*
X009756Y016030D01*
X009737Y016189D02*
X011649Y016189D01*
X011715Y016347D02*
X009671Y016347D01*
X009567Y016506D02*
X011819Y016506D01*
X011977Y016664D02*
X009447Y016664D01*
X009605Y016823D02*
X011840Y016823D01*
X011741Y016981D02*
X009704Y016981D01*
X009770Y017140D02*
X011676Y017140D01*
X011660Y017298D02*
X009786Y017298D01*
X009786Y017457D02*
X011660Y017457D01*
X011707Y017615D02*
X009739Y017615D01*
X009673Y017774D02*
X011772Y017774D01*
X011915Y017932D02*
X009531Y017932D01*
X009286Y018091D02*
X012160Y018091D01*
X012775Y015238D02*
X013155Y015238D01*
X016037Y012543D02*
X018196Y012543D01*
X018510Y012543D02*
X019161Y012543D01*
X019002Y012385D02*
X018673Y012385D01*
X018711Y012226D02*
X018844Y012226D01*
X018685Y012068D02*
X018678Y012068D01*
X018368Y011751D02*
X018071Y011751D01*
X018047Y011909D02*
X018167Y011909D01*
X018243Y011592D02*
X018023Y011592D01*
X017943Y011434D02*
X018242Y011434D01*
X018241Y011275D02*
X017943Y011275D01*
X017943Y011117D02*
X018240Y011117D01*
X018239Y010958D02*
X017943Y010958D01*
X017943Y010800D02*
X018237Y010800D01*
X018236Y010641D02*
X017849Y010641D01*
X017691Y010483D02*
X018235Y010483D01*
X018010Y010324D02*
X017532Y010324D01*
X017891Y010166D02*
X015484Y010166D01*
X015598Y010007D02*
X017864Y010007D01*
X017910Y009849D02*
X015621Y009849D01*
X015778Y009690D02*
X018107Y009690D01*
X018339Y009690D02*
X019268Y009690D01*
X019426Y009532D02*
X015937Y009532D01*
X016299Y009373D02*
X019585Y009373D01*
X019743Y009215D02*
X017685Y009215D01*
X017795Y008739D02*
X014670Y008739D01*
X014561Y008837D02*
X014498Y008900D01*
X014491Y008900D01*
X014486Y008905D01*
X014397Y008900D01*
X013983Y008900D01*
X009058Y008910D01*
X008963Y008910D01*
X008868Y008910D01*
X008868Y008910D01*
X008868Y008910D01*
X008801Y008843D01*
X008733Y008776D01*
X008733Y008775D01*
X008368Y008410D01*
X007240Y008410D01*
X007166Y008484D01*
X007034Y008538D01*
X006892Y008538D01*
X006760Y008484D01*
X006659Y008383D01*
X006604Y008251D01*
X006604Y008109D01*
X006659Y007977D01*
X006760Y007876D01*
X006892Y007822D01*
X007034Y007822D01*
X007166Y007876D01*
X007240Y007950D01*
X007526Y007950D01*
X007459Y007883D01*
X007404Y007751D01*
X007404Y007609D01*
X007459Y007477D01*
X007560Y007376D01*
X007692Y007322D01*
X007834Y007322D01*
X007966Y007376D01*
X008040Y007450D01*
X008658Y007450D01*
X009308Y008100D01*
X010197Y008100D01*
X010007Y007910D01*
X009368Y007910D01*
X009233Y007775D01*
X008833Y007375D01*
X008833Y004707D01*
X008759Y004633D01*
X008704Y004501D01*
X008704Y004359D01*
X008759Y004227D01*
X008860Y004126D01*
X008992Y004072D01*
X009134Y004072D01*
X009266Y004126D01*
X009367Y004227D01*
X009421Y004359D01*
X009421Y004501D01*
X009367Y004633D01*
X009293Y004707D01*
X009293Y007185D01*
X009558Y007450D01*
X010007Y007450D01*
X010262Y007195D01*
X010623Y007195D01*
X010652Y007165D01*
X010262Y007165D01*
X009978Y006881D01*
X009978Y006479D01*
X010262Y006195D01*
X010664Y006195D01*
X010948Y006479D01*
X010948Y006881D01*
X010879Y006950D01*
X011047Y006950D01*
X010978Y006881D01*
X010978Y006479D01*
X011262Y006195D01*
X011664Y006195D01*
X011948Y006479D01*
X011948Y006870D01*
X012233Y006585D01*
X012233Y006085D01*
X012368Y005950D01*
X012604Y005713D01*
X012604Y005609D01*
X012659Y005477D01*
X012760Y005376D01*
X012892Y005322D01*
X013034Y005322D01*
X013166Y005376D01*
X013267Y005477D01*
X013321Y005609D01*
X013321Y005751D01*
X013267Y005883D01*
X013166Y005984D01*
X013034Y006038D01*
X012930Y006038D01*
X012693Y006275D01*
X012693Y006775D01*
X012193Y007275D01*
X012058Y007410D01*
X011879Y007410D01*
X011948Y007479D01*
X011948Y007666D01*
X011476Y007666D01*
X011476Y007694D01*
X011948Y007694D01*
X011948Y007881D01*
X011729Y008100D01*
X013258Y008100D01*
X014427Y007504D01*
X014479Y007377D01*
X014580Y007276D01*
X014587Y007273D01*
X014553Y007237D01*
X014104Y007009D01*
X014034Y007038D01*
X013892Y007038D01*
X013760Y006984D01*
X013659Y006883D01*
X013604Y006751D01*
X013604Y006609D01*
X013659Y006477D01*
X013760Y006376D01*
X013892Y006322D01*
X014034Y006322D01*
X014166Y006376D01*
X014267Y006477D01*
X014319Y006603D01*
X014751Y006822D01*
X014999Y006830D01*
X016007Y006849D01*
X016038Y006832D01*
X016099Y006851D01*
X016162Y006852D01*
X016187Y006877D01*
X016258Y006898D01*
X016260Y006896D01*
X016392Y006842D01*
X016534Y006842D01*
X016666Y006896D01*
X016767Y006997D01*
X016821Y007129D01*
X016821Y007271D01*
X016767Y007403D01*
X016666Y007504D01*
X016534Y007558D01*
X016392Y007558D01*
X016260Y007504D01*
X016159Y007403D01*
X016133Y007341D01*
X016027Y007309D01*
X015082Y007292D01*
X015080Y007293D01*
X015000Y007290D01*
X015087Y007377D01*
X015141Y007509D01*
X015141Y007651D01*
X015087Y007783D01*
X015008Y007862D01*
X015116Y007906D01*
X015217Y008007D01*
X015271Y008139D01*
X015271Y008281D01*
X015217Y008413D01*
X015116Y008514D01*
X014984Y008568D01*
X014859Y008568D01*
X014561Y008837D01*
X014501Y008898D02*
X016409Y008898D01*
X015762Y009056D02*
X000743Y009056D01*
X000743Y008898D02*
X002168Y008898D01*
X002204Y008934D02*
X002075Y008805D01*
X002006Y008637D01*
X002006Y008455D01*
X002075Y008287D01*
X002204Y008159D01*
X002372Y008089D01*
X002554Y008089D01*
X002722Y008159D01*
X002850Y008287D01*
X002920Y008455D01*
X002920Y008637D01*
X002850Y008805D01*
X002722Y008934D01*
X002554Y009003D01*
X002372Y009003D01*
X002204Y008934D01*
X002048Y008739D02*
X000743Y008739D01*
X000743Y008581D02*
X002006Y008581D01*
X002019Y008422D02*
X000743Y008422D01*
X000743Y008264D02*
X002099Y008264D01*
X002333Y008105D02*
X000743Y008105D01*
X000743Y007947D02*
X006689Y007947D01*
X006606Y008105D02*
X002592Y008105D01*
X002827Y008264D02*
X006609Y008264D01*
X006698Y008422D02*
X002906Y008422D01*
X002920Y008581D02*
X008538Y008581D01*
X008697Y008739D02*
X002878Y008739D01*
X002758Y008898D02*
X008855Y008898D01*
X009058Y008910D02*
X009058Y008910D01*
X009280Y009532D02*
X000743Y009532D01*
X000743Y009690D02*
X009201Y009690D01*
X009121Y009849D02*
X000743Y009849D01*
X000743Y010007D02*
X009042Y010007D01*
X008963Y010166D02*
X000743Y010166D01*
X000743Y010324D02*
X008884Y010324D01*
X008804Y010483D02*
X000743Y010483D01*
X000743Y010641D02*
X008725Y010641D01*
X008733Y010800D02*
X000743Y010800D01*
X000743Y010958D02*
X008733Y010958D01*
X009193Y010958D02*
X014695Y010958D01*
X014592Y010800D02*
X009193Y010800D01*
X009239Y010641D02*
X014488Y010641D01*
X014385Y010483D02*
X009319Y010483D01*
X009398Y010324D02*
X011278Y010324D01*
X011198Y010166D02*
X009477Y010166D01*
X009556Y010007D02*
X011119Y010007D01*
X011554Y009849D02*
X011645Y009849D01*
X011604Y009690D02*
X011475Y009690D01*
X011396Y009532D02*
X011636Y009532D01*
X011767Y009373D02*
X000743Y009373D01*
X000743Y009215D02*
X015603Y009215D01*
X015445Y009373D02*
X012158Y009373D01*
X011197Y008100D02*
X010978Y007881D01*
X010978Y007694D01*
X011449Y007694D01*
X011449Y007666D01*
X010978Y007666D01*
X010978Y007490D01*
X010948Y007520D01*
X010948Y007881D01*
X010729Y008100D01*
X011197Y008100D01*
X011043Y007947D02*
X010882Y007947D01*
X010948Y007788D02*
X010978Y007788D01*
X010978Y007630D02*
X010948Y007630D01*
X010251Y007154D02*
X009293Y007154D01*
X009293Y006996D02*
X010092Y006996D01*
X009978Y006837D02*
X009293Y006837D01*
X009293Y006679D02*
X009978Y006679D01*
X009978Y006520D02*
X009293Y006520D01*
X009293Y006362D02*
X010095Y006362D01*
X010254Y006203D02*
X009293Y006203D01*
X009293Y006045D02*
X010141Y006045D01*
X010262Y006165D02*
X009978Y005881D01*
X009978Y005479D01*
X010262Y005195D01*
X010664Y005195D01*
X010948Y005479D01*
X010948Y005881D01*
X010664Y006165D01*
X010262Y006165D01*
X009983Y005886D02*
X009293Y005886D01*
X009293Y005728D02*
X009978Y005728D01*
X009978Y005569D02*
X009293Y005569D01*
X009293Y005411D02*
X010046Y005411D01*
X010205Y005252D02*
X009293Y005252D01*
X009293Y005094D02*
X021069Y005094D01*
X020784Y005252D02*
X011721Y005252D01*
X011664Y005195D02*
X011948Y005479D01*
X011948Y005881D01*
X011664Y006165D01*
X011262Y006165D01*
X010978Y005881D01*
X010978Y005479D01*
X011262Y005195D01*
X011664Y005195D01*
X011879Y005411D02*
X012725Y005411D01*
X012621Y005569D02*
X011948Y005569D01*
X011948Y005728D02*
X012590Y005728D01*
X012432Y005886D02*
X011943Y005886D01*
X011784Y006045D02*
X012273Y006045D01*
X012233Y006203D02*
X011672Y006203D01*
X011830Y006362D02*
X012233Y006362D01*
X012233Y006520D02*
X011948Y006520D01*
X011948Y006679D02*
X012139Y006679D01*
X011981Y006837D02*
X011948Y006837D01*
X012314Y007154D02*
X014389Y007154D01*
X014543Y007313D02*
X012156Y007313D01*
X011940Y007471D02*
X014440Y007471D01*
X014180Y007630D02*
X011948Y007630D01*
X011948Y007788D02*
X013869Y007788D01*
X013558Y007947D02*
X011882Y007947D01*
X012473Y006996D02*
X013788Y006996D01*
X013640Y006837D02*
X012631Y006837D01*
X012693Y006679D02*
X013604Y006679D01*
X013641Y006520D02*
X012693Y006520D01*
X012693Y006362D02*
X013795Y006362D01*
X014131Y006362D02*
X019923Y006362D01*
X019923Y006520D02*
X014285Y006520D01*
X014469Y006679D02*
X019923Y006679D01*
X019923Y006837D02*
X016053Y006837D01*
X016029Y006837D02*
X015370Y006837D01*
X015022Y007313D02*
X016037Y007313D01*
X016227Y007471D02*
X015126Y007471D01*
X015141Y007630D02*
X019923Y007630D01*
X019923Y007788D02*
X015082Y007788D01*
X015156Y007947D02*
X019923Y007947D01*
X019923Y008105D02*
X015257Y008105D01*
X015271Y008264D02*
X019923Y008264D01*
X019923Y008422D02*
X015208Y008422D01*
X014845Y008581D02*
X019075Y008581D01*
X019071Y009056D02*
X019132Y009056D01*
X019614Y009056D02*
X019902Y009056D01*
X019923Y008898D02*
X019716Y008898D01*
X019731Y008739D02*
X019923Y008739D01*
X019923Y008581D02*
X019670Y008581D01*
X020383Y007947D02*
X024610Y007947D01*
X024776Y008105D02*
X020615Y008105D01*
X020856Y008264D02*
X024842Y008264D01*
X024842Y008422D02*
X021789Y008422D01*
X020383Y007788D02*
X024444Y007788D01*
X024277Y007630D02*
X020383Y007630D01*
X020383Y007471D02*
X024111Y007471D01*
X023945Y007313D02*
X020383Y007313D01*
X020383Y007154D02*
X023779Y007154D01*
X023612Y006996D02*
X020383Y006996D01*
X020383Y006837D02*
X023446Y006837D01*
X023280Y006679D02*
X020383Y006679D01*
X020388Y006520D02*
X023113Y006520D01*
X022947Y006362D02*
X020394Y006362D01*
X020421Y006203D02*
X022781Y006203D01*
X022615Y006045D02*
X020447Y006045D01*
X020590Y005886D02*
X022448Y005886D01*
X022282Y005728D02*
X020875Y005728D01*
X021160Y005569D02*
X021436Y005569D01*
X021769Y005569D02*
X022116Y005569D01*
X021949Y005411D02*
X021924Y005411D01*
X021427Y004935D02*
X009293Y004935D01*
X009293Y004777D02*
X021422Y004777D01*
X021423Y004618D02*
X020362Y004618D01*
X020454Y004460D02*
X020555Y004460D01*
X021110Y004460D02*
X021423Y004460D01*
X020498Y005411D02*
X013200Y005411D01*
X013305Y005569D02*
X020195Y005569D01*
X020206Y005569D02*
X020213Y005569D01*
X020033Y005728D02*
X013321Y005728D01*
X013264Y005886D02*
X020007Y005886D01*
X019981Y006045D02*
X012924Y006045D01*
X012765Y006203D02*
X019954Y006203D01*
X019923Y006996D02*
X016765Y006996D01*
X016821Y007154D02*
X019923Y007154D01*
X019923Y007313D02*
X016804Y007313D01*
X016699Y007471D02*
X019923Y007471D01*
X019109Y009849D02*
X018536Y009849D01*
X018620Y010007D02*
X019053Y010007D01*
X019053Y010166D02*
X018696Y010166D01*
X018694Y010324D02*
X019053Y010324D01*
X019053Y010483D02*
X018695Y010483D01*
X018696Y010641D02*
X019053Y010641D01*
X019053Y010800D02*
X018697Y010800D01*
X018699Y010958D02*
X019053Y010958D01*
X019053Y011117D02*
X018700Y011117D01*
X018701Y011275D02*
X019053Y011275D01*
X019053Y011434D02*
X018702Y011434D01*
X018860Y011592D02*
X019014Y011592D01*
X016702Y012385D02*
X016071Y012385D01*
X016033Y012226D02*
X016544Y012226D01*
X014954Y009690D02*
X014798Y009690D01*
X014640Y009532D02*
X015168Y009532D01*
X011186Y011592D02*
X010062Y011592D01*
X010047Y012226D02*
X002678Y012226D01*
X002837Y012385D02*
X010369Y012385D01*
X008380Y008422D02*
X007228Y008422D01*
X007236Y007947D02*
X007522Y007947D01*
X007420Y007788D02*
X000743Y007788D01*
X000743Y007630D02*
X007404Y007630D01*
X007465Y007471D02*
X000743Y007471D01*
X000743Y007313D02*
X008833Y007313D01*
X008833Y007154D02*
X002769Y007154D01*
X002722Y007201D02*
X002554Y007271D01*
X002372Y007271D01*
X002204Y007201D01*
X002075Y007073D01*
X002006Y006905D01*
X002006Y006723D01*
X002075Y006555D01*
X002204Y006426D01*
X002372Y006357D01*
X002554Y006357D01*
X002722Y006426D01*
X002850Y006555D01*
X002920Y006723D01*
X002920Y006905D01*
X002850Y007073D01*
X002722Y007201D01*
X002882Y006996D02*
X008833Y006996D01*
X008833Y006837D02*
X002920Y006837D01*
X002902Y006679D02*
X008833Y006679D01*
X008833Y006520D02*
X002816Y006520D01*
X002565Y006362D02*
X008833Y006362D01*
X008833Y006203D02*
X000743Y006203D01*
X000743Y006045D02*
X008833Y006045D01*
X008833Y005886D02*
X000743Y005886D01*
X000743Y005728D02*
X008833Y005728D01*
X008833Y005569D02*
X000743Y005569D01*
X000743Y005411D02*
X008833Y005411D01*
X008833Y005252D02*
X000743Y005252D01*
X000743Y005094D02*
X008833Y005094D01*
X008833Y004935D02*
X000743Y004935D01*
X000743Y004777D02*
X008833Y004777D01*
X008753Y004618D02*
X000743Y004618D01*
X000743Y004460D02*
X008704Y004460D01*
X008728Y004301D02*
X000743Y004301D01*
X000743Y004143D02*
X008843Y004143D01*
X009282Y004143D02*
X011992Y004143D01*
X011954Y003984D02*
X000743Y003984D01*
X000743Y003826D02*
X011989Y003826D01*
X012132Y003667D02*
X000743Y003667D01*
X000743Y003509D02*
X019888Y003509D01*
X019748Y003667D02*
X012494Y003667D01*
X012313Y003980D02*
X018713Y003950D01*
X019453Y004390D01*
X019712Y004143D02*
X019823Y004143D01*
X019753Y003984D02*
X019279Y003984D01*
X019012Y003826D02*
X019714Y003826D01*
X020188Y003350D02*
X000743Y003350D01*
X000743Y003192D02*
X020346Y003192D01*
X020505Y003033D02*
X000743Y003033D01*
X000743Y002875D02*
X020663Y002875D01*
X020822Y002716D02*
X000743Y002716D01*
X000743Y002558D02*
X020980Y002558D01*
X021139Y002399D02*
X000743Y002399D01*
X000743Y002241D02*
X021297Y002241D01*
X021456Y002082D02*
X000743Y002082D01*
X000743Y001924D02*
X021614Y001924D01*
X021773Y001765D02*
X000743Y001765D01*
X000743Y001607D02*
X021931Y001607D01*
X022090Y001448D02*
X000743Y001448D01*
X000743Y001290D02*
X022248Y001290D01*
X022407Y001131D02*
X000743Y001131D01*
X000743Y000973D02*
X022565Y000973D01*
X022724Y000814D02*
X000743Y000814D01*
X000743Y000656D02*
X022882Y000656D01*
X019061Y004460D02*
X009421Y004460D01*
X009397Y004301D02*
X012151Y004301D01*
X012474Y004301D02*
X018794Y004301D01*
X019174Y004618D02*
X009373Y004618D01*
X010721Y005252D02*
X011205Y005252D01*
X011046Y005411D02*
X010879Y005411D01*
X010948Y005569D02*
X010978Y005569D01*
X010978Y005728D02*
X010948Y005728D01*
X010943Y005886D02*
X010983Y005886D01*
X011141Y006045D02*
X010784Y006045D01*
X010672Y006203D02*
X011254Y006203D01*
X011095Y006362D02*
X010830Y006362D01*
X010948Y006520D02*
X010978Y006520D01*
X010978Y006679D02*
X010948Y006679D01*
X010948Y006837D02*
X010978Y006837D01*
X010144Y007313D02*
X009421Y007313D01*
X009087Y007630D02*
X008838Y007630D01*
X008929Y007471D02*
X008679Y007471D01*
X008996Y007788D02*
X009246Y007788D01*
X009155Y007947D02*
X010043Y007947D01*
X002360Y006362D02*
X000743Y006362D01*
X000743Y006520D02*
X002110Y006520D01*
X002024Y006679D02*
X000743Y006679D01*
X000743Y006837D02*
X002006Y006837D01*
X002043Y006996D02*
X000743Y006996D01*
X000743Y007154D02*
X002156Y007154D01*
X002103Y011275D02*
X002143Y011275D01*
X002143Y011434D02*
X002103Y011434D01*
X002103Y011592D02*
X002143Y011592D01*
X002143Y011751D02*
X002103Y011751D01*
X002103Y011909D02*
X002143Y011909D01*
X002143Y012068D02*
X002103Y012068D01*
X000743Y000497D02*
X027803Y000497D01*
X027803Y000656D02*
X026884Y000656D01*
X027042Y000814D02*
X027803Y000814D01*
X027803Y000973D02*
X027201Y000973D01*
X027359Y001131D02*
X027803Y001131D01*
X027803Y001290D02*
X027443Y001290D01*
X027443Y001448D02*
X027803Y001448D01*
X027803Y001607D02*
X027443Y001607D01*
X027443Y001765D02*
X027803Y001765D01*
X027803Y001924D02*
X027443Y001924D01*
X027443Y002082D02*
X027803Y002082D01*
X027803Y002241D02*
X027443Y002241D01*
X027443Y002399D02*
X027803Y002399D01*
X027803Y002558D02*
X027443Y002558D01*
X027443Y002716D02*
X027803Y002716D01*
X027803Y002875D02*
X027443Y002875D01*
X027443Y003033D02*
X027803Y003033D01*
X027803Y003192D02*
X027443Y003192D01*
X027443Y003350D02*
X027803Y003350D01*
X027803Y003509D02*
X027443Y003509D01*
X027443Y003667D02*
X027803Y003667D01*
X027803Y003826D02*
X027443Y003826D01*
X027443Y003984D02*
X027803Y003984D01*
X027803Y004143D02*
X027443Y004143D01*
X027443Y004301D02*
X027803Y004301D01*
X027803Y004460D02*
X027443Y004460D01*
X027443Y004618D02*
X027803Y004618D01*
X027803Y004777D02*
X027443Y004777D01*
X027443Y004935D02*
X027803Y004935D01*
X027803Y005094D02*
X027443Y005094D01*
X027443Y005252D02*
X027803Y005252D01*
X027803Y005411D02*
X027443Y005411D01*
X027443Y005569D02*
X027803Y005569D01*
X027803Y005728D02*
X027443Y005728D01*
X027443Y005886D02*
X027803Y005886D01*
X027803Y006045D02*
X027443Y006045D01*
X027443Y006203D02*
X027803Y006203D01*
X027803Y006362D02*
X027443Y006362D01*
X027443Y006520D02*
X027803Y006520D01*
X027803Y006679D02*
X027443Y006679D01*
X027443Y006837D02*
X027803Y006837D01*
X027803Y006996D02*
X027443Y006996D01*
X027443Y007154D02*
X027803Y007154D01*
X027803Y007313D02*
X027443Y007313D01*
X027443Y007471D02*
X027803Y007471D01*
X027803Y007630D02*
X027443Y007630D01*
X027443Y007788D02*
X027803Y007788D01*
X027803Y007947D02*
X027443Y007947D01*
X027443Y008105D02*
X027803Y008105D01*
X027803Y008264D02*
X027546Y008264D01*
X027704Y008422D02*
X027803Y008422D01*
X027803Y008581D02*
X027743Y008581D01*
X027743Y008739D02*
X027803Y008739D01*
X027803Y008898D02*
X027743Y008898D01*
X027803Y009056D02*
X027586Y009056D01*
X027497Y009215D02*
X027803Y009215D01*
X027803Y009373D02*
X027655Y009373D01*
X027743Y009532D02*
X027803Y009532D01*
X027803Y009690D02*
X027743Y009690D01*
X027743Y009849D02*
X027803Y009849D01*
X027803Y010007D02*
X027635Y010007D01*
X027477Y010166D02*
X027803Y010166D01*
X027803Y010324D02*
X027606Y010324D01*
X027743Y010483D02*
X027803Y010483D01*
X027803Y010641D02*
X027743Y010641D01*
X027743Y010800D02*
X027803Y010800D01*
X027803Y010958D02*
X027684Y010958D01*
X027803Y011117D02*
X027526Y011117D01*
X027557Y011275D02*
X027803Y011275D01*
X027803Y011434D02*
X027716Y011434D01*
X027743Y011592D02*
X027803Y011592D01*
X027803Y011751D02*
X027743Y011751D01*
X027733Y011909D02*
X027803Y011909D01*
X027803Y012068D02*
X027575Y012068D01*
X027508Y012226D02*
X027803Y012226D01*
X027803Y012385D02*
X027667Y012385D01*
X027743Y012543D02*
X027803Y012543D01*
X027803Y012702D02*
X027743Y012702D01*
X027743Y012860D02*
X027803Y012860D01*
X027803Y013019D02*
X027624Y013019D01*
X027465Y013177D02*
X027803Y013177D01*
X027803Y013336D02*
X027618Y013336D01*
X027743Y013494D02*
X027803Y013494D01*
X027803Y013653D02*
X027743Y013653D01*
X027743Y013811D02*
X027803Y013811D01*
X027803Y013970D02*
X027673Y013970D01*
X027803Y014128D02*
X027514Y014128D01*
X027803Y015238D02*
X026275Y015238D01*
X026509Y015396D02*
X027803Y015396D01*
X027803Y015555D02*
X026647Y015555D01*
X026712Y015713D02*
X027803Y015713D01*
X027803Y015872D02*
X026756Y015872D01*
X026756Y016030D02*
X027803Y016030D01*
X027803Y016189D02*
X026737Y016189D01*
X026671Y016347D02*
X027803Y016347D01*
X027803Y016506D02*
X026567Y016506D01*
X026447Y016664D02*
X027803Y016664D01*
X027803Y016823D02*
X026605Y016823D01*
X026704Y016981D02*
X027803Y016981D01*
X027803Y017140D02*
X026770Y017140D01*
X026786Y017298D02*
X027803Y017298D01*
X027803Y017457D02*
X026786Y017457D01*
X026739Y017615D02*
X027803Y017615D01*
X027803Y017774D02*
X026673Y017774D01*
X026531Y017932D02*
X027803Y017932D01*
X027803Y018091D02*
X026286Y018091D01*
X025660Y018091D02*
X022786Y018091D01*
X023031Y017932D02*
X025415Y017932D01*
X025272Y017774D02*
X023173Y017774D01*
X023239Y017615D02*
X025207Y017615D01*
X025160Y017457D02*
X023286Y017457D01*
X023286Y017298D02*
X025160Y017298D01*
X025176Y017140D02*
X023270Y017140D01*
X023204Y016981D02*
X025241Y016981D01*
X025340Y016823D02*
X023105Y016823D01*
X022947Y016664D02*
X025477Y016664D01*
X025319Y016506D02*
X023067Y016506D01*
X023171Y016347D02*
X025215Y016347D01*
X025149Y016189D02*
X023237Y016189D01*
X023256Y016030D02*
X025130Y016030D01*
X025130Y015872D02*
X023256Y015872D01*
X023212Y015713D02*
X025173Y015713D01*
X025239Y015555D02*
X023147Y015555D01*
X023009Y015396D02*
X025377Y015396D01*
X025611Y015238D02*
X022775Y015238D01*
X019844Y004618D02*
X019732Y004618D01*
D15*
X019453Y004390D03*
X020103Y004370D03*
X020073Y003820D03*
X020833Y004230D03*
X021653Y003900D03*
X022023Y004650D03*
X021603Y005250D03*
X022633Y002990D03*
X020463Y008430D03*
X019373Y008790D03*
X018223Y010030D03*
X017713Y011780D03*
X017213Y011780D03*
X018353Y012220D03*
X019283Y011830D03*
X020713Y011930D03*
X020653Y011220D03*
X022543Y011150D03*
X021873Y009140D03*
X017563Y013780D03*
X016463Y014680D03*
X015613Y014330D03*
X014763Y012780D03*
X014673Y011980D03*
X015153Y011240D03*
X015713Y012390D03*
X015263Y009880D03*
X014913Y008210D03*
X014783Y007580D03*
X013963Y006680D03*
X012963Y005680D03*
X012313Y003980D03*
X009063Y004430D03*
X007763Y007680D03*
X006963Y008180D03*
X008963Y011680D03*
X009823Y011860D03*
X011503Y011420D03*
X011963Y009680D03*
X016463Y007200D03*
X021463Y014180D03*
D16*
X021313Y014330D01*
X015613Y014330D01*
X015163Y013780D02*
X012453Y016160D01*
X015163Y013780D02*
X017563Y013780D01*
X017643Y014680D02*
X018943Y015980D01*
X017643Y014680D02*
X016463Y014680D01*
X014763Y012780D02*
X012363Y012780D01*
X008943Y015980D01*
X010923Y012400D02*
X009823Y011860D01*
X008963Y011680D02*
X008963Y010680D01*
X009463Y009680D01*
X011213Y009680D01*
X011463Y010180D01*
X014463Y010180D01*
X015153Y011240D01*
X015313Y010530D02*
X017413Y010530D01*
X017713Y010830D01*
X017713Y011780D01*
X017213Y011780D02*
X016823Y011630D01*
X012233Y011640D01*
X011503Y011420D01*
X010923Y012400D02*
X015713Y012390D01*
X016623Y011980D02*
X016873Y012230D01*
X018343Y012230D01*
X018353Y012220D01*
X018473Y011530D02*
X019353Y012410D01*
X020393Y012410D01*
X020713Y011930D01*
X020653Y011220D02*
X021873Y010000D01*
X021873Y009140D01*
X022523Y008780D02*
X020463Y008430D01*
X020153Y009130D02*
X020153Y006430D01*
X020163Y006420D01*
X020153Y006410D01*
X020253Y005810D01*
X021243Y005260D01*
X021603Y005250D01*
X021653Y004810D02*
X025073Y008070D01*
X025063Y012700D01*
X025183Y012820D01*
X027013Y013480D01*
X027213Y013680D01*
X027213Y012680D02*
X027063Y012530D01*
X025963Y012530D01*
X025383Y012000D01*
X025373Y007780D01*
X022073Y004680D01*
X022023Y004650D01*
X021653Y004810D02*
X021653Y003900D01*
X020833Y004230D02*
X023063Y001840D01*
X024483Y001840D01*
X025883Y003240D01*
X025883Y009350D01*
X027213Y010680D01*
X026813Y011280D02*
X026463Y011280D01*
X026463Y011260D01*
X026453Y011250D01*
X026463Y011280D02*
X025643Y010460D01*
X025643Y007570D01*
X025153Y007080D01*
X025153Y004400D01*
X024883Y004130D01*
X024883Y004090D01*
X023733Y004090D01*
X022633Y002990D01*
X022933Y001540D02*
X024853Y001470D01*
X026563Y003180D01*
X026563Y009110D01*
X027133Y009680D01*
X027213Y009680D01*
X027213Y008680D02*
X027213Y001310D01*
X026753Y000850D01*
X023013Y000850D01*
X020073Y003790D01*
X020073Y003820D01*
X020103Y004370D02*
X022933Y001540D01*
X016463Y007200D02*
X016063Y007080D01*
X014993Y007060D01*
X014693Y007050D01*
X013963Y006680D01*
X014783Y007580D02*
X013313Y008330D01*
X009213Y008330D01*
X008563Y007680D01*
X007763Y007680D01*
X008463Y008180D02*
X008963Y008680D01*
X013983Y008670D01*
X014403Y008670D01*
X014913Y008210D01*
X015963Y009180D02*
X015263Y009880D01*
X015963Y009180D02*
X019373Y008790D01*
X020153Y009130D02*
X019283Y010000D01*
X019283Y011830D01*
X018473Y011530D02*
X018463Y010180D01*
X018223Y010030D01*
X016623Y011980D02*
X014673Y011980D01*
X015313Y010530D02*
X014463Y009680D01*
X011963Y009680D01*
X010463Y007680D02*
X009463Y007680D01*
X009063Y007280D01*
X009063Y004430D01*
X010963Y007180D02*
X010463Y007680D01*
X010963Y007180D02*
X011963Y007180D01*
X012463Y006680D01*
X012463Y006180D01*
X012963Y005680D01*
X008463Y008180D02*
X006963Y008180D01*
X022523Y008780D02*
X022543Y011150D01*
X026813Y011280D02*
X027213Y011680D01*
M02*
