G75*
G70*
%OFA0B0*%
%FSLAX24Y24*%
%IPPOS*%
%LPD*%
%AMOC8*
5,1,8,0,0,1.08239X$1,22.5*
%
%ADD10C,0.0434*%
%ADD11OC8,0.0690*%
%ADD12C,0.1346*%
%ADD13OC8,0.0780*%
%ADD14C,0.0437*%
%ADD15C,0.0476*%
D10*
X002463Y006734D03*
X002463Y008466D03*
D11*
X010463Y007600D03*
X011463Y007600D03*
X011463Y006600D03*
X010463Y006600D03*
X010463Y005600D03*
X011463Y005600D03*
D12*
X012443Y015900D03*
X012473Y017260D03*
X015723Y017260D03*
X015693Y015900D03*
X018943Y015900D03*
X018973Y017260D03*
X022473Y017260D03*
X022443Y015900D03*
X025943Y015900D03*
X025973Y017260D03*
X008973Y017260D03*
X008943Y015900D03*
X005443Y015900D03*
X005473Y017260D03*
X001973Y017260D03*
X001943Y015900D03*
D13*
X027213Y013600D03*
X027213Y012600D03*
X027213Y011600D03*
X027213Y010600D03*
X027213Y009600D03*
X027213Y008600D03*
D14*
X021963Y009100D03*
X020463Y011100D03*
X020213Y011850D03*
X021463Y012400D03*
X021463Y014100D03*
X018353Y012140D03*
X017713Y011700D03*
X017213Y011700D03*
X015713Y012310D03*
X014763Y012700D03*
X014673Y011900D03*
X015153Y011160D03*
X015263Y009800D03*
X015183Y007910D03*
X014923Y007440D03*
X013963Y006600D03*
X012963Y005600D03*
X012313Y003900D03*
X009063Y004350D03*
X007763Y007600D03*
X006963Y008100D03*
X008963Y011600D03*
X009823Y011780D03*
X011503Y011340D03*
X011963Y009600D03*
X016763Y007000D03*
X018963Y009100D03*
X018213Y010100D03*
X017563Y013700D03*
X016463Y014600D03*
X015613Y014250D03*
X019663Y003750D03*
D15*
X018463Y002850D03*
X021463Y005600D03*
X020463Y006600D03*
X017963Y007100D03*
X025463Y008350D03*
X025463Y010600D03*
X026293Y012090D03*
M02*
