G75*
G70*
%OFA0B0*%
%FSLAX24Y24*%
%IPPOS*%
%LPD*%
%AMOC8*
5,1,8,0,0,1.08239X$1,22.5*
%
%ADD10R,0.0591X0.0197*%
%ADD11R,0.0197X0.0591*%
%ADD12R,0.0276X0.0354*%
%ADD13R,0.0984X0.0197*%
%ADD14R,0.0984X0.0787*%
%ADD15R,0.0394X0.0709*%
%ADD16OC8,0.0610*%
%ADD17C,0.0083*%
%ADD18R,0.0433X0.0394*%
%ADD19R,0.0394X0.0433*%
%ADD20R,0.0748X0.0433*%
%ADD21R,0.0354X0.0276*%
%ADD22R,0.0315X0.0315*%
%ADD23C,0.0050*%
%ADD24C,0.1266*%
%ADD25R,0.1760X0.2960*%
%ADD26R,0.0236X0.0866*%
%ADD27R,0.0118X0.0394*%
%ADD28R,0.0394X0.0118*%
%ADD29C,0.0080*%
%ADD30R,0.0250X0.0500*%
%ADD31R,0.0500X0.0250*%
%ADD32OC8,0.0700*%
%ADD33C,0.0100*%
%ADD34C,0.0160*%
%ADD35C,0.0120*%
%ADD36C,0.0357*%
%ADD37C,0.0396*%
D10*
X018179Y003525D03*
X018179Y003840D03*
X018179Y004155D03*
X018179Y004470D03*
X018179Y004785D03*
X018179Y005100D03*
X018179Y005415D03*
X018179Y005730D03*
X018179Y006045D03*
X018179Y006360D03*
X018179Y006675D03*
X022746Y006675D03*
X022746Y006360D03*
X022746Y006045D03*
X022746Y005730D03*
X022746Y005415D03*
X022746Y005100D03*
X022746Y004785D03*
X022746Y004470D03*
X022746Y004155D03*
X022746Y003840D03*
X022746Y003525D03*
D11*
X022038Y002817D03*
X021723Y002817D03*
X021408Y002817D03*
X021093Y002817D03*
X020778Y002817D03*
X020463Y002817D03*
X020148Y002817D03*
X019833Y002817D03*
X019518Y002817D03*
X019203Y002817D03*
X018888Y002817D03*
X018888Y007383D03*
X019203Y007383D03*
X019518Y007383D03*
X019833Y007383D03*
X020148Y007383D03*
X020463Y007383D03*
X020778Y007383D03*
X021093Y007383D03*
X021408Y007383D03*
X021723Y007383D03*
X022038Y007383D03*
D12*
X023727Y006340D03*
X024239Y006340D03*
X024249Y005740D03*
X023737Y005740D03*
X023707Y005080D03*
X024219Y005080D03*
X005419Y007500D03*
X004907Y007500D03*
X004907Y008100D03*
X005419Y008100D03*
D13*
X003447Y008230D03*
X003447Y007915D03*
X003447Y007600D03*
X003447Y007285D03*
X003447Y006970D03*
D14*
X003447Y005828D03*
X001282Y005828D03*
X001282Y009372D03*
X003447Y009372D03*
D15*
X004812Y009100D03*
X005914Y009100D03*
D16*
X010463Y007600D03*
X011463Y007600D03*
X011463Y006600D03*
X010463Y006600D03*
X010463Y005600D03*
X011463Y005600D03*
D17*
X005083Y004448D02*
X004535Y004448D01*
X005083Y004448D02*
X005083Y003980D01*
X004535Y003980D01*
X004535Y004448D01*
X004535Y004062D02*
X005083Y004062D01*
X005083Y004144D02*
X004535Y004144D01*
X004535Y004226D02*
X005083Y004226D01*
X005083Y004308D02*
X004535Y004308D01*
X004535Y004390D02*
X005083Y004390D01*
X005083Y006220D02*
X004535Y006220D01*
X005083Y006220D02*
X005083Y005752D01*
X004535Y005752D01*
X004535Y006220D01*
X004535Y005834D02*
X005083Y005834D01*
X005083Y005916D02*
X004535Y005916D01*
X004535Y005998D02*
X005083Y005998D01*
X005083Y006080D02*
X004535Y006080D01*
X004535Y006162D02*
X005083Y006162D01*
X007842Y006220D02*
X008390Y006220D01*
X008390Y005752D01*
X007842Y005752D01*
X007842Y006220D01*
X007842Y005834D02*
X008390Y005834D01*
X008390Y005916D02*
X007842Y005916D01*
X007842Y005998D02*
X008390Y005998D01*
X008390Y006080D02*
X007842Y006080D01*
X007842Y006162D02*
X008390Y006162D01*
X008390Y005334D02*
X007842Y005334D01*
X008390Y005334D02*
X008390Y004866D01*
X007842Y004866D01*
X007842Y005334D01*
X007842Y004948D02*
X008390Y004948D01*
X008390Y005030D02*
X007842Y005030D01*
X007842Y005112D02*
X008390Y005112D01*
X008390Y005194D02*
X007842Y005194D01*
X007842Y005276D02*
X008390Y005276D01*
X008390Y004448D02*
X007842Y004448D01*
X008390Y004448D02*
X008390Y003980D01*
X007842Y003980D01*
X007842Y004448D01*
X007842Y004062D02*
X008390Y004062D01*
X008390Y004144D02*
X007842Y004144D01*
X007842Y004226D02*
X008390Y004226D01*
X008390Y004308D02*
X007842Y004308D01*
X007842Y004390D02*
X008390Y004390D01*
D18*
X013228Y009700D03*
X013897Y009700D03*
X017128Y009300D03*
X017797Y009300D03*
X018178Y008000D03*
X018847Y008000D03*
X019748Y010050D03*
X020417Y010050D03*
X022028Y008200D03*
X022697Y008200D03*
X022797Y012500D03*
X022128Y012500D03*
X023578Y012500D03*
X024247Y012500D03*
X017447Y005200D03*
X016778Y005200D03*
X014797Y003100D03*
X014128Y003100D03*
X005597Y010000D03*
X004928Y010000D03*
X004928Y010900D03*
X005597Y010900D03*
D19*
X006913Y010435D03*
X006913Y009765D03*
X017163Y008335D03*
X017163Y007665D03*
X023663Y003835D03*
X023663Y003165D03*
X024263Y011065D03*
X024263Y011735D03*
D20*
X021141Y001903D03*
X021141Y000997D03*
X019684Y000997D03*
X019684Y001903D03*
D21*
X018813Y001506D03*
X018813Y000994D03*
X022063Y001244D03*
X022063Y001756D03*
D22*
X024963Y005055D03*
X024963Y005645D03*
X025713Y005645D03*
X025713Y006305D03*
X025713Y006895D03*
X026463Y005645D03*
X026463Y005055D03*
X025713Y005055D03*
X027213Y005055D03*
X027213Y005645D03*
X027213Y006305D03*
X027213Y006895D03*
X007563Y009705D03*
X007563Y010295D03*
D23*
X008063Y015100D02*
X008063Y018090D01*
X009853Y018090D01*
X009853Y015100D01*
X008073Y015100D01*
X006353Y015100D02*
X004573Y015100D01*
X004563Y015100D02*
X004563Y018090D01*
X006353Y018090D01*
X006353Y015100D01*
X002853Y015100D02*
X001073Y015100D01*
X001063Y015100D02*
X001063Y018090D01*
X002853Y018090D01*
X002853Y015100D01*
X011563Y015100D02*
X011563Y018090D01*
X013353Y018090D01*
X013353Y015100D01*
X011573Y015100D01*
X014813Y015100D02*
X014813Y018090D01*
X016603Y018090D01*
X016603Y015100D01*
X014823Y015100D01*
X018063Y015100D02*
X018063Y018090D01*
X019853Y018090D01*
X019853Y015100D01*
X018073Y015100D01*
X021563Y015100D02*
X021563Y018090D01*
X023353Y018090D01*
X023353Y015100D01*
X021573Y015100D01*
X025063Y015100D02*
X025063Y018090D01*
X026853Y018090D01*
X026853Y015100D01*
X025073Y015100D01*
D24*
X025943Y015900D03*
X025973Y017260D03*
X022473Y017260D03*
X022443Y015900D03*
X018943Y015900D03*
X018973Y017260D03*
X015723Y017260D03*
X015693Y015900D03*
X012443Y015900D03*
X012473Y017260D03*
X008973Y017260D03*
X008943Y015900D03*
X005443Y015900D03*
X005473Y017260D03*
X001973Y017260D03*
X001943Y015900D03*
D25*
X001963Y016600D03*
X005463Y016600D03*
X008963Y016600D03*
X012463Y016600D03*
X015713Y016600D03*
X018963Y016600D03*
X022463Y016600D03*
X025963Y016600D03*
D26*
X019713Y012974D03*
X019213Y012974D03*
X018713Y012974D03*
X018213Y012974D03*
X017713Y012974D03*
X017213Y012974D03*
X016713Y012974D03*
X016213Y012974D03*
X016213Y010926D03*
X016713Y010926D03*
X017213Y010926D03*
X017713Y010926D03*
X018213Y010926D03*
X018713Y010926D03*
X019213Y010926D03*
X019713Y010926D03*
X013213Y010576D03*
X012713Y010576D03*
X012213Y010576D03*
X011713Y010576D03*
X011213Y010576D03*
X010713Y010576D03*
X010213Y010576D03*
X009713Y010576D03*
X009713Y012624D03*
X010213Y012624D03*
X010713Y012624D03*
X011213Y012624D03*
X011713Y012624D03*
X012213Y012624D03*
X012713Y012624D03*
X013213Y012624D03*
D27*
X015819Y009836D03*
X016016Y009836D03*
X016213Y009836D03*
X016410Y009836D03*
X016607Y009836D03*
X016607Y008064D03*
X016410Y008064D03*
X016213Y008064D03*
X016016Y008064D03*
X015819Y008064D03*
D28*
X021577Y011006D03*
X021577Y011203D03*
X021577Y011400D03*
X021577Y011597D03*
X021577Y011794D03*
X023349Y011794D03*
X023349Y011597D03*
X023349Y011400D03*
X023349Y011203D03*
X023349Y011006D03*
D29*
X007363Y012850D02*
X007063Y012850D01*
X007063Y014100D02*
X007363Y014100D01*
D30*
X007413Y014100D03*
X007013Y014100D03*
X007013Y012850D03*
X007413Y012850D03*
X005140Y014100D03*
X004786Y014100D03*
D31*
X006213Y012277D03*
X006213Y011923D03*
D32*
X027213Y011600D03*
X027213Y010600D03*
X027213Y009600D03*
X027213Y008600D03*
X027213Y012600D03*
X027213Y013600D03*
D33*
X027193Y013620D01*
X026493Y013620D01*
X026303Y013430D01*
X026303Y013110D01*
X026293Y013100D01*
X026293Y012090D01*
X027213Y011600D02*
X027713Y011100D01*
X027713Y009350D01*
X027463Y009100D01*
X026713Y009100D01*
X026503Y009310D01*
X025853Y009310D01*
X023273Y006730D01*
X023273Y006220D01*
X023098Y006045D01*
X022746Y006045D01*
X022746Y006360D02*
X022223Y006360D01*
X021463Y005600D01*
X022746Y005730D02*
X023123Y005790D01*
X023727Y006340D01*
X024239Y006340D02*
X024653Y006350D01*
X024963Y006660D01*
X024963Y007040D01*
X025253Y007330D01*
X026778Y007330D01*
X027213Y006895D01*
X027713Y006600D01*
X027713Y005850D01*
X027213Y005645D01*
X026463Y005645D01*
X026413Y006260D02*
X026467Y006263D01*
X026263Y006900D01*
X025713Y006895D01*
X025713Y006305D02*
X024963Y006660D01*
X024963Y005645D02*
X024249Y005740D01*
X023737Y005740D02*
X023293Y005410D01*
X022746Y005415D01*
X022746Y005100D02*
X023707Y005080D01*
X024219Y005080D02*
X024963Y005055D01*
X025713Y005055D01*
X026463Y005055D01*
X027213Y005055D01*
X027213Y006305D02*
X026467Y006263D01*
X026413Y006260D02*
X025713Y005645D01*
X024963Y005645D01*
X023657Y003840D02*
X023663Y003835D01*
X023657Y003840D02*
X022746Y003840D01*
X021916Y001903D02*
X021141Y001903D01*
X020910Y001903D01*
X020513Y002300D01*
X020513Y002767D01*
X020463Y002817D01*
X020163Y002802D02*
X020148Y002817D01*
X020163Y002802D02*
X020163Y002400D01*
X020263Y002300D01*
X020263Y001350D01*
X019910Y000997D01*
X019684Y000997D01*
X018816Y000997D01*
X018813Y000994D01*
X019063Y002200D02*
X017213Y002200D01*
X016563Y002850D01*
X016013Y003400D01*
X015713Y003100D01*
X014797Y003100D01*
X014128Y003100D02*
X013656Y003572D01*
X012640Y003572D01*
X012313Y003900D01*
X012313Y003957D01*
X013229Y005334D02*
X014079Y005334D01*
X015840Y003572D01*
X016013Y003400D01*
X016438Y003525D02*
X013863Y006100D01*
X010963Y006100D01*
X010463Y005600D01*
X010783Y004950D02*
X011463Y005600D01*
X011463Y006600D02*
X013313Y006600D01*
X013963Y006600D01*
X016713Y003850D01*
X018170Y003850D01*
X018179Y003840D01*
X018179Y003525D02*
X016438Y003525D01*
X017008Y004155D02*
X015213Y005950D01*
X015213Y006350D01*
X014213Y007350D01*
X013213Y007350D01*
X012963Y007100D01*
X010963Y007100D01*
X010463Y006600D01*
X009963Y006600D01*
X009713Y006850D01*
X009713Y008850D01*
X010213Y009350D01*
X010213Y010576D01*
X010233Y010596D01*
X010233Y011250D01*
X010863Y011880D01*
X011653Y011880D01*
X011963Y011570D01*
X013773Y011570D01*
X015013Y010330D01*
X015293Y010330D01*
X015713Y010750D01*
X015713Y010850D01*
X015713Y011350D01*
X015963Y011600D01*
X016463Y011600D01*
X016713Y011350D01*
X016713Y010926D01*
X017213Y010926D02*
X017213Y011700D01*
X017713Y011700D02*
X017713Y011550D01*
X017713Y010926D01*
X018113Y010200D02*
X018213Y010100D01*
X018113Y010200D02*
X016413Y010200D01*
X016410Y010197D01*
X016410Y009836D01*
X016413Y009833D01*
X016413Y009500D01*
X016013Y009100D01*
X014963Y009100D01*
X014613Y009450D01*
X014613Y010200D01*
X013563Y011250D01*
X012913Y011250D01*
X012713Y011050D01*
X012713Y010576D01*
X013213Y010576D02*
X013213Y010250D01*
X013213Y010265D02*
X013228Y009700D01*
X011963Y009600D02*
X011713Y009850D01*
X011713Y010576D01*
X011213Y010576D02*
X011213Y009600D01*
X011963Y008850D01*
X015963Y008850D01*
X016213Y008600D01*
X016213Y007850D01*
X016213Y007450D01*
X016663Y007000D01*
X016763Y007000D01*
X016847Y007600D02*
X016463Y007600D01*
X016410Y007653D01*
X016410Y008064D01*
X016413Y008067D01*
X016413Y008800D01*
X016913Y009300D01*
X017128Y009300D01*
X016607Y009822D01*
X016607Y009836D01*
X016413Y009839D02*
X016410Y009836D01*
X016410Y010197D02*
X016413Y010200D01*
X015819Y009836D02*
X015783Y009800D01*
X015263Y009800D01*
X015213Y008600D02*
X014713Y008600D01*
X014213Y008100D01*
X014213Y007350D01*
X014213Y008100D01*
X014713Y008600D01*
X015213Y008600D02*
X016016Y008397D01*
X016016Y008064D01*
X016213Y008064D02*
X016213Y007850D01*
X016847Y007600D02*
X017163Y007665D01*
X017328Y007500D01*
X017328Y006525D01*
X017503Y006350D01*
X018453Y006350D01*
X018463Y006360D01*
X018179Y006360D01*
X018174Y006050D02*
X018179Y006045D01*
X018174Y006050D02*
X017013Y006050D01*
X016963Y006100D01*
X015183Y007910D01*
X014923Y007440D02*
X015083Y007290D01*
X016613Y005750D01*
X016633Y005730D01*
X018179Y005730D01*
X018179Y005415D02*
X018164Y005400D01*
X018179Y005100D02*
X017547Y005100D01*
X017447Y005200D01*
X017008Y004155D02*
X018179Y004155D01*
X018463Y002850D02*
X018496Y002817D01*
X018888Y002817D01*
X019203Y002816D02*
X019203Y002817D01*
X019203Y002816D02*
X019203Y002340D01*
X019063Y002200D01*
X021916Y001903D02*
X022063Y001756D01*
X022746Y006675D02*
X022746Y007133D01*
X025213Y009600D01*
X027213Y009600D01*
X027213Y008600D02*
X026963Y008350D01*
X025463Y008350D01*
X025463Y010600D02*
X027213Y010600D01*
X024263Y011065D02*
X024247Y011050D01*
X024013Y011050D01*
X023860Y011203D01*
X023349Y011203D01*
X023349Y011006D02*
X023342Y011000D01*
X022563Y011000D01*
X021963Y010400D01*
X021463Y010400D01*
X021093Y009230D01*
X021093Y007383D01*
X020778Y007383D02*
X020778Y009407D01*
X020963Y009900D01*
X020963Y010600D01*
X020963Y011006D01*
X021577Y011006D01*
X021580Y011200D02*
X021577Y011203D01*
X021580Y011200D02*
X022113Y011200D01*
X022797Y011885D01*
X022797Y012500D01*
X023578Y012500D01*
X024247Y012500D02*
X024263Y012485D01*
X024263Y011735D01*
X024228Y011700D01*
X024013Y011700D01*
X023910Y011597D01*
X023349Y011597D01*
X022163Y011700D02*
X022163Y012465D01*
X022128Y012500D01*
X021463Y012400D02*
X021463Y011908D01*
X021577Y011794D01*
X021574Y011600D02*
X021577Y011597D01*
X022060Y011597D01*
X022163Y011700D01*
X021574Y011600D02*
X020963Y011600D01*
X020713Y011850D01*
X020213Y011850D01*
X020463Y011100D02*
X020289Y010926D01*
X019713Y010926D01*
X019713Y010035D01*
X019748Y010050D01*
X019213Y009530D02*
X020143Y008600D01*
X020143Y007389D01*
X020148Y007383D01*
X020463Y007383D02*
X020463Y006600D01*
X019813Y007363D02*
X019833Y007383D01*
X019833Y008230D01*
X019463Y008600D01*
X018963Y009100D01*
X019213Y009530D02*
X019213Y010926D01*
X018753Y012140D02*
X018353Y012140D01*
X018753Y012140D02*
X018863Y012250D01*
X019213Y012600D01*
X019213Y012974D01*
X019213Y013850D01*
X019713Y014350D01*
X020893Y014350D01*
X022443Y015900D01*
X022463Y015600D01*
X021463Y014100D02*
X024213Y014100D01*
X026163Y016050D01*
X026163Y016400D01*
X025943Y015900D01*
X021463Y014100D02*
X020336Y012974D01*
X019713Y012974D01*
X018713Y012974D02*
X018713Y015670D01*
X018943Y015900D01*
X017213Y015360D02*
X017213Y014850D01*
X018213Y013850D01*
X018213Y012974D01*
X017713Y012974D02*
X017713Y013600D01*
X017613Y013700D01*
X017563Y013700D01*
X017213Y013350D02*
X016963Y013600D01*
X015663Y013600D01*
X015163Y013100D01*
X014763Y012700D01*
X015313Y012550D02*
X015963Y013100D01*
X016086Y013100D01*
X016213Y012974D01*
X016713Y012974D02*
X016593Y012410D01*
X016243Y012310D01*
X015713Y012310D01*
X015313Y012550D02*
X015313Y011870D01*
X015153Y011160D01*
X014673Y011900D02*
X012863Y011900D01*
X012713Y012050D01*
X012713Y012624D01*
X013213Y012624D02*
X014036Y012624D01*
X015613Y014250D01*
X015263Y014600D02*
X016463Y014600D01*
X017213Y015360D02*
X016863Y015710D01*
X016133Y015710D01*
X015693Y015900D01*
X015213Y015170D01*
X015213Y015100D01*
X014713Y014600D01*
X014563Y014450D01*
X012413Y014450D01*
X011713Y013900D01*
X011713Y012624D01*
X012213Y012624D02*
X012213Y013650D01*
X012563Y014000D01*
X013913Y014000D01*
X014663Y014000D01*
X015263Y014600D01*
X017213Y013350D02*
X017213Y012974D01*
X021963Y009100D02*
X022028Y009035D01*
X022028Y008200D01*
X022028Y008109D01*
X022038Y008100D01*
X022038Y008209D01*
X022038Y008100D02*
X022038Y007383D01*
X021763Y007424D02*
X021723Y007383D01*
X018888Y007383D02*
X018888Y008091D01*
X018847Y008050D01*
X018847Y008000D01*
X017963Y007100D02*
X018179Y006883D01*
X018179Y006675D01*
X013229Y005334D02*
X012963Y005600D01*
X009063Y004350D02*
X008927Y004214D01*
X008116Y004214D01*
X004809Y004214D01*
X004907Y007500D02*
X004807Y007600D01*
X003447Y007600D01*
X003447Y007915D02*
X004278Y007915D01*
X004463Y008100D01*
X004907Y008100D01*
X005419Y008100D02*
X006963Y008100D01*
X007663Y007500D02*
X007763Y007600D01*
X007663Y007500D02*
X005419Y007500D01*
X004093Y008230D02*
X004763Y008900D01*
X004763Y009051D01*
X004812Y009100D01*
X004963Y009251D01*
X004963Y010100D01*
X004963Y010965D01*
X004928Y010900D01*
X004963Y010100D02*
X004928Y010065D01*
X004928Y010000D01*
X005914Y009301D02*
X006213Y009600D01*
X006213Y011923D01*
X006213Y012277D02*
X006213Y012850D01*
X007013Y012850D01*
X007413Y012850D02*
X009713Y012850D01*
X009713Y012624D01*
X009713Y012350D01*
X008963Y011600D01*
X009823Y011780D02*
X010213Y012100D01*
X010213Y012624D01*
X010213Y013450D01*
X010063Y013600D01*
X009963Y013600D01*
X009463Y013600D01*
X008963Y014100D01*
X007463Y014100D01*
X007013Y014100D02*
X006463Y014100D01*
X005140Y014100D01*
X005463Y015100D02*
X005463Y015880D01*
X005443Y015900D01*
X005463Y015100D02*
X006463Y014100D01*
X006213Y012850D02*
X004463Y012850D01*
X001413Y015900D01*
X001943Y015900D01*
X007533Y009675D02*
X007533Y009240D01*
X007393Y009100D01*
X005914Y009100D02*
X005914Y009301D01*
X004093Y008230D02*
X003447Y008230D01*
X009963Y014100D02*
X010313Y014100D01*
X010713Y013700D01*
X010713Y012624D01*
X011213Y012624D02*
X011213Y013800D01*
X011003Y014650D01*
X012453Y016060D01*
X012443Y015900D02*
X012463Y017100D01*
X012443Y015900D01*
X009963Y014100D02*
X008963Y015100D01*
X008943Y015900D01*
X010713Y011200D02*
X011503Y011340D01*
X010713Y011200D02*
X010713Y010576D01*
D34*
X013213Y010265D02*
X013213Y010250D01*
X008893Y008100D02*
X007393Y009100D01*
X005914Y009100D01*
X006913Y010435D02*
X007563Y010435D01*
X007563Y010295D01*
X007563Y009705D02*
X007533Y009675D01*
X008893Y008100D02*
X008893Y006010D01*
X009603Y005109D01*
X009763Y004950D01*
X010783Y004950D01*
X011320Y004950D01*
X012313Y003957D01*
X018463Y006360D02*
X019103Y006360D01*
X019213Y006250D02*
X018888Y006575D01*
X018888Y007383D01*
X019213Y006250D02*
X020203Y005260D01*
X020623Y005260D01*
X022038Y006675D01*
X022038Y007383D01*
X020203Y005260D02*
X020203Y003840D01*
X019888Y003525D01*
X019663Y003750D01*
X019888Y003525D02*
X019518Y003155D01*
X019518Y002817D01*
X020203Y003840D02*
X022746Y003840D01*
D35*
X019213Y006250D02*
X019103Y006360D01*
D36*
X016763Y007000D03*
X015183Y007910D03*
X014923Y007440D03*
X013963Y006600D03*
X012963Y005600D03*
X012313Y003900D03*
X009063Y004350D03*
X007763Y007600D03*
X006963Y008100D03*
X008963Y011600D03*
X009823Y011780D03*
X011503Y011340D03*
X011963Y009600D03*
X014673Y011900D03*
X014763Y012700D03*
X015713Y012310D03*
X015153Y011160D03*
X015263Y009800D03*
X017213Y011700D03*
X017713Y011700D03*
X018353Y012140D03*
X017563Y013700D03*
X016463Y014600D03*
X015613Y014250D03*
X018213Y010100D03*
X018963Y009100D03*
X020463Y011100D03*
X020213Y011850D03*
X021463Y012400D03*
X021463Y014100D03*
X021963Y009100D03*
X019663Y003750D03*
D37*
X018463Y002850D03*
X021463Y005600D03*
X020463Y006600D03*
X017963Y007100D03*
X025463Y008350D03*
X025463Y010600D03*
X026293Y012090D03*
M02*
