G75*
G70*
%OFA0B0*%
%FSLAX24Y24*%
%IPPOS*%
%LPD*%
%AMOC8*
5,1,8,0,0,1.08239X$1,22.5*
%
%ADD10C,0.0000*%
%ADD11C,0.0080*%
%ADD12C,0.0060*%
%ADD13C,0.0100*%
%ADD14R,0.0160X0.0280*%
%ADD15C,0.0050*%
%ADD16C,0.0090*%
%ADD17C,0.0220*%
%ADD18C,0.0160*%
%ADD19R,0.0300X0.0180*%
%ADD20C,0.0030*%
%ADD21R,0.0180X0.0300*%
D10*
X000463Y000180D02*
X000463Y018426D01*
X028083Y018426D01*
X028083Y000180D01*
X000463Y000180D01*
X002286Y006814D02*
X002288Y006840D01*
X002294Y006866D01*
X002304Y006891D01*
X002317Y006914D01*
X002333Y006934D01*
X002353Y006952D01*
X002375Y006967D01*
X002398Y006979D01*
X002424Y006987D01*
X002450Y006991D01*
X002476Y006991D01*
X002502Y006987D01*
X002528Y006979D01*
X002552Y006967D01*
X002573Y006952D01*
X002593Y006934D01*
X002609Y006914D01*
X002622Y006891D01*
X002632Y006866D01*
X002638Y006840D01*
X002640Y006814D01*
X002638Y006788D01*
X002632Y006762D01*
X002622Y006737D01*
X002609Y006714D01*
X002593Y006694D01*
X002573Y006676D01*
X002551Y006661D01*
X002528Y006649D01*
X002502Y006641D01*
X002476Y006637D01*
X002450Y006637D01*
X002424Y006641D01*
X002398Y006649D01*
X002374Y006661D01*
X002353Y006676D01*
X002333Y006694D01*
X002317Y006714D01*
X002304Y006737D01*
X002294Y006762D01*
X002288Y006788D01*
X002286Y006814D01*
X002286Y008546D02*
X002288Y008572D01*
X002294Y008598D01*
X002304Y008623D01*
X002317Y008646D01*
X002333Y008666D01*
X002353Y008684D01*
X002375Y008699D01*
X002398Y008711D01*
X002424Y008719D01*
X002450Y008723D01*
X002476Y008723D01*
X002502Y008719D01*
X002528Y008711D01*
X002552Y008699D01*
X002573Y008684D01*
X002593Y008666D01*
X002609Y008646D01*
X002622Y008623D01*
X002632Y008598D01*
X002638Y008572D01*
X002640Y008546D01*
X002638Y008520D01*
X002632Y008494D01*
X002622Y008469D01*
X002609Y008446D01*
X002593Y008426D01*
X002573Y008408D01*
X002551Y008393D01*
X002528Y008381D01*
X002502Y008373D01*
X002476Y008369D01*
X002450Y008369D01*
X002424Y008373D01*
X002398Y008381D01*
X002374Y008393D01*
X002353Y008408D01*
X002333Y008426D01*
X002317Y008446D01*
X002304Y008469D01*
X002294Y008494D01*
X002288Y008520D01*
X002286Y008546D01*
D11*
X001951Y009176D02*
X002778Y009176D01*
X003762Y008900D02*
X003762Y008546D01*
X005113Y008880D02*
X005613Y008880D01*
X005613Y009480D02*
X005113Y009480D01*
X007382Y010147D02*
X007563Y010147D01*
X007655Y010025D01*
X007744Y010147D02*
X007563Y010147D01*
X007553Y010141D02*
X007477Y010025D01*
X006607Y011865D02*
X006607Y012495D01*
X006606Y012495D02*
X006601Y012511D01*
X006593Y012527D01*
X006583Y012541D01*
X006571Y012553D01*
X006556Y012563D01*
X006540Y012570D01*
X006523Y012574D01*
X006506Y012575D01*
X006488Y012573D01*
X006888Y012530D02*
X007538Y012530D01*
X007555Y012532D01*
X007572Y012536D01*
X007588Y012543D01*
X007602Y012553D01*
X007615Y012566D01*
X007625Y012580D01*
X007632Y012596D01*
X007636Y012613D01*
X007638Y012630D01*
X007638Y013230D02*
X007636Y013247D01*
X007632Y013264D01*
X007625Y013280D01*
X007615Y013294D01*
X007602Y013307D01*
X007588Y013317D01*
X007572Y013324D01*
X007555Y013328D01*
X007538Y013330D01*
X006888Y013330D01*
X006871Y013328D01*
X006854Y013324D01*
X006838Y013317D01*
X006824Y013307D01*
X006811Y013294D01*
X006801Y013280D01*
X006794Y013264D01*
X006790Y013247D01*
X006788Y013230D01*
X006888Y013780D02*
X007538Y013780D01*
X007555Y013782D01*
X007572Y013786D01*
X007588Y013793D01*
X007602Y013803D01*
X007615Y013816D01*
X007625Y013830D01*
X007632Y013846D01*
X007636Y013863D01*
X007638Y013880D01*
X007638Y014480D02*
X007636Y014497D01*
X007632Y014514D01*
X007625Y014530D01*
X007615Y014544D01*
X007602Y014557D01*
X007588Y014567D01*
X007572Y014574D01*
X007555Y014578D01*
X007538Y014580D01*
X006888Y014580D01*
X006871Y014578D01*
X006854Y014574D01*
X006838Y014567D01*
X006824Y014557D01*
X006811Y014544D01*
X006801Y014530D01*
X006794Y014514D01*
X006790Y014497D01*
X006788Y014480D01*
X006788Y013880D02*
X006790Y013863D01*
X006794Y013846D01*
X006801Y013830D01*
X006811Y013816D01*
X006824Y013803D01*
X006838Y013793D01*
X006854Y013786D01*
X006871Y013782D01*
X006888Y013780D01*
X006788Y012630D02*
X006790Y012613D01*
X006794Y012596D01*
X006801Y012580D01*
X006811Y012566D01*
X006824Y012553D01*
X006838Y012543D01*
X006854Y012536D01*
X006871Y012532D01*
X006888Y012530D01*
X006606Y011865D02*
X006601Y011849D01*
X006593Y011833D01*
X006583Y011819D01*
X006571Y011807D01*
X006556Y011797D01*
X006540Y011790D01*
X006523Y011786D01*
X006506Y011785D01*
X006488Y011787D01*
X005938Y011787D02*
X005918Y011785D01*
X005899Y011787D01*
X005880Y011793D01*
X005863Y011802D01*
X005847Y011814D01*
X005835Y011829D01*
X005826Y011847D01*
X005820Y011865D01*
X005819Y011865D02*
X005819Y012495D01*
X005820Y012495D02*
X005826Y012513D01*
X005835Y012531D01*
X005847Y012546D01*
X005863Y012558D01*
X005880Y012567D01*
X005899Y012573D01*
X005918Y012575D01*
X005938Y012573D01*
X005278Y013786D02*
X004648Y013786D01*
X004648Y013787D02*
X004632Y013792D01*
X004616Y013800D01*
X004602Y013810D01*
X004590Y013822D01*
X004580Y013837D01*
X004573Y013853D01*
X004569Y013870D01*
X004568Y013887D01*
X004570Y013905D01*
X005278Y013787D02*
X005294Y013792D01*
X005310Y013800D01*
X005324Y013810D01*
X005336Y013822D01*
X005346Y013837D01*
X005353Y013853D01*
X005357Y013870D01*
X005358Y013887D01*
X005356Y013905D01*
X005356Y014455D02*
X005358Y014473D01*
X005357Y014490D01*
X005353Y014507D01*
X005346Y014523D01*
X005336Y014538D01*
X005324Y014550D01*
X005310Y014560D01*
X005294Y014568D01*
X005278Y014573D01*
X005278Y014574D02*
X004648Y014574D01*
X004648Y014573D02*
X004632Y014568D01*
X004616Y014560D01*
X004602Y014550D01*
X004590Y014538D01*
X004580Y014523D01*
X004573Y014507D01*
X004569Y014490D01*
X004568Y014473D01*
X004570Y014455D01*
X003762Y006814D02*
X003762Y006460D01*
X002778Y006184D02*
X001951Y006184D01*
X001413Y002040D02*
X001306Y002040D01*
X001253Y001987D01*
X001253Y001934D01*
X001306Y001880D01*
X001413Y001880D01*
X001466Y001827D01*
X001466Y001773D01*
X001413Y001720D01*
X001306Y001720D01*
X001253Y001773D01*
X001466Y001987D02*
X001413Y002040D01*
X001621Y001934D02*
X001728Y001934D01*
X001675Y001987D02*
X001675Y001773D01*
X001728Y001720D01*
X001867Y001773D02*
X001920Y001720D01*
X002027Y001720D01*
X002080Y001773D01*
X002080Y001880D01*
X002027Y001934D01*
X001920Y001934D01*
X001867Y001880D01*
X001867Y001773D01*
X002235Y001720D02*
X002235Y001934D01*
X002235Y001827D02*
X002342Y001934D01*
X002395Y001934D01*
X002542Y001934D02*
X002542Y001773D01*
X002595Y001720D01*
X002755Y001720D01*
X002755Y001667D02*
X002702Y001613D01*
X002649Y001613D01*
X002755Y001667D02*
X002755Y001934D01*
X002910Y001987D02*
X002910Y001773D01*
X002964Y001720D01*
X003070Y001720D01*
X003124Y001773D01*
X003279Y001720D02*
X003385Y001720D01*
X003332Y001720D02*
X003332Y002040D01*
X003279Y002040D01*
X003124Y001987D02*
X003070Y002040D01*
X002964Y002040D01*
X002910Y001987D01*
X003524Y001934D02*
X003577Y001934D01*
X003577Y001720D01*
X003524Y001720D02*
X003631Y001720D01*
X003770Y001720D02*
X003930Y001720D01*
X003983Y001773D01*
X003983Y001880D01*
X003930Y001934D01*
X003770Y001934D01*
X003770Y001613D01*
X003577Y002040D02*
X003577Y002094D01*
X003752Y001280D02*
X003858Y001280D01*
X003912Y001227D01*
X003912Y001120D01*
X003858Y001067D01*
X003858Y001174D01*
X003752Y001174D01*
X003752Y001067D01*
X003858Y001067D01*
X003912Y001013D02*
X003858Y000960D01*
X003752Y000960D01*
X003698Y001013D01*
X003698Y001227D01*
X003752Y001280D01*
X003543Y001174D02*
X003543Y000907D01*
X003490Y000853D01*
X003437Y000853D01*
X003383Y000960D02*
X003543Y000960D01*
X003383Y000960D02*
X003330Y001013D01*
X003330Y001174D01*
X003175Y001120D02*
X003122Y001174D01*
X002962Y001174D01*
X002962Y001280D02*
X002962Y000960D01*
X003122Y000960D01*
X003175Y001013D01*
X003175Y001120D01*
X002807Y001120D02*
X002807Y001013D01*
X002753Y000960D01*
X002647Y000960D01*
X002593Y001013D01*
X002593Y001120D01*
X002647Y001174D01*
X002753Y001174D01*
X002807Y001120D01*
X002439Y001174D02*
X002278Y001174D01*
X002225Y001120D01*
X002225Y001013D01*
X002278Y000960D01*
X002439Y000960D01*
X002070Y000960D02*
X002070Y001120D01*
X002017Y001174D01*
X001910Y001174D01*
X001910Y001067D02*
X002070Y001067D01*
X002070Y000960D02*
X001910Y000960D01*
X001857Y001013D01*
X001910Y001067D01*
X001718Y001174D02*
X001718Y000907D01*
X001665Y000853D01*
X001611Y000853D01*
X001456Y001013D02*
X001403Y001067D01*
X001296Y001067D01*
X001243Y001120D01*
X001296Y001174D01*
X001456Y001174D01*
X001456Y001013D02*
X001403Y000960D01*
X001243Y000960D01*
X001718Y001280D02*
X001718Y001334D01*
X004067Y001174D02*
X004067Y000960D01*
X004173Y000960D02*
X004173Y001120D01*
X004227Y001174D01*
X004280Y001120D01*
X004280Y000960D01*
X004435Y001013D02*
X004435Y001120D01*
X004488Y001174D01*
X004595Y001174D01*
X004648Y001120D01*
X004648Y001067D01*
X004435Y001067D01*
X004435Y001013D02*
X004488Y000960D01*
X004595Y000960D01*
X004803Y001013D02*
X004803Y001120D01*
X004857Y001174D01*
X005017Y001174D01*
X005017Y001280D02*
X005017Y000960D01*
X004857Y000960D01*
X004803Y001013D01*
X005172Y000960D02*
X005278Y000960D01*
X005225Y000960D02*
X005225Y001174D01*
X005172Y001174D01*
X005225Y001280D02*
X005225Y001334D01*
X005470Y001174D02*
X005577Y001174D01*
X005631Y001120D01*
X005631Y000960D01*
X005470Y000960D01*
X005417Y001013D01*
X005470Y001067D01*
X005631Y001067D01*
X005785Y001013D02*
X005839Y001013D01*
X005839Y000960D01*
X005785Y000960D01*
X005785Y001013D01*
X005970Y000960D02*
X005970Y001174D01*
X006023Y001174D01*
X006076Y001120D01*
X006130Y001174D01*
X006183Y001120D01*
X006183Y000960D01*
X006076Y000960D02*
X006076Y001120D01*
X006338Y001174D02*
X006391Y001174D01*
X006391Y000960D01*
X006338Y000960D02*
X006445Y000960D01*
X006637Y001013D02*
X006637Y001227D01*
X006690Y001174D02*
X006583Y001174D01*
X006637Y001013D02*
X006690Y000960D01*
X006829Y000960D02*
X006882Y000960D01*
X006882Y001013D01*
X006829Y001013D01*
X006829Y000960D01*
X007013Y001013D02*
X007013Y001120D01*
X007066Y001174D01*
X007173Y001174D01*
X007227Y001120D01*
X007227Y001067D01*
X007013Y001067D01*
X007013Y001013D02*
X007066Y000960D01*
X007173Y000960D01*
X007381Y001013D02*
X007381Y001120D01*
X007435Y001174D01*
X007595Y001174D01*
X007595Y001280D02*
X007595Y000960D01*
X007435Y000960D01*
X007381Y001013D01*
X007750Y001013D02*
X007750Y001174D01*
X007750Y001013D02*
X007803Y000960D01*
X007963Y000960D01*
X007963Y001174D01*
X008393Y001310D02*
X008393Y000990D01*
X008884Y000990D02*
X008884Y001310D01*
X008991Y001204D01*
X009097Y001310D01*
X009097Y000990D01*
X009252Y000990D02*
X009359Y000990D01*
X009306Y000990D02*
X009306Y001310D01*
X009359Y001310D02*
X009252Y001310D01*
X009498Y001310D02*
X009711Y001310D01*
X009605Y001310D02*
X009605Y000990D01*
X010234Y000990D02*
X010234Y001310D01*
X010341Y001204D01*
X010448Y001310D01*
X010448Y000990D01*
X010603Y001043D02*
X010603Y001150D01*
X010656Y001204D01*
X010763Y001204D01*
X010816Y001150D01*
X010816Y001097D01*
X010603Y001097D01*
X010603Y001043D02*
X010656Y000990D01*
X010763Y000990D01*
X010971Y001043D02*
X010971Y001150D01*
X011024Y001204D01*
X011185Y001204D01*
X011185Y001310D02*
X011185Y000990D01*
X011024Y000990D01*
X010971Y001043D01*
X011339Y000990D02*
X011446Y000990D01*
X011393Y000990D02*
X011393Y001204D01*
X011339Y001204D01*
X011393Y001310D02*
X011393Y001364D01*
X011638Y001204D02*
X011745Y001204D01*
X011798Y001150D01*
X011798Y000990D01*
X011638Y000990D01*
X011585Y001043D01*
X011638Y001097D01*
X011798Y001097D01*
X012322Y000990D02*
X012535Y000990D01*
X012690Y001043D02*
X012743Y001097D01*
X012903Y001097D01*
X012903Y001150D02*
X012903Y000990D01*
X012743Y000990D01*
X012690Y001043D01*
X012743Y001204D02*
X012850Y001204D01*
X012903Y001150D01*
X013058Y001204D02*
X013218Y001204D01*
X013272Y001150D01*
X013272Y001043D01*
X013218Y000990D01*
X013058Y000990D01*
X013058Y001310D01*
X012322Y001310D02*
X012322Y000990D01*
X009823Y005430D02*
X009823Y005930D01*
X005272Y001987D02*
X005272Y001934D01*
X005219Y001880D01*
X005272Y001827D01*
X005272Y001773D01*
X005219Y001720D01*
X005112Y001720D01*
X005059Y001773D01*
X004928Y001773D02*
X004928Y001720D01*
X004875Y001720D01*
X004875Y001773D01*
X004928Y001773D01*
X005059Y001987D02*
X005112Y002040D01*
X005219Y002040D01*
X005272Y001987D01*
X005219Y001880D02*
X005166Y001880D01*
X004720Y001934D02*
X004613Y001720D01*
X004506Y001934D01*
X004120Y001174D02*
X004173Y001120D01*
X004120Y001174D02*
X004067Y001174D01*
X006391Y001280D02*
X006391Y001334D01*
X015642Y008459D02*
X015642Y009601D01*
X016568Y009443D02*
X016570Y009455D01*
X016575Y009466D01*
X016584Y009475D01*
X016595Y009480D01*
X016607Y009482D01*
X016619Y009480D01*
X016630Y009475D01*
X016639Y009466D01*
X016644Y009455D01*
X016646Y009443D01*
X016644Y009431D01*
X016639Y009420D01*
X016630Y009411D01*
X016619Y009406D01*
X016607Y009404D01*
X016595Y009406D01*
X016584Y009411D01*
X016575Y009420D01*
X016570Y009431D01*
X016568Y009443D01*
X016784Y009601D02*
X016784Y008459D01*
X018573Y006912D02*
X018573Y003448D01*
X018731Y003290D01*
X022195Y003290D01*
X022353Y003448D01*
X022353Y006912D01*
X022195Y007070D01*
X018731Y007070D01*
X018573Y006912D01*
X021892Y010909D02*
X023034Y010909D01*
X022837Y011086D02*
X022839Y011098D01*
X022844Y011109D01*
X022853Y011118D01*
X022864Y011123D01*
X022876Y011125D01*
X022888Y011123D01*
X022899Y011118D01*
X022908Y011109D01*
X022913Y011098D01*
X022915Y011086D01*
X022913Y011074D01*
X022908Y011063D01*
X022899Y011054D01*
X022888Y011049D01*
X022876Y011047D01*
X022864Y011049D01*
X022853Y011054D01*
X022844Y011063D01*
X022839Y011074D01*
X022837Y011086D01*
X023034Y012051D02*
X021892Y012051D01*
X025532Y006747D02*
X025713Y006747D01*
X025805Y006625D01*
X025894Y006747D02*
X025713Y006747D01*
X025703Y006741D02*
X025627Y006625D01*
X025621Y005485D02*
X025713Y005363D01*
X025894Y005363D01*
X025799Y005485D02*
X025723Y005369D01*
X025713Y005363D02*
X025532Y005363D01*
X025144Y005497D02*
X024963Y005497D01*
X025055Y005375D01*
X024963Y005497D02*
X024782Y005497D01*
X024877Y005375D02*
X024953Y005491D01*
X026282Y005497D02*
X026463Y005497D01*
X026555Y005375D01*
X026644Y005497D02*
X026463Y005497D01*
X026453Y005491D02*
X026377Y005375D01*
X027032Y005363D02*
X027213Y005363D01*
X027121Y005485D01*
X027213Y005363D02*
X027394Y005363D01*
X027299Y005485D02*
X027223Y005369D01*
X027305Y006625D02*
X027213Y006747D01*
X027032Y006747D01*
X027127Y006625D02*
X027203Y006741D01*
X027213Y006747D02*
X027394Y006747D01*
X021397Y001648D02*
X021397Y001412D01*
X020649Y000900D02*
X020177Y000900D01*
X019429Y001412D02*
X019429Y001648D01*
X020177Y002160D02*
X020649Y002160D01*
D12*
X020665Y000640D02*
X020585Y000560D01*
X020505Y000640D01*
X020505Y000400D01*
X020389Y000440D02*
X020389Y000480D01*
X020349Y000520D01*
X020229Y000520D01*
X020229Y000440D01*
X020269Y000400D01*
X020349Y000400D01*
X020389Y000440D01*
X020309Y000600D02*
X020229Y000520D01*
X020309Y000600D02*
X020389Y000640D01*
X020665Y000640D02*
X020665Y000400D01*
X020782Y000400D02*
X020782Y000640D01*
X020782Y000520D02*
X020942Y000520D01*
X020942Y000640D02*
X020942Y000400D01*
X021058Y000400D02*
X021218Y000400D01*
X021218Y000560D02*
X021058Y000560D01*
X021218Y000560D02*
X021058Y000400D01*
X020113Y000400D02*
X019953Y000400D01*
X020033Y000400D02*
X020033Y000640D01*
X019953Y000560D01*
X018253Y000740D02*
X018093Y000900D01*
X018053Y000900D01*
X018013Y000860D01*
X018013Y000780D01*
X018053Y000740D01*
X018253Y000740D02*
X018253Y000900D01*
X018253Y001016D02*
X018093Y001176D01*
X018053Y001176D01*
X018013Y001136D01*
X018013Y001056D01*
X018053Y001016D01*
X018253Y001016D02*
X018253Y001176D01*
X018253Y001293D02*
X018253Y001413D01*
X018213Y001453D01*
X018133Y001453D01*
X018093Y001413D01*
X018093Y001293D01*
X018333Y001293D01*
X018253Y001569D02*
X018013Y001569D01*
X018013Y001729D01*
X018133Y001649D02*
X018133Y001569D01*
X017017Y004710D02*
X017017Y004950D01*
X017177Y004950D01*
X017097Y004830D02*
X017017Y004830D01*
X016900Y004870D02*
X016900Y004710D01*
X016780Y004710D01*
X016740Y004750D01*
X016740Y004870D01*
X016624Y004710D02*
X016464Y004710D01*
X016544Y004710D02*
X016544Y004950D01*
X016464Y004870D01*
X017253Y005733D02*
X017253Y005773D01*
X017293Y005773D01*
X017293Y005733D01*
X017253Y005733D01*
X017293Y005871D02*
X017293Y006031D01*
X017293Y005951D02*
X017053Y005951D01*
X017133Y005871D01*
X017133Y006148D02*
X017253Y006148D01*
X017293Y006188D01*
X017293Y006308D01*
X017133Y006308D01*
X017173Y006424D02*
X017173Y006504D01*
X017293Y006424D02*
X017053Y006424D01*
X017053Y006584D01*
X017756Y008570D02*
X017796Y008570D01*
X017796Y008610D01*
X017756Y008610D01*
X017756Y008570D01*
X017894Y008570D02*
X018054Y008570D01*
X017974Y008570D02*
X017974Y008810D01*
X017894Y008730D01*
X018170Y008730D02*
X018170Y008610D01*
X018210Y008570D01*
X018330Y008570D01*
X018330Y008730D01*
X018447Y008690D02*
X018527Y008690D01*
X018447Y008810D02*
X018607Y008810D01*
X018447Y008810D02*
X018447Y008570D01*
X019533Y009520D02*
X019573Y009520D01*
X019573Y009560D01*
X019533Y009560D01*
X019533Y009520D01*
X019671Y009520D02*
X019831Y009520D01*
X019751Y009520D02*
X019751Y009760D01*
X019671Y009680D01*
X019947Y009680D02*
X019947Y009560D01*
X019987Y009520D01*
X020107Y009520D01*
X020107Y009680D01*
X020223Y009640D02*
X020303Y009640D01*
X020223Y009520D02*
X020223Y009760D01*
X020384Y009760D01*
X021211Y010458D02*
X021211Y010619D01*
X021291Y010699D01*
X021371Y010619D01*
X021371Y010458D01*
X021487Y010458D02*
X021608Y010458D01*
X021648Y010498D01*
X021648Y010659D01*
X021608Y010699D01*
X021487Y010699D01*
X021487Y010458D01*
X021371Y010579D02*
X021211Y010579D01*
X021764Y010659D02*
X021764Y010498D01*
X021804Y010458D01*
X021884Y010458D01*
X021924Y010498D01*
X021924Y010579D01*
X021844Y010579D01*
X021924Y010659D02*
X021884Y010699D01*
X021804Y010699D01*
X021764Y010659D01*
X022040Y010699D02*
X022200Y010699D01*
X022200Y010659D01*
X022040Y010498D01*
X022040Y010458D01*
X022316Y010498D02*
X022476Y010659D01*
X022476Y010498D01*
X022436Y010458D01*
X022356Y010458D01*
X022316Y010498D01*
X022316Y010659D01*
X022356Y010699D01*
X022436Y010699D01*
X022476Y010659D01*
X022592Y010579D02*
X022752Y010579D01*
X022869Y010579D02*
X023029Y010579D01*
X023145Y010699D02*
X023225Y010619D01*
X023305Y010699D01*
X023305Y010458D01*
X023421Y010498D02*
X023461Y010458D01*
X023541Y010458D01*
X023581Y010498D01*
X023581Y010699D01*
X023697Y010699D02*
X023857Y010458D01*
X023697Y010458D02*
X023857Y010699D01*
X023421Y010699D02*
X023421Y010498D01*
X023145Y010458D02*
X023145Y010699D01*
X022712Y010699D02*
X022592Y010579D01*
X022712Y010699D02*
X022712Y010458D01*
X022521Y008960D02*
X022521Y008720D01*
X022441Y008720D02*
X022601Y008720D01*
X022717Y008760D02*
X022717Y008880D01*
X022717Y008760D02*
X022757Y008720D01*
X022877Y008720D01*
X022877Y008880D01*
X022993Y008840D02*
X023073Y008840D01*
X022993Y008720D02*
X022993Y008960D01*
X023154Y008960D01*
X022521Y008960D02*
X022441Y008880D01*
X022343Y008760D02*
X022303Y008760D01*
X022303Y008720D01*
X022343Y008720D01*
X022343Y008760D01*
X023678Y007040D02*
X023758Y007040D01*
X023798Y007000D01*
X023798Y006960D01*
X023758Y006920D01*
X023798Y006880D01*
X023798Y006840D01*
X023758Y006800D01*
X023678Y006800D01*
X023638Y006840D01*
X023718Y006920D02*
X023758Y006920D01*
X023638Y007000D02*
X023678Y007040D01*
X023914Y007000D02*
X023954Y007040D01*
X024034Y007040D01*
X024074Y007000D01*
X024074Y006960D01*
X024034Y006920D01*
X024074Y006880D01*
X024074Y006840D01*
X024034Y006800D01*
X023954Y006800D01*
X023914Y006840D01*
X023994Y006920D02*
X024034Y006920D01*
X024190Y006840D02*
X024350Y007000D01*
X024350Y006840D01*
X024310Y006800D01*
X024230Y006800D01*
X024190Y006840D01*
X024190Y007000D01*
X024230Y007040D01*
X024310Y007040D01*
X024350Y007000D01*
X025568Y007370D02*
X025808Y007370D01*
X025808Y007530D01*
X025808Y007646D02*
X025808Y007806D01*
X025808Y007922D02*
X025808Y008043D01*
X025768Y008083D01*
X025608Y008083D01*
X025568Y008043D01*
X025568Y007922D01*
X025808Y007922D01*
X025688Y007726D02*
X025688Y007646D01*
X025568Y007646D02*
X025808Y007646D01*
X025568Y007646D02*
X025568Y007806D01*
X025568Y008199D02*
X025688Y008199D01*
X025648Y008279D01*
X025648Y008319D01*
X025688Y008359D01*
X025768Y008359D01*
X025808Y008319D01*
X025808Y008239D01*
X025768Y008199D01*
X025568Y008199D02*
X025568Y008359D01*
X026628Y007249D02*
X026668Y007169D01*
X026748Y007089D01*
X026748Y007209D01*
X026788Y007249D01*
X026828Y007249D01*
X026868Y007209D01*
X026868Y007129D01*
X026828Y007089D01*
X026748Y007089D01*
X026828Y006973D02*
X026668Y006973D01*
X026628Y006933D01*
X026628Y006812D01*
X026868Y006812D01*
X026868Y006933D01*
X026828Y006973D01*
X026868Y006696D02*
X026868Y006536D01*
X026628Y006536D01*
X026628Y006696D01*
X026748Y006616D02*
X026748Y006536D01*
X026868Y006420D02*
X026868Y006260D01*
X026628Y006260D01*
X026578Y004779D02*
X026538Y004779D01*
X026498Y004739D01*
X026498Y004659D01*
X026458Y004619D01*
X026418Y004619D01*
X026378Y004659D01*
X026378Y004739D01*
X026418Y004779D01*
X026458Y004779D01*
X026498Y004739D01*
X026498Y004659D02*
X026538Y004619D01*
X026578Y004619D01*
X026618Y004659D01*
X026618Y004739D01*
X026578Y004779D01*
X026578Y004503D02*
X026418Y004503D01*
X026378Y004463D01*
X026378Y004342D01*
X026618Y004342D01*
X026618Y004463D01*
X026578Y004503D01*
X026618Y004226D02*
X026618Y004066D01*
X026378Y004066D01*
X026378Y004226D01*
X026498Y004146D02*
X026498Y004066D01*
X026618Y003950D02*
X026618Y003790D01*
X026378Y003790D01*
X025838Y003775D02*
X025838Y003935D01*
X025838Y004051D02*
X025598Y004051D01*
X025598Y004211D01*
X025598Y004328D02*
X025598Y004448D01*
X025638Y004488D01*
X025798Y004488D01*
X025838Y004448D01*
X025838Y004328D01*
X025598Y004328D01*
X025718Y004131D02*
X025718Y004051D01*
X025838Y004051D02*
X025838Y004211D01*
X025838Y003775D02*
X025598Y003775D01*
X025128Y003800D02*
X025128Y003960D01*
X025128Y004076D02*
X025128Y004236D01*
X025128Y004352D02*
X025128Y004473D01*
X025088Y004513D01*
X024928Y004513D01*
X024888Y004473D01*
X024888Y004352D01*
X025128Y004352D01*
X025008Y004156D02*
X025008Y004076D01*
X024888Y004076D02*
X025128Y004076D01*
X024888Y004076D02*
X024888Y004236D01*
X024888Y003800D02*
X025128Y003800D01*
X024303Y004410D02*
X024223Y004410D01*
X024223Y004290D02*
X024223Y004530D01*
X024384Y004530D01*
X024107Y004450D02*
X024107Y004290D01*
X023987Y004290D01*
X023947Y004330D01*
X023947Y004450D01*
X023831Y004290D02*
X023671Y004290D01*
X023751Y004290D02*
X023751Y004530D01*
X023671Y004450D01*
X023573Y004330D02*
X023573Y004290D01*
X023533Y004290D01*
X023533Y004330D01*
X023573Y004330D01*
X024888Y004669D02*
X024888Y004749D01*
X024928Y004789D01*
X024968Y004789D01*
X025008Y004749D01*
X025048Y004789D01*
X025088Y004789D01*
X025128Y004749D01*
X025128Y004669D01*
X025088Y004629D01*
X025008Y004709D02*
X025008Y004749D01*
X024928Y004629D02*
X024888Y004669D01*
X025598Y004724D02*
X025718Y004604D01*
X025718Y004764D01*
X025838Y004724D02*
X025598Y004724D01*
X027128Y004714D02*
X027128Y004554D01*
X027168Y004438D02*
X027128Y004398D01*
X027128Y004278D01*
X027368Y004278D01*
X027368Y004398D01*
X027328Y004438D01*
X027168Y004438D01*
X027328Y004554D02*
X027368Y004554D01*
X027328Y004554D02*
X027168Y004714D01*
X027128Y004714D01*
X027128Y004161D02*
X027128Y004001D01*
X027368Y004001D01*
X027368Y004161D01*
X027248Y004081D02*
X027248Y004001D01*
X027368Y003885D02*
X027368Y003725D01*
X027128Y003725D01*
X022993Y001719D02*
X022753Y001719D01*
X022753Y001879D01*
X022873Y001799D02*
X022873Y001719D01*
X022873Y001603D02*
X022953Y001603D01*
X022993Y001563D01*
X022993Y001443D01*
X023073Y001443D02*
X022833Y001443D01*
X022833Y001563D01*
X022873Y001603D01*
X022833Y001326D02*
X022793Y001326D01*
X022753Y001286D01*
X022753Y001206D01*
X022793Y001166D01*
X022793Y001050D02*
X022753Y001010D01*
X022753Y000930D01*
X022793Y000890D01*
X022793Y001050D02*
X022833Y001050D01*
X022993Y000890D01*
X022993Y001050D01*
X022993Y001166D02*
X022833Y001326D01*
X022993Y001326D02*
X022993Y001166D01*
X027093Y007870D02*
X027133Y007870D01*
X027173Y007910D01*
X027173Y008110D01*
X027133Y008110D02*
X027213Y008110D01*
X027329Y008070D02*
X027369Y008110D01*
X027449Y008110D01*
X027489Y008070D01*
X027329Y007910D01*
X027369Y007870D01*
X027449Y007870D01*
X027489Y007910D01*
X027489Y008070D01*
X027329Y008070D02*
X027329Y007910D01*
X027093Y007870D02*
X027053Y007910D01*
X024833Y011308D02*
X024593Y011308D01*
X024593Y011428D01*
X024633Y011468D01*
X024713Y011468D01*
X024753Y011428D01*
X024753Y011308D01*
X024753Y011388D02*
X024833Y011468D01*
X024713Y011584D02*
X024713Y011744D01*
X024833Y011704D02*
X024593Y011704D01*
X024713Y011584D01*
X017884Y009980D02*
X017723Y009980D01*
X017723Y009740D01*
X017607Y009740D02*
X017607Y009900D01*
X017723Y009860D02*
X017803Y009860D01*
X017607Y009740D02*
X017487Y009740D01*
X017447Y009780D01*
X017447Y009900D01*
X017331Y009740D02*
X017171Y009740D01*
X017251Y009740D02*
X017251Y009980D01*
X017171Y009900D01*
X017073Y009780D02*
X017073Y009740D01*
X017033Y009740D01*
X017033Y009780D01*
X017073Y009780D01*
X015493Y008852D02*
X015493Y008812D01*
X015333Y008652D01*
X015493Y008652D01*
X015493Y008852D02*
X015453Y008892D01*
X015373Y008892D01*
X015333Y008852D01*
X015137Y008892D02*
X015137Y008652D01*
X015057Y008652D02*
X015217Y008652D01*
X015057Y008812D02*
X015137Y008892D01*
X014861Y008892D02*
X014861Y008652D01*
X014781Y008652D02*
X014941Y008652D01*
X014781Y008812D02*
X014861Y008892D01*
X014665Y008812D02*
X014665Y008652D01*
X014665Y008772D02*
X014505Y008772D01*
X014505Y008812D02*
X014585Y008892D01*
X014665Y008812D01*
X014505Y008812D02*
X014505Y008652D01*
X014388Y008692D02*
X014388Y008772D01*
X014308Y008772D01*
X014228Y008852D02*
X014228Y008692D01*
X014268Y008652D01*
X014348Y008652D01*
X014388Y008692D01*
X014388Y008852D02*
X014348Y008892D01*
X014268Y008892D01*
X014228Y008852D01*
X014112Y008852D02*
X014112Y008772D01*
X014072Y008732D01*
X013952Y008732D01*
X013952Y008652D02*
X013952Y008892D01*
X014072Y008892D01*
X014112Y008852D01*
X013653Y009170D02*
X013653Y009410D01*
X013814Y009410D01*
X013733Y009290D02*
X013653Y009290D01*
X013537Y009330D02*
X013537Y009170D01*
X013417Y009170D01*
X013377Y009210D01*
X013377Y009330D01*
X013261Y009170D02*
X013101Y009170D01*
X013181Y009170D02*
X013181Y009410D01*
X013101Y009330D01*
X013003Y009210D02*
X013003Y009170D01*
X012963Y009170D01*
X012963Y009210D01*
X013003Y009210D01*
X008283Y010510D02*
X008283Y010590D01*
X008243Y010630D01*
X008243Y010746D02*
X008043Y010746D01*
X008083Y010630D02*
X008043Y010590D01*
X008043Y010510D01*
X008083Y010470D01*
X008243Y010470D01*
X008283Y010510D01*
X008243Y010746D02*
X008283Y010786D01*
X008283Y010866D01*
X008243Y010906D01*
X008043Y010906D01*
X008043Y011022D02*
X008043Y011183D01*
X008043Y011103D02*
X008283Y011103D01*
X008283Y011575D02*
X008043Y011575D01*
X008043Y011735D01*
X008083Y011851D02*
X008243Y011851D01*
X008283Y011891D01*
X008283Y011971D01*
X008243Y012011D01*
X008083Y012011D01*
X008043Y011971D01*
X008043Y011891D01*
X008083Y011851D01*
X008163Y011655D02*
X008163Y011575D01*
X008203Y012127D02*
X008203Y012248D01*
X008163Y012288D01*
X008083Y012288D01*
X008043Y012248D01*
X008043Y012127D01*
X008283Y012127D01*
X008203Y012207D02*
X008283Y012288D01*
X008203Y012680D02*
X008043Y012680D01*
X008203Y012680D02*
X008283Y012760D01*
X008203Y012840D01*
X008043Y012840D01*
X008083Y012956D02*
X008243Y012956D01*
X008283Y012996D01*
X008283Y013076D01*
X008243Y013116D01*
X008243Y013232D02*
X008083Y013232D01*
X008043Y013272D01*
X008043Y013352D01*
X008083Y013392D01*
X008243Y013392D02*
X008283Y013352D01*
X008283Y013272D01*
X008243Y013232D01*
X008083Y013116D02*
X008043Y013076D01*
X008043Y012996D01*
X008083Y012956D01*
X008023Y014070D02*
X008063Y014110D01*
X008023Y014070D02*
X007943Y014070D01*
X007903Y014110D01*
X007903Y014270D01*
X007943Y014310D01*
X008023Y014310D01*
X008063Y014270D01*
X008179Y014310D02*
X008179Y014110D01*
X008219Y014070D01*
X008299Y014070D01*
X008339Y014110D01*
X008339Y014310D01*
X008455Y014310D02*
X008615Y014310D01*
X008535Y014310D02*
X008535Y014070D01*
X009008Y014070D02*
X009008Y014310D01*
X009168Y014310D01*
X009284Y014270D02*
X009284Y014110D01*
X009324Y014070D01*
X009404Y014070D01*
X009444Y014110D01*
X009444Y014270D01*
X009404Y014310D01*
X009324Y014310D01*
X009284Y014270D01*
X009088Y014190D02*
X009008Y014190D01*
X009560Y014150D02*
X009680Y014150D01*
X009720Y014190D01*
X009720Y014270D01*
X009680Y014310D01*
X009560Y014310D01*
X009560Y014070D01*
X009640Y014150D02*
X009720Y014070D01*
X010113Y014110D02*
X010113Y014270D01*
X010153Y014310D01*
X010233Y014310D01*
X010273Y014270D01*
X010273Y014190D02*
X010193Y014190D01*
X010273Y014190D02*
X010273Y014110D01*
X010233Y014070D01*
X010153Y014070D01*
X010113Y014110D01*
X010389Y014070D02*
X010389Y014310D01*
X010549Y014070D01*
X010549Y014310D01*
X010665Y014310D02*
X010785Y014310D01*
X010825Y014270D01*
X010825Y014110D01*
X010785Y014070D01*
X010665Y014070D01*
X010665Y014310D01*
X007347Y011100D02*
X007307Y011140D01*
X007227Y011140D01*
X007187Y011100D01*
X007187Y010940D01*
X007347Y011100D01*
X007347Y010940D01*
X007307Y010900D01*
X007227Y010900D01*
X007187Y010940D01*
X007070Y010940D02*
X007030Y010900D01*
X006950Y010900D01*
X006910Y010940D01*
X007070Y011100D01*
X007070Y010940D01*
X006910Y010940D02*
X006910Y011100D01*
X006950Y011140D01*
X007030Y011140D01*
X007070Y011100D01*
X006794Y011100D02*
X006794Y011060D01*
X006754Y011020D01*
X006794Y010980D01*
X006794Y010940D01*
X006754Y010900D01*
X006674Y010900D01*
X006634Y010940D01*
X006714Y011020D02*
X006754Y011020D01*
X006794Y011100D02*
X006754Y011140D01*
X006674Y011140D01*
X006634Y011100D01*
X005593Y012000D02*
X005513Y012080D01*
X005353Y012080D01*
X005393Y012196D02*
X005353Y012236D01*
X005353Y012316D01*
X005393Y012356D01*
X005393Y012472D02*
X005553Y012472D01*
X005593Y012513D01*
X005593Y012593D01*
X005553Y012633D01*
X005393Y012633D02*
X005353Y012593D01*
X005353Y012513D01*
X005393Y012472D01*
X005553Y012356D02*
X005593Y012316D01*
X005593Y012236D01*
X005553Y012196D01*
X005393Y012196D01*
X005353Y011920D02*
X005513Y011920D01*
X005593Y012000D01*
X004473Y011621D02*
X004233Y011621D01*
X004233Y011781D01*
X004353Y011701D02*
X004353Y011621D01*
X004313Y011504D02*
X004473Y011504D01*
X004473Y011384D01*
X004433Y011344D01*
X004313Y011344D01*
X004473Y011228D02*
X004473Y011068D01*
X004473Y011148D02*
X004233Y011148D01*
X004313Y011068D01*
X004433Y010970D02*
X004473Y010970D01*
X004473Y010930D01*
X004433Y010930D01*
X004433Y010970D01*
X004173Y010563D02*
X004173Y010402D01*
X004413Y010402D01*
X004413Y010286D02*
X004253Y010286D01*
X004293Y010402D02*
X004293Y010483D01*
X004413Y010286D02*
X004413Y010166D01*
X004373Y010126D01*
X004253Y010126D01*
X004413Y010010D02*
X004413Y009850D01*
X004413Y009930D02*
X004173Y009930D01*
X004253Y009850D01*
X004808Y008700D02*
X004768Y008660D01*
X004808Y008700D02*
X004888Y008700D01*
X004928Y008660D01*
X004928Y008620D01*
X004768Y008460D01*
X004928Y008460D01*
X005044Y008460D02*
X005204Y008620D01*
X005204Y008660D01*
X005164Y008700D01*
X005084Y008700D01*
X005044Y008660D01*
X005044Y008460D02*
X005204Y008460D01*
X006233Y008465D02*
X006233Y008545D01*
X006273Y008585D01*
X006433Y008425D01*
X006473Y008465D01*
X006473Y008545D01*
X006433Y008585D01*
X006273Y008585D01*
X006273Y008701D02*
X006233Y008741D01*
X006233Y008821D01*
X006273Y008861D01*
X006433Y008701D01*
X006473Y008741D01*
X006473Y008821D01*
X006433Y008861D01*
X006273Y008861D01*
X006313Y008978D02*
X006313Y009018D01*
X006353Y009058D01*
X006313Y009098D01*
X006353Y009138D01*
X006473Y009138D01*
X006473Y009058D02*
X006353Y009058D01*
X006313Y008978D02*
X006473Y008978D01*
X006473Y009254D02*
X006313Y009254D01*
X006233Y009334D01*
X006313Y009414D01*
X006473Y009414D01*
X006353Y009414D02*
X006353Y009254D01*
X006433Y008701D02*
X006273Y008701D01*
X006233Y008465D02*
X006273Y008425D01*
X006433Y008425D01*
X006433Y008309D02*
X006473Y008269D01*
X006473Y008189D01*
X006433Y008149D01*
X006353Y008149D02*
X006313Y008229D01*
X006313Y008269D01*
X006353Y008309D01*
X006433Y008309D01*
X006353Y008149D02*
X006233Y008149D01*
X006233Y008309D01*
X004942Y007220D02*
X004902Y007260D01*
X004822Y007260D01*
X004782Y007220D01*
X004665Y007220D02*
X004625Y007260D01*
X004545Y007260D01*
X004505Y007220D01*
X004665Y007220D02*
X004665Y007180D01*
X004505Y007020D01*
X004665Y007020D01*
X004782Y007020D02*
X004942Y007180D01*
X004942Y007220D01*
X004942Y007020D02*
X004782Y007020D01*
X002445Y010720D02*
X002485Y010760D01*
X002485Y010920D01*
X002445Y010960D01*
X002325Y010960D01*
X002325Y010720D01*
X002445Y010720D01*
X002209Y010720D02*
X002209Y010960D01*
X002049Y010960D02*
X002209Y010720D01*
X002049Y010720D02*
X002049Y010960D01*
X001933Y010920D02*
X001893Y010960D01*
X001813Y010960D01*
X001773Y010920D01*
X001773Y010760D01*
X001813Y010720D01*
X001893Y010720D01*
X001933Y010760D01*
X001933Y010840D01*
X001853Y010840D01*
X001873Y011140D02*
X001623Y011390D01*
X001623Y011890D01*
X001873Y012140D01*
X001623Y012390D01*
X001623Y012890D01*
X001873Y013140D01*
X002373Y013140D01*
X002623Y012890D01*
X002623Y012390D01*
X002373Y012140D01*
X002623Y011890D01*
X002623Y011390D01*
X002373Y011140D01*
X001873Y011140D01*
X001873Y012140D02*
X002373Y012140D01*
X002425Y013310D02*
X002505Y013310D01*
X002545Y013350D01*
X002425Y013310D02*
X002385Y013350D01*
X002385Y013510D01*
X002425Y013550D01*
X002505Y013550D01*
X002545Y013510D01*
X002269Y013510D02*
X002229Y013550D01*
X002149Y013550D01*
X002109Y013510D01*
X002109Y013350D01*
X002149Y013310D01*
X002229Y013310D01*
X002269Y013350D01*
X001993Y013390D02*
X001993Y013550D01*
X001993Y013390D02*
X001913Y013310D01*
X001833Y013390D01*
X001833Y013550D01*
X004073Y013870D02*
X004113Y013830D01*
X004273Y013830D01*
X004313Y013870D01*
X004313Y013950D01*
X004273Y013990D01*
X004193Y013990D01*
X004193Y013910D01*
X004113Y013990D02*
X004073Y013950D01*
X004073Y013870D01*
X004073Y014106D02*
X004313Y014266D01*
X004073Y014266D01*
X004073Y014382D02*
X004073Y014503D01*
X004113Y014543D01*
X004273Y014543D01*
X004313Y014503D01*
X004313Y014382D01*
X004073Y014382D01*
X004073Y014106D02*
X004313Y014106D01*
D13*
X007353Y012140D02*
X007443Y012280D01*
X007623Y012210D01*
X007503Y012120D02*
X007453Y012210D01*
X007453Y012280D01*
X007353Y012140D01*
X007503Y012120D02*
X007553Y012070D01*
X007623Y012050D01*
X007823Y012050D01*
X018777Y006755D02*
X018779Y006775D01*
X018784Y006795D01*
X018794Y006813D01*
X018806Y006830D01*
X018821Y006844D01*
X018839Y006854D01*
X018858Y006862D01*
X018878Y006866D01*
X018898Y006866D01*
X018918Y006862D01*
X018937Y006854D01*
X018955Y006844D01*
X018970Y006830D01*
X018982Y006813D01*
X018992Y006795D01*
X018997Y006775D01*
X018999Y006755D01*
X018997Y006735D01*
X018992Y006715D01*
X018982Y006697D01*
X018970Y006680D01*
X018955Y006666D01*
X018937Y006656D01*
X018918Y006648D01*
X018898Y006644D01*
X018878Y006644D01*
X018858Y006648D01*
X018839Y006656D01*
X018821Y006666D01*
X018806Y006680D01*
X018794Y006697D01*
X018784Y006715D01*
X018779Y006735D01*
X018777Y006755D01*
D14*
X023983Y006420D03*
X023993Y005820D03*
X023963Y005160D03*
X005163Y007580D03*
X005163Y008180D03*
D15*
X005291Y006317D02*
X006069Y006317D01*
X006069Y006239D01*
X006857Y006239D01*
X006857Y006317D01*
X007635Y006317D01*
X007635Y005377D01*
X007733Y005377D01*
X007733Y004983D01*
X007635Y004983D01*
X007635Y004043D01*
X006857Y004043D01*
X006857Y004121D01*
X006069Y004121D01*
X006069Y004043D01*
X005291Y004043D01*
X005291Y006317D01*
X006069Y006317D02*
X006069Y006396D01*
X006857Y006396D01*
X006857Y006317D01*
X005991Y005180D02*
X005993Y005223D01*
X005999Y005265D01*
X006009Y005307D01*
X006022Y005348D01*
X006039Y005388D01*
X006060Y005425D01*
X006084Y005461D01*
X006111Y005494D01*
X006141Y005525D01*
X006174Y005553D01*
X006209Y005578D01*
X006246Y005599D01*
X006285Y005617D01*
X006325Y005631D01*
X006367Y005642D01*
X006409Y005649D01*
X006452Y005652D01*
X006495Y005651D01*
X006538Y005646D01*
X006580Y005637D01*
X006621Y005625D01*
X006661Y005609D01*
X006699Y005589D01*
X006735Y005566D01*
X006769Y005539D01*
X006801Y005510D01*
X006829Y005478D01*
X006855Y005443D01*
X006877Y005407D01*
X006896Y005368D01*
X006911Y005328D01*
X006923Y005287D01*
X006931Y005244D01*
X006935Y005201D01*
X006935Y005159D01*
X006931Y005116D01*
X006923Y005073D01*
X006911Y005032D01*
X006896Y004992D01*
X006877Y004953D01*
X006855Y004917D01*
X006829Y004882D01*
X006801Y004850D01*
X006769Y004821D01*
X006735Y004794D01*
X006699Y004771D01*
X006661Y004751D01*
X006621Y004735D01*
X006580Y004723D01*
X006538Y004714D01*
X006495Y004709D01*
X006452Y004708D01*
X006409Y004711D01*
X006367Y004718D01*
X006325Y004729D01*
X006285Y004743D01*
X006246Y004761D01*
X006209Y004782D01*
X006174Y004807D01*
X006141Y004835D01*
X006111Y004866D01*
X006084Y004899D01*
X006060Y004935D01*
X006039Y004972D01*
X006022Y005012D01*
X006009Y005053D01*
X005999Y005095D01*
X005993Y005137D01*
X005991Y005180D01*
X005872Y005180D02*
X005874Y005228D01*
X005880Y005276D01*
X005890Y005323D01*
X005903Y005369D01*
X005921Y005414D01*
X005941Y005458D01*
X005966Y005500D01*
X005994Y005539D01*
X006024Y005576D01*
X006058Y005610D01*
X006095Y005642D01*
X006133Y005671D01*
X006174Y005696D01*
X006217Y005718D01*
X006262Y005736D01*
X006308Y005750D01*
X006355Y005761D01*
X006403Y005768D01*
X006451Y005771D01*
X006499Y005770D01*
X006547Y005765D01*
X006595Y005756D01*
X006641Y005744D01*
X006686Y005727D01*
X006730Y005707D01*
X006772Y005684D01*
X006812Y005657D01*
X006850Y005627D01*
X006885Y005594D01*
X006917Y005558D01*
X006947Y005520D01*
X006973Y005479D01*
X006995Y005436D01*
X007015Y005392D01*
X007030Y005347D01*
X007042Y005300D01*
X007050Y005252D01*
X007054Y005204D01*
X007054Y005156D01*
X007050Y005108D01*
X007042Y005060D01*
X007030Y005013D01*
X007015Y004968D01*
X006995Y004924D01*
X006973Y004881D01*
X006947Y004840D01*
X006917Y004802D01*
X006885Y004766D01*
X006850Y004733D01*
X006812Y004703D01*
X006772Y004676D01*
X006730Y004653D01*
X006686Y004633D01*
X006641Y004616D01*
X006595Y004604D01*
X006547Y004595D01*
X006499Y004590D01*
X006451Y004589D01*
X006403Y004592D01*
X006355Y004599D01*
X006308Y004610D01*
X006262Y004624D01*
X006217Y004642D01*
X006174Y004664D01*
X006133Y004689D01*
X006095Y004718D01*
X006058Y004750D01*
X006024Y004784D01*
X005994Y004821D01*
X005966Y004860D01*
X005941Y004902D01*
X005921Y004946D01*
X005903Y004991D01*
X005890Y005037D01*
X005880Y005084D01*
X005874Y005132D01*
X005872Y005180D01*
X006069Y004043D02*
X006069Y003964D01*
X006857Y003964D01*
X006857Y004043D01*
X014105Y003652D02*
X014189Y003735D01*
X014189Y003485D01*
X014272Y003485D02*
X014105Y003485D01*
X014381Y003527D02*
X014548Y003694D01*
X014548Y003527D01*
X014507Y003485D01*
X014423Y003485D01*
X014381Y003527D01*
X014381Y003694D01*
X014423Y003735D01*
X014507Y003735D01*
X014548Y003694D01*
X014658Y003735D02*
X014658Y003485D01*
X014658Y003568D02*
X014783Y003652D01*
X014658Y003568D02*
X014783Y003485D01*
X013403Y011180D02*
X013403Y012180D01*
X012826Y012080D02*
X012828Y012101D01*
X012833Y012121D01*
X012843Y012140D01*
X012855Y012157D01*
X012870Y012171D01*
X012888Y012183D01*
X012907Y012191D01*
X012927Y012196D01*
X012948Y012197D01*
X012969Y012194D01*
X012989Y012188D01*
X013007Y012178D01*
X013024Y012165D01*
X013038Y012149D01*
X013048Y012131D01*
X013056Y012111D01*
X013060Y012090D01*
X013060Y012070D01*
X013056Y012049D01*
X013048Y012029D01*
X013038Y012011D01*
X013024Y011995D01*
X013007Y011982D01*
X012989Y011972D01*
X012969Y011966D01*
X012948Y011963D01*
X012927Y011964D01*
X012907Y011969D01*
X012888Y011977D01*
X012870Y011989D01*
X012855Y012003D01*
X012843Y012020D01*
X012833Y012039D01*
X012828Y012059D01*
X012826Y012080D01*
X016023Y012540D02*
X016023Y011550D01*
X016033Y012540D02*
X016023Y012540D01*
X019326Y012430D02*
X019328Y012451D01*
X019333Y012471D01*
X019343Y012490D01*
X019355Y012507D01*
X019370Y012521D01*
X019388Y012533D01*
X019407Y012541D01*
X019427Y012546D01*
X019448Y012547D01*
X019469Y012544D01*
X019489Y012538D01*
X019507Y012528D01*
X019524Y012515D01*
X019538Y012499D01*
X019548Y012481D01*
X019556Y012461D01*
X019560Y012440D01*
X019560Y012420D01*
X019556Y012399D01*
X019548Y012379D01*
X019538Y012361D01*
X019524Y012345D01*
X019507Y012332D01*
X019489Y012322D01*
X019469Y012316D01*
X019448Y012313D01*
X019427Y012314D01*
X019407Y012319D01*
X019388Y012327D01*
X019370Y012339D01*
X019355Y012353D01*
X019343Y012370D01*
X019333Y012389D01*
X019328Y012409D01*
X019326Y012430D01*
X019903Y012530D02*
X019903Y011530D01*
X022138Y012905D02*
X022138Y013155D01*
X022263Y013155D01*
X022305Y013114D01*
X022305Y013030D01*
X022263Y012988D01*
X022138Y012988D01*
X022221Y012988D02*
X022305Y012905D01*
X022414Y012947D02*
X022456Y012905D01*
X022539Y012905D01*
X022581Y012947D01*
X022581Y012988D01*
X022539Y013030D01*
X022414Y013030D01*
X022414Y012947D01*
X022414Y013030D02*
X022497Y013114D01*
X022581Y013155D01*
X023588Y013155D02*
X023588Y012905D01*
X023588Y012988D02*
X023713Y012988D01*
X023755Y013030D01*
X023755Y013114D01*
X023713Y013155D01*
X023588Y013155D01*
X023671Y012988D02*
X023755Y012905D01*
X023864Y012947D02*
X023906Y012905D01*
X023989Y012905D01*
X024031Y012947D01*
X024031Y013030D01*
X023989Y013072D01*
X023947Y013072D01*
X023864Y013030D01*
X023864Y013155D01*
X024031Y013155D01*
X020458Y015263D02*
X020399Y015205D01*
X020458Y015263D02*
X020458Y015380D01*
X020399Y015439D01*
X020341Y015439D01*
X020283Y015380D01*
X020283Y015263D01*
X020224Y015205D01*
X020166Y015205D01*
X020108Y015263D01*
X020108Y015380D01*
X020166Y015439D01*
X020283Y015573D02*
X020283Y015748D01*
X020341Y015807D01*
X020399Y015807D01*
X020458Y015748D01*
X020458Y015632D01*
X020399Y015573D01*
X020283Y015573D01*
X020166Y015690D01*
X020108Y015807D01*
X017198Y016213D02*
X017139Y016155D01*
X017198Y016213D02*
X017198Y016330D01*
X017139Y016389D01*
X017081Y016389D01*
X017023Y016330D01*
X017023Y016213D01*
X016964Y016155D01*
X016906Y016155D01*
X016848Y016213D01*
X016848Y016330D01*
X016906Y016389D01*
X016848Y016523D02*
X017023Y016523D01*
X016964Y016640D01*
X016964Y016698D01*
X017023Y016757D01*
X017139Y016757D01*
X017198Y016698D01*
X017198Y016582D01*
X017139Y016523D01*
X016848Y016523D02*
X016848Y016757D01*
X013958Y016342D02*
X013608Y016342D01*
X013783Y016167D01*
X013783Y016400D01*
X013841Y016032D02*
X013899Y016032D01*
X013958Y015974D01*
X013958Y015857D01*
X013899Y015798D01*
X013783Y015857D02*
X013783Y015974D01*
X013841Y016032D01*
X013666Y016032D02*
X013608Y015974D01*
X013608Y015857D01*
X013666Y015798D01*
X013724Y015798D01*
X013783Y015857D01*
X010498Y015852D02*
X010439Y015793D01*
X010498Y015852D02*
X010498Y015968D01*
X010439Y016027D01*
X010381Y016027D01*
X010323Y015968D01*
X010323Y015910D01*
X010323Y015968D02*
X010264Y016027D01*
X010206Y016027D01*
X010148Y015968D01*
X010148Y015852D01*
X010206Y015793D01*
X010206Y015659D02*
X010148Y015600D01*
X010148Y015483D01*
X010206Y015425D01*
X010264Y015425D01*
X010323Y015483D01*
X010323Y015600D01*
X010381Y015659D01*
X010439Y015659D01*
X010498Y015600D01*
X010498Y015483D01*
X010439Y015425D01*
X009533Y012190D02*
X009523Y012190D01*
X009523Y011200D01*
X006869Y015225D02*
X006928Y015283D01*
X006928Y015400D01*
X006869Y015459D01*
X006811Y015459D01*
X006753Y015400D01*
X006753Y015283D01*
X006694Y015225D01*
X006636Y015225D01*
X006578Y015283D01*
X006578Y015400D01*
X006636Y015459D01*
X006636Y015593D02*
X006578Y015652D01*
X006578Y015768D01*
X006636Y015827D01*
X006694Y015827D01*
X006928Y015593D01*
X006928Y015827D01*
X003438Y015827D02*
X003438Y015593D01*
X003438Y015710D02*
X003088Y015710D01*
X003204Y015593D01*
X003146Y015459D02*
X003088Y015400D01*
X003088Y015283D01*
X003146Y015225D01*
X003204Y015225D01*
X003263Y015283D01*
X003263Y015400D01*
X003321Y015459D01*
X003379Y015459D01*
X003438Y015400D01*
X003438Y015283D01*
X003379Y015225D01*
D16*
X005387Y003657D02*
X005592Y003657D01*
X005661Y003589D01*
X005661Y003452D01*
X005592Y003383D01*
X005387Y003383D01*
X005387Y003247D02*
X005387Y003657D01*
X005524Y003383D02*
X005661Y003247D01*
X005847Y003247D02*
X006121Y003247D01*
X006308Y003315D02*
X006376Y003247D01*
X006513Y003247D01*
X006581Y003315D01*
X006581Y003383D01*
X006513Y003452D01*
X006376Y003452D01*
X006308Y003520D01*
X006308Y003589D01*
X006376Y003657D01*
X006513Y003657D01*
X006581Y003589D01*
X006768Y003657D02*
X006768Y003247D01*
X007042Y003247D01*
X006905Y003452D02*
X006768Y003452D01*
X006768Y003657D02*
X007042Y003657D01*
X007229Y003657D02*
X007502Y003657D01*
X007365Y003657D02*
X007365Y003247D01*
X006121Y003657D02*
X005847Y003657D01*
X005847Y003247D01*
X005847Y003452D02*
X005984Y003452D01*
D17*
X005263Y010068D02*
X005263Y010092D01*
X005263Y010968D02*
X005263Y010992D01*
X013563Y009792D02*
X013563Y009768D01*
X017171Y007240D02*
X017195Y007240D01*
X018433Y008218D02*
X018433Y008242D01*
X017463Y009368D02*
X017463Y009392D01*
X020013Y010068D02*
X020013Y010092D01*
X022363Y008292D02*
X022363Y008268D01*
X023651Y003580D02*
X023675Y003580D01*
X017113Y005268D02*
X017113Y005292D01*
D18*
X018801Y001330D02*
X018825Y001330D01*
X022051Y001580D02*
X022075Y001580D01*
D19*
X024263Y011480D03*
X006913Y010180D03*
D20*
X023638Y015277D02*
X023699Y015215D01*
X023761Y015215D01*
X023823Y015277D01*
X023823Y015400D01*
X023884Y015462D01*
X023946Y015462D01*
X024008Y015400D01*
X024008Y015277D01*
X023946Y015215D01*
X023638Y015277D02*
X023638Y015400D01*
X023699Y015462D01*
X023638Y015583D02*
X023638Y015830D01*
X023699Y015830D01*
X023946Y015583D01*
X024008Y015583D01*
X026031Y014884D02*
X026031Y014822D01*
X026093Y014760D01*
X026216Y014760D01*
X026278Y014698D01*
X026278Y014637D01*
X026216Y014575D01*
X026093Y014575D01*
X026031Y014637D01*
X026031Y014884D02*
X026093Y014945D01*
X026216Y014945D01*
X026278Y014884D01*
X026400Y014884D02*
X026400Y014822D01*
X026461Y014760D01*
X026585Y014760D01*
X026646Y014698D01*
X026646Y014637D01*
X026585Y014575D01*
X026461Y014575D01*
X026400Y014637D01*
X026400Y014698D01*
X026461Y014760D01*
X026585Y014760D02*
X026646Y014822D01*
X026646Y014884D01*
X026585Y014945D01*
X026461Y014945D01*
X026400Y014884D01*
D21*
X023913Y012580D03*
X022463Y012580D03*
X014463Y003180D03*
M02*
