G75*
G70*
%OFA0B0*%
%FSLAX24Y24*%
%IPPOS*%
%LPD*%
%AMOC8*
5,1,8,0,0,1.08239X$1,22.5*
%
%ADD10C,0.0000*%
%ADD11C,0.0080*%
%ADD12C,0.0050*%
%ADD13C,0.0010*%
%ADD14C,0.0100*%
%ADD15R,0.0160X0.0280*%
%ADD16C,0.0040*%
%ADD17C,0.0220*%
%ADD18C,0.0160*%
%ADD19R,0.0300X0.0180*%
%ADD20C,0.0030*%
%ADD21R,0.0180X0.0300*%
D10*
X000463Y000100D02*
X000463Y018346D01*
X028083Y018346D01*
X028083Y000100D01*
X000463Y000100D01*
X002286Y006734D02*
X002288Y006760D01*
X002294Y006786D01*
X002304Y006811D01*
X002317Y006834D01*
X002333Y006854D01*
X002353Y006872D01*
X002375Y006887D01*
X002398Y006899D01*
X002424Y006907D01*
X002450Y006911D01*
X002476Y006911D01*
X002502Y006907D01*
X002528Y006899D01*
X002552Y006887D01*
X002573Y006872D01*
X002593Y006854D01*
X002609Y006834D01*
X002622Y006811D01*
X002632Y006786D01*
X002638Y006760D01*
X002640Y006734D01*
X002638Y006708D01*
X002632Y006682D01*
X002622Y006657D01*
X002609Y006634D01*
X002593Y006614D01*
X002573Y006596D01*
X002551Y006581D01*
X002528Y006569D01*
X002502Y006561D01*
X002476Y006557D01*
X002450Y006557D01*
X002424Y006561D01*
X002398Y006569D01*
X002374Y006581D01*
X002353Y006596D01*
X002333Y006614D01*
X002317Y006634D01*
X002304Y006657D01*
X002294Y006682D01*
X002288Y006708D01*
X002286Y006734D01*
X002286Y008466D02*
X002288Y008492D01*
X002294Y008518D01*
X002304Y008543D01*
X002317Y008566D01*
X002333Y008586D01*
X002353Y008604D01*
X002375Y008619D01*
X002398Y008631D01*
X002424Y008639D01*
X002450Y008643D01*
X002476Y008643D01*
X002502Y008639D01*
X002528Y008631D01*
X002552Y008619D01*
X002573Y008604D01*
X002593Y008586D01*
X002609Y008566D01*
X002622Y008543D01*
X002632Y008518D01*
X002638Y008492D01*
X002640Y008466D01*
X002638Y008440D01*
X002632Y008414D01*
X002622Y008389D01*
X002609Y008366D01*
X002593Y008346D01*
X002573Y008328D01*
X002551Y008313D01*
X002528Y008301D01*
X002502Y008293D01*
X002476Y008289D01*
X002450Y008289D01*
X002424Y008293D01*
X002398Y008301D01*
X002374Y008313D01*
X002353Y008328D01*
X002333Y008346D01*
X002317Y008366D01*
X002304Y008389D01*
X002294Y008414D01*
X002288Y008440D01*
X002286Y008466D01*
D11*
X001951Y009096D02*
X002778Y009096D01*
X003762Y008820D02*
X003762Y008466D01*
X005113Y008800D02*
X005613Y008800D01*
X005613Y009400D02*
X005113Y009400D01*
X007382Y010067D02*
X007563Y010067D01*
X007655Y009945D01*
X007744Y010067D02*
X007563Y010067D01*
X007553Y010061D02*
X007477Y009945D01*
X006607Y011785D02*
X006607Y012415D01*
X006606Y012415D02*
X006601Y012431D01*
X006593Y012447D01*
X006583Y012461D01*
X006571Y012473D01*
X006556Y012483D01*
X006540Y012490D01*
X006523Y012494D01*
X006506Y012495D01*
X006488Y012493D01*
X006888Y012450D02*
X007538Y012450D01*
X007555Y012452D01*
X007572Y012456D01*
X007588Y012463D01*
X007602Y012473D01*
X007615Y012486D01*
X007625Y012500D01*
X007632Y012516D01*
X007636Y012533D01*
X007638Y012550D01*
X007638Y013150D02*
X007636Y013167D01*
X007632Y013184D01*
X007625Y013200D01*
X007615Y013214D01*
X007602Y013227D01*
X007588Y013237D01*
X007572Y013244D01*
X007555Y013248D01*
X007538Y013250D01*
X006888Y013250D01*
X006871Y013248D01*
X006854Y013244D01*
X006838Y013237D01*
X006824Y013227D01*
X006811Y013214D01*
X006801Y013200D01*
X006794Y013184D01*
X006790Y013167D01*
X006788Y013150D01*
X006888Y013700D02*
X007538Y013700D01*
X007555Y013702D01*
X007572Y013706D01*
X007588Y013713D01*
X007602Y013723D01*
X007615Y013736D01*
X007625Y013750D01*
X007632Y013766D01*
X007636Y013783D01*
X007638Y013800D01*
X007638Y014400D02*
X007636Y014417D01*
X007632Y014434D01*
X007625Y014450D01*
X007615Y014464D01*
X007602Y014477D01*
X007588Y014487D01*
X007572Y014494D01*
X007555Y014498D01*
X007538Y014500D01*
X006888Y014500D01*
X006871Y014498D01*
X006854Y014494D01*
X006838Y014487D01*
X006824Y014477D01*
X006811Y014464D01*
X006801Y014450D01*
X006794Y014434D01*
X006790Y014417D01*
X006788Y014400D01*
X006788Y013800D02*
X006790Y013783D01*
X006794Y013766D01*
X006801Y013750D01*
X006811Y013736D01*
X006824Y013723D01*
X006838Y013713D01*
X006854Y013706D01*
X006871Y013702D01*
X006888Y013700D01*
X006788Y012550D02*
X006790Y012533D01*
X006794Y012516D01*
X006801Y012500D01*
X006811Y012486D01*
X006824Y012473D01*
X006838Y012463D01*
X006854Y012456D01*
X006871Y012452D01*
X006888Y012450D01*
X006606Y011785D02*
X006601Y011769D01*
X006593Y011753D01*
X006583Y011739D01*
X006571Y011727D01*
X006556Y011717D01*
X006540Y011710D01*
X006523Y011706D01*
X006506Y011705D01*
X006488Y011707D01*
X005938Y011707D02*
X005918Y011705D01*
X005899Y011707D01*
X005880Y011713D01*
X005863Y011722D01*
X005847Y011734D01*
X005835Y011749D01*
X005826Y011767D01*
X005820Y011785D01*
X005819Y011785D02*
X005819Y012415D01*
X005820Y012415D02*
X005826Y012433D01*
X005835Y012451D01*
X005847Y012466D01*
X005863Y012478D01*
X005880Y012487D01*
X005899Y012493D01*
X005918Y012495D01*
X005938Y012493D01*
X005278Y013706D02*
X004648Y013706D01*
X004648Y013707D02*
X004632Y013712D01*
X004616Y013720D01*
X004602Y013730D01*
X004590Y013742D01*
X004580Y013757D01*
X004573Y013773D01*
X004569Y013790D01*
X004568Y013807D01*
X004570Y013825D01*
X004570Y014375D02*
X004568Y014393D01*
X004569Y014410D01*
X004573Y014427D01*
X004580Y014443D01*
X004590Y014458D01*
X004602Y014470D01*
X004616Y014480D01*
X004632Y014488D01*
X004648Y014493D01*
X004648Y014494D02*
X005278Y014494D01*
X005278Y014493D02*
X005294Y014488D01*
X005310Y014480D01*
X005324Y014470D01*
X005336Y014458D01*
X005346Y014443D01*
X005353Y014427D01*
X005357Y014410D01*
X005358Y014393D01*
X005356Y014375D01*
X005356Y013825D02*
X005358Y013807D01*
X005357Y013790D01*
X005353Y013773D01*
X005346Y013757D01*
X005336Y013742D01*
X005324Y013730D01*
X005310Y013720D01*
X005294Y013712D01*
X005278Y013707D01*
X003762Y006734D02*
X003762Y006380D01*
X002778Y006104D02*
X001951Y006104D01*
X009823Y005850D02*
X009823Y005350D01*
X015642Y008379D02*
X015642Y009521D01*
X016568Y009363D02*
X016570Y009375D01*
X016575Y009386D01*
X016584Y009395D01*
X016595Y009400D01*
X016607Y009402D01*
X016619Y009400D01*
X016630Y009395D01*
X016639Y009386D01*
X016644Y009375D01*
X016646Y009363D01*
X016644Y009351D01*
X016639Y009340D01*
X016630Y009331D01*
X016619Y009326D01*
X016607Y009324D01*
X016595Y009326D01*
X016584Y009331D01*
X016575Y009340D01*
X016570Y009351D01*
X016568Y009363D01*
X016784Y009521D02*
X016784Y008379D01*
X018573Y006832D02*
X018573Y003368D01*
X018731Y003210D01*
X022195Y003210D01*
X022353Y003368D01*
X022353Y006832D01*
X022195Y006990D01*
X018731Y006990D01*
X018573Y006832D01*
X021892Y010829D02*
X023034Y010829D01*
X022837Y011006D02*
X022839Y011018D01*
X022844Y011029D01*
X022853Y011038D01*
X022864Y011043D01*
X022876Y011045D01*
X022888Y011043D01*
X022899Y011038D01*
X022908Y011029D01*
X022913Y011018D01*
X022915Y011006D01*
X022913Y010994D01*
X022908Y010983D01*
X022899Y010974D01*
X022888Y010969D01*
X022876Y010967D01*
X022864Y010969D01*
X022853Y010974D01*
X022844Y010983D01*
X022839Y010994D01*
X022837Y011006D01*
X023034Y011971D02*
X021892Y011971D01*
X025532Y006667D02*
X025713Y006667D01*
X025805Y006545D01*
X025894Y006667D02*
X025713Y006667D01*
X025703Y006661D02*
X025627Y006545D01*
X025621Y005405D02*
X025713Y005283D01*
X025894Y005283D01*
X025799Y005405D02*
X025723Y005289D01*
X025713Y005283D02*
X025532Y005283D01*
X025144Y005417D02*
X024963Y005417D01*
X025055Y005295D01*
X024963Y005417D02*
X024782Y005417D01*
X024877Y005295D02*
X024953Y005411D01*
X026282Y005417D02*
X026463Y005417D01*
X026555Y005295D01*
X026644Y005417D02*
X026463Y005417D01*
X026453Y005411D02*
X026377Y005295D01*
X027032Y005283D02*
X027213Y005283D01*
X027121Y005405D01*
X027213Y005283D02*
X027394Y005283D01*
X027299Y005405D02*
X027223Y005289D01*
X027305Y006545D02*
X027213Y006667D01*
X027032Y006667D01*
X027127Y006545D02*
X027203Y006661D01*
X027213Y006667D02*
X027394Y006667D01*
X021397Y001568D02*
X021397Y001332D01*
X020649Y000820D02*
X020177Y000820D01*
X019429Y001332D02*
X019429Y001568D01*
X020177Y002080D02*
X020649Y002080D01*
D12*
X026017Y008245D02*
X026017Y008395D01*
X026017Y008320D02*
X026393Y008320D01*
X026468Y008245D01*
X026468Y008170D01*
X026393Y008095D01*
X026468Y008555D02*
X026017Y008555D01*
X026017Y008781D01*
X026093Y008856D01*
X026243Y008856D01*
X026318Y008781D01*
X026318Y008555D01*
X026468Y009016D02*
X026468Y009316D01*
X026468Y009166D02*
X026017Y009166D01*
X026168Y009016D01*
X019903Y011450D02*
X019903Y012450D01*
X019326Y012350D02*
X019328Y012371D01*
X019333Y012391D01*
X019343Y012410D01*
X019355Y012427D01*
X019370Y012441D01*
X019388Y012453D01*
X019407Y012461D01*
X019427Y012466D01*
X019448Y012467D01*
X019469Y012464D01*
X019489Y012458D01*
X019507Y012448D01*
X019524Y012435D01*
X019538Y012419D01*
X019548Y012401D01*
X019556Y012381D01*
X019560Y012360D01*
X019560Y012340D01*
X019556Y012319D01*
X019548Y012299D01*
X019538Y012281D01*
X019524Y012265D01*
X019507Y012252D01*
X019489Y012242D01*
X019469Y012236D01*
X019448Y012233D01*
X019427Y012234D01*
X019407Y012239D01*
X019388Y012247D01*
X019370Y012259D01*
X019355Y012273D01*
X019343Y012290D01*
X019333Y012309D01*
X019328Y012329D01*
X019326Y012350D01*
X020166Y015125D02*
X020224Y015125D01*
X020283Y015183D01*
X020283Y015300D01*
X020341Y015359D01*
X020399Y015359D01*
X020458Y015300D01*
X020458Y015183D01*
X020399Y015125D01*
X020166Y015125D02*
X020108Y015183D01*
X020108Y015300D01*
X020166Y015359D01*
X020283Y015493D02*
X020283Y015668D01*
X020341Y015727D01*
X020399Y015727D01*
X020458Y015668D01*
X020458Y015552D01*
X020399Y015493D01*
X020283Y015493D01*
X020166Y015610D01*
X020108Y015727D01*
X017198Y016133D02*
X017139Y016075D01*
X017198Y016133D02*
X017198Y016250D01*
X017139Y016309D01*
X017081Y016309D01*
X017023Y016250D01*
X017023Y016133D01*
X016964Y016075D01*
X016906Y016075D01*
X016848Y016133D01*
X016848Y016250D01*
X016906Y016309D01*
X016848Y016443D02*
X017023Y016443D01*
X016964Y016560D01*
X016964Y016618D01*
X017023Y016677D01*
X017139Y016677D01*
X017198Y016618D01*
X017198Y016502D01*
X017139Y016443D01*
X016848Y016443D02*
X016848Y016677D01*
X013958Y016262D02*
X013608Y016262D01*
X013783Y016087D01*
X013783Y016320D01*
X013841Y015952D02*
X013783Y015894D01*
X013783Y015777D01*
X013724Y015718D01*
X013666Y015718D01*
X013608Y015777D01*
X013608Y015894D01*
X013666Y015952D01*
X013841Y015952D02*
X013899Y015952D01*
X013958Y015894D01*
X013958Y015777D01*
X013899Y015718D01*
X010498Y015772D02*
X010439Y015713D01*
X010498Y015772D02*
X010498Y015888D01*
X010439Y015947D01*
X010381Y015947D01*
X010323Y015888D01*
X010323Y015830D01*
X010323Y015888D02*
X010264Y015947D01*
X010206Y015947D01*
X010148Y015888D01*
X010148Y015772D01*
X010206Y015713D01*
X010206Y015579D02*
X010148Y015520D01*
X010148Y015403D01*
X010206Y015345D01*
X010264Y015345D01*
X010323Y015403D01*
X010323Y015520D01*
X010381Y015579D01*
X010439Y015579D01*
X010498Y015520D01*
X010498Y015403D01*
X010439Y015345D01*
X009533Y012110D02*
X009523Y012110D01*
X009523Y011120D01*
X012826Y012000D02*
X012828Y012021D01*
X012833Y012041D01*
X012843Y012060D01*
X012855Y012077D01*
X012870Y012091D01*
X012888Y012103D01*
X012907Y012111D01*
X012927Y012116D01*
X012948Y012117D01*
X012969Y012114D01*
X012989Y012108D01*
X013007Y012098D01*
X013024Y012085D01*
X013038Y012069D01*
X013048Y012051D01*
X013056Y012031D01*
X013060Y012010D01*
X013060Y011990D01*
X013056Y011969D01*
X013048Y011949D01*
X013038Y011931D01*
X013024Y011915D01*
X013007Y011902D01*
X012989Y011892D01*
X012969Y011886D01*
X012948Y011883D01*
X012927Y011884D01*
X012907Y011889D01*
X012888Y011897D01*
X012870Y011909D01*
X012855Y011923D01*
X012843Y011940D01*
X012833Y011959D01*
X012828Y011979D01*
X012826Y012000D01*
X013403Y012100D02*
X013403Y011100D01*
X016023Y011470D02*
X016023Y012460D01*
X016033Y012460D01*
X007635Y006237D02*
X007635Y005297D01*
X007733Y005297D01*
X007733Y004903D01*
X007635Y004903D01*
X007635Y003963D01*
X006857Y003963D01*
X006857Y004041D01*
X006069Y004041D01*
X006069Y003963D01*
X005291Y003963D01*
X005291Y006237D01*
X006069Y006237D01*
X006069Y006159D01*
X006857Y006159D01*
X006857Y006237D01*
X007635Y006237D01*
X006857Y006237D02*
X006857Y006316D01*
X006069Y006316D01*
X006069Y006237D01*
X005991Y005100D02*
X005993Y005143D01*
X005999Y005185D01*
X006009Y005227D01*
X006022Y005268D01*
X006039Y005308D01*
X006060Y005345D01*
X006084Y005381D01*
X006111Y005414D01*
X006141Y005445D01*
X006174Y005473D01*
X006209Y005498D01*
X006246Y005519D01*
X006285Y005537D01*
X006325Y005551D01*
X006367Y005562D01*
X006409Y005569D01*
X006452Y005572D01*
X006495Y005571D01*
X006538Y005566D01*
X006580Y005557D01*
X006621Y005545D01*
X006661Y005529D01*
X006699Y005509D01*
X006735Y005486D01*
X006769Y005459D01*
X006801Y005430D01*
X006829Y005398D01*
X006855Y005363D01*
X006877Y005327D01*
X006896Y005288D01*
X006911Y005248D01*
X006923Y005207D01*
X006931Y005164D01*
X006935Y005121D01*
X006935Y005079D01*
X006931Y005036D01*
X006923Y004993D01*
X006911Y004952D01*
X006896Y004912D01*
X006877Y004873D01*
X006855Y004837D01*
X006829Y004802D01*
X006801Y004770D01*
X006769Y004741D01*
X006735Y004714D01*
X006699Y004691D01*
X006661Y004671D01*
X006621Y004655D01*
X006580Y004643D01*
X006538Y004634D01*
X006495Y004629D01*
X006452Y004628D01*
X006409Y004631D01*
X006367Y004638D01*
X006325Y004649D01*
X006285Y004663D01*
X006246Y004681D01*
X006209Y004702D01*
X006174Y004727D01*
X006141Y004755D01*
X006111Y004786D01*
X006084Y004819D01*
X006060Y004855D01*
X006039Y004892D01*
X006022Y004932D01*
X006009Y004973D01*
X005999Y005015D01*
X005993Y005057D01*
X005991Y005100D01*
X005872Y005100D02*
X005874Y005148D01*
X005880Y005196D01*
X005890Y005243D01*
X005903Y005289D01*
X005921Y005334D01*
X005941Y005378D01*
X005966Y005420D01*
X005994Y005459D01*
X006024Y005496D01*
X006058Y005530D01*
X006095Y005562D01*
X006133Y005591D01*
X006174Y005616D01*
X006217Y005638D01*
X006262Y005656D01*
X006308Y005670D01*
X006355Y005681D01*
X006403Y005688D01*
X006451Y005691D01*
X006499Y005690D01*
X006547Y005685D01*
X006595Y005676D01*
X006641Y005664D01*
X006686Y005647D01*
X006730Y005627D01*
X006772Y005604D01*
X006812Y005577D01*
X006850Y005547D01*
X006885Y005514D01*
X006917Y005478D01*
X006947Y005440D01*
X006973Y005399D01*
X006995Y005356D01*
X007015Y005312D01*
X007030Y005267D01*
X007042Y005220D01*
X007050Y005172D01*
X007054Y005124D01*
X007054Y005076D01*
X007050Y005028D01*
X007042Y004980D01*
X007030Y004933D01*
X007015Y004888D01*
X006995Y004844D01*
X006973Y004801D01*
X006947Y004760D01*
X006917Y004722D01*
X006885Y004686D01*
X006850Y004653D01*
X006812Y004623D01*
X006772Y004596D01*
X006730Y004573D01*
X006686Y004553D01*
X006641Y004536D01*
X006595Y004524D01*
X006547Y004515D01*
X006499Y004510D01*
X006451Y004509D01*
X006403Y004512D01*
X006355Y004519D01*
X006308Y004530D01*
X006262Y004544D01*
X006217Y004562D01*
X006174Y004584D01*
X006133Y004609D01*
X006095Y004638D01*
X006058Y004670D01*
X006024Y004704D01*
X005994Y004741D01*
X005966Y004780D01*
X005941Y004822D01*
X005921Y004866D01*
X005903Y004911D01*
X005890Y004957D01*
X005880Y005004D01*
X005874Y005052D01*
X005872Y005100D01*
X006069Y003963D02*
X006069Y003884D01*
X006857Y003884D01*
X006857Y003963D01*
X005219Y001975D02*
X005277Y001917D01*
X005277Y001859D01*
X005219Y001800D01*
X005277Y001742D01*
X005277Y001683D01*
X005219Y001625D01*
X005102Y001625D01*
X005044Y001683D01*
X004918Y001683D02*
X004918Y001625D01*
X004860Y001625D01*
X004860Y001683D01*
X004918Y001683D01*
X004725Y001859D02*
X004608Y001625D01*
X004491Y001859D01*
X003988Y001800D02*
X003988Y001683D01*
X003930Y001625D01*
X003755Y001625D01*
X003755Y001508D02*
X003755Y001859D01*
X003930Y001859D01*
X003988Y001800D01*
X003626Y001625D02*
X003509Y001625D01*
X003567Y001625D02*
X003567Y001859D01*
X003509Y001859D01*
X003567Y001975D02*
X003567Y002034D01*
X003322Y001975D02*
X003322Y001625D01*
X003264Y001625D02*
X003380Y001625D01*
X003129Y001683D02*
X003070Y001625D01*
X002954Y001625D01*
X002895Y001683D01*
X002895Y001917D01*
X002954Y001975D01*
X003070Y001975D01*
X003129Y001917D01*
X003264Y001975D02*
X003322Y001975D01*
X002760Y001859D02*
X002760Y001567D01*
X002702Y001508D01*
X002644Y001508D01*
X002585Y001625D02*
X002527Y001683D01*
X002527Y001859D01*
X002395Y001859D02*
X002337Y001859D01*
X002220Y001742D01*
X002220Y001625D02*
X002220Y001859D01*
X002085Y001800D02*
X002027Y001859D01*
X001910Y001859D01*
X001852Y001800D01*
X001852Y001683D01*
X001910Y001625D01*
X002027Y001625D01*
X002085Y001683D01*
X002085Y001800D01*
X001723Y001859D02*
X001606Y001859D01*
X001665Y001917D02*
X001665Y001683D01*
X001723Y001625D01*
X001471Y001683D02*
X001413Y001625D01*
X001296Y001625D01*
X001238Y001683D01*
X001296Y001800D02*
X001413Y001800D01*
X001471Y001742D01*
X001471Y001683D01*
X001296Y001800D02*
X001238Y001859D01*
X001238Y001917D01*
X001296Y001975D01*
X001413Y001975D01*
X001471Y001917D01*
X001713Y001274D02*
X001713Y001215D01*
X001713Y001099D02*
X001713Y000807D01*
X001655Y000748D01*
X001596Y000748D01*
X001461Y000923D02*
X001403Y000982D01*
X001286Y000982D01*
X001228Y001040D01*
X001286Y001099D01*
X001461Y001099D01*
X001461Y000923D02*
X001403Y000865D01*
X001228Y000865D01*
X001842Y000923D02*
X001900Y000982D01*
X002075Y000982D01*
X002075Y001040D02*
X002075Y000865D01*
X001900Y000865D01*
X001842Y000923D01*
X001900Y001099D02*
X002017Y001099D01*
X002075Y001040D01*
X002210Y001040D02*
X002210Y000923D01*
X002268Y000865D01*
X002444Y000865D01*
X002578Y000923D02*
X002637Y000865D01*
X002753Y000865D01*
X002812Y000923D01*
X002812Y001040D01*
X002753Y001099D01*
X002637Y001099D01*
X002578Y001040D01*
X002578Y000923D01*
X002444Y001099D02*
X002268Y001099D01*
X002210Y001040D01*
X002585Y001625D02*
X002760Y001625D01*
X002947Y001215D02*
X002947Y000865D01*
X003122Y000865D01*
X003180Y000923D01*
X003180Y001040D01*
X003122Y001099D01*
X002947Y001099D01*
X003315Y001099D02*
X003315Y000923D01*
X003373Y000865D01*
X003548Y000865D01*
X003548Y000807D02*
X003490Y000748D01*
X003432Y000748D01*
X003548Y000807D02*
X003548Y001099D01*
X003683Y001157D02*
X003683Y000923D01*
X003742Y000865D01*
X003858Y000865D01*
X003917Y000923D01*
X003858Y000982D02*
X003858Y001099D01*
X003742Y001099D01*
X003742Y000982D01*
X003858Y000982D01*
X003917Y001040D01*
X003917Y001157D01*
X003858Y001215D01*
X003742Y001215D01*
X003683Y001157D01*
X004052Y001099D02*
X004052Y000865D01*
X004168Y000865D02*
X004168Y001040D01*
X004227Y001099D01*
X004285Y001040D01*
X004285Y000865D01*
X004420Y000923D02*
X004420Y001040D01*
X004478Y001099D01*
X004595Y001099D01*
X004653Y001040D01*
X004653Y000982D01*
X004420Y000982D01*
X004420Y000923D02*
X004478Y000865D01*
X004595Y000865D01*
X004788Y000923D02*
X004788Y001040D01*
X004847Y001099D01*
X005022Y001099D01*
X005022Y001215D02*
X005022Y000865D01*
X004847Y000865D01*
X004788Y000923D01*
X005157Y000865D02*
X005273Y000865D01*
X005215Y000865D02*
X005215Y001099D01*
X005157Y001099D01*
X005215Y001215D02*
X005215Y001274D01*
X005460Y001099D02*
X005577Y001099D01*
X005636Y001040D01*
X005636Y000865D01*
X005460Y000865D01*
X005402Y000923D01*
X005460Y000982D01*
X005636Y000982D01*
X005770Y000923D02*
X005829Y000923D01*
X005829Y000865D01*
X005770Y000865D01*
X005770Y000923D01*
X005955Y000865D02*
X005955Y001099D01*
X006013Y001099D01*
X006071Y001040D01*
X006130Y001099D01*
X006188Y001040D01*
X006188Y000865D01*
X006071Y000865D02*
X006071Y001040D01*
X006323Y001099D02*
X006381Y001099D01*
X006381Y000865D01*
X006323Y000865D02*
X006440Y000865D01*
X006627Y000923D02*
X006627Y001157D01*
X006568Y001099D02*
X006685Y001099D01*
X006627Y000923D02*
X006685Y000865D01*
X006814Y000865D02*
X006872Y000865D01*
X006872Y000923D01*
X006814Y000923D01*
X006814Y000865D01*
X006998Y000923D02*
X006998Y001040D01*
X007056Y001099D01*
X007173Y001099D01*
X007232Y001040D01*
X007232Y000982D01*
X006998Y000982D01*
X006998Y000923D02*
X007056Y000865D01*
X007173Y000865D01*
X007366Y000923D02*
X007366Y001040D01*
X007425Y001099D01*
X007600Y001099D01*
X007600Y001215D02*
X007600Y000865D01*
X007425Y000865D01*
X007366Y000923D01*
X007735Y000923D02*
X007735Y001099D01*
X007735Y000923D02*
X007793Y000865D01*
X007968Y000865D01*
X007968Y001099D01*
X008378Y001245D02*
X008378Y000895D01*
X008869Y000895D02*
X008869Y001245D01*
X008986Y001129D01*
X009102Y001245D01*
X009102Y000895D01*
X009237Y000895D02*
X009354Y000895D01*
X009296Y000895D02*
X009296Y001245D01*
X009354Y001245D02*
X009237Y001245D01*
X009483Y001245D02*
X009716Y001245D01*
X009600Y001245D02*
X009600Y000895D01*
X010219Y000895D02*
X010219Y001245D01*
X010336Y001129D01*
X010453Y001245D01*
X010453Y000895D01*
X010588Y000953D02*
X010588Y001070D01*
X010646Y001129D01*
X010763Y001129D01*
X010821Y001070D01*
X010821Y001012D01*
X010588Y001012D01*
X010588Y000953D02*
X010646Y000895D01*
X010763Y000895D01*
X010956Y000953D02*
X010956Y001070D01*
X011014Y001129D01*
X011190Y001129D01*
X011190Y001245D02*
X011190Y000895D01*
X011014Y000895D01*
X010956Y000953D01*
X011324Y000895D02*
X011441Y000895D01*
X011383Y000895D02*
X011383Y001129D01*
X011324Y001129D01*
X011383Y001245D02*
X011383Y001304D01*
X011628Y001129D02*
X011745Y001129D01*
X011803Y001070D01*
X011803Y000895D01*
X011628Y000895D01*
X011570Y000953D01*
X011628Y001012D01*
X011803Y001012D01*
X012307Y000895D02*
X012540Y000895D01*
X012675Y000953D02*
X012733Y001012D01*
X012908Y001012D01*
X012908Y001070D02*
X012908Y000895D01*
X012733Y000895D01*
X012675Y000953D01*
X012733Y001129D02*
X012850Y001129D01*
X012908Y001070D01*
X013043Y001129D02*
X013218Y001129D01*
X013277Y001070D01*
X013277Y000953D01*
X013218Y000895D01*
X013043Y000895D01*
X013043Y001245D01*
X012307Y001245D02*
X012307Y000895D01*
X006381Y001215D02*
X006381Y001274D01*
X005219Y001800D02*
X005161Y001800D01*
X005044Y001917D02*
X005102Y001975D01*
X005219Y001975D01*
X004168Y001040D02*
X004110Y001099D01*
X004052Y001099D01*
X003379Y015145D02*
X003438Y015203D01*
X003438Y015320D01*
X003379Y015379D01*
X003321Y015379D01*
X003263Y015320D01*
X003263Y015203D01*
X003204Y015145D01*
X003146Y015145D01*
X003088Y015203D01*
X003088Y015320D01*
X003146Y015379D01*
X003204Y015513D02*
X003088Y015630D01*
X003438Y015630D01*
X003438Y015513D02*
X003438Y015747D01*
X006578Y015688D02*
X006578Y015572D01*
X006636Y015513D01*
X006636Y015379D02*
X006578Y015320D01*
X006578Y015203D01*
X006636Y015145D01*
X006694Y015145D01*
X006753Y015203D01*
X006753Y015320D01*
X006811Y015379D01*
X006869Y015379D01*
X006928Y015320D01*
X006928Y015203D01*
X006869Y015145D01*
X006928Y015513D02*
X006694Y015747D01*
X006636Y015747D01*
X006578Y015688D01*
X006928Y015747D02*
X006928Y015513D01*
D13*
X007813Y014305D02*
X007798Y014290D01*
X007798Y014230D01*
X007813Y014215D01*
X007843Y014215D01*
X007858Y014230D01*
X007890Y014230D02*
X007905Y014215D01*
X007935Y014215D01*
X007950Y014230D01*
X007950Y014305D01*
X007982Y014305D02*
X008042Y014305D01*
X008012Y014305D02*
X008012Y014215D01*
X007890Y014230D02*
X007890Y014305D01*
X007858Y014290D02*
X007843Y014305D01*
X007813Y014305D01*
X008166Y014305D02*
X008226Y014305D01*
X008258Y014290D02*
X008258Y014230D01*
X008273Y014215D01*
X008303Y014215D01*
X008318Y014230D01*
X008318Y014290D01*
X008303Y014305D01*
X008273Y014305D01*
X008258Y014290D01*
X008196Y014260D02*
X008166Y014260D01*
X008166Y014215D02*
X008166Y014305D01*
X008350Y014305D02*
X008395Y014305D01*
X008410Y014290D01*
X008410Y014260D01*
X008395Y014245D01*
X008350Y014245D01*
X008350Y014215D02*
X008350Y014305D01*
X008380Y014245D02*
X008410Y014215D01*
X008534Y014230D02*
X008549Y014215D01*
X008579Y014215D01*
X008595Y014230D01*
X008595Y014260D01*
X008564Y014260D01*
X008534Y014290D02*
X008534Y014230D01*
X008534Y014290D02*
X008549Y014305D01*
X008579Y014305D01*
X008595Y014290D01*
X008627Y014305D02*
X008687Y014215D01*
X008687Y014305D01*
X008719Y014305D02*
X008764Y014305D01*
X008779Y014290D01*
X008779Y014230D01*
X008764Y014215D01*
X008719Y014215D01*
X008719Y014305D01*
X008627Y014305D02*
X008627Y014215D01*
X008605Y013085D02*
X008605Y013025D01*
X008574Y012995D01*
X008544Y013025D01*
X008544Y013085D01*
X008637Y013070D02*
X008637Y013010D01*
X008652Y012995D01*
X008682Y012995D01*
X008697Y013010D01*
X008729Y013010D02*
X008744Y012995D01*
X008774Y012995D01*
X008789Y013010D01*
X008789Y013070D02*
X008774Y013085D01*
X008744Y013085D01*
X008729Y013070D01*
X008729Y013010D01*
X008697Y013070D02*
X008682Y013085D01*
X008652Y013085D01*
X008637Y013070D01*
X008420Y013070D02*
X008420Y013040D01*
X008405Y013025D01*
X008360Y013025D01*
X008360Y012995D02*
X008360Y013085D01*
X008405Y013085D01*
X008420Y013070D01*
X008390Y013025D02*
X008420Y012995D01*
X008328Y013010D02*
X008328Y013070D01*
X008313Y013085D01*
X008283Y013085D01*
X008268Y013070D01*
X008268Y013010D01*
X008283Y012995D01*
X008313Y012995D01*
X008328Y013010D01*
X008236Y013085D02*
X008176Y013085D01*
X008176Y012995D01*
X008176Y013040D02*
X008206Y013040D01*
X008052Y013085D02*
X007992Y013085D01*
X008022Y013085D02*
X008022Y012995D01*
X007960Y013010D02*
X007960Y013085D01*
X007900Y013085D02*
X007900Y013010D01*
X007915Y012995D01*
X007945Y012995D01*
X007960Y013010D01*
X007868Y013010D02*
X007853Y012995D01*
X007823Y012995D01*
X007808Y013010D01*
X007808Y013070D01*
X007823Y013085D01*
X007853Y013085D01*
X007868Y013070D01*
X009298Y011583D02*
X009408Y011510D01*
X009389Y011473D02*
X009298Y011473D01*
X009298Y011510D02*
X009408Y011583D01*
X009389Y011473D02*
X009408Y011454D01*
X009408Y011418D01*
X009389Y011399D01*
X009298Y011399D01*
X009298Y011362D02*
X009408Y011362D01*
X009408Y011289D02*
X009298Y011289D01*
X009334Y011326D01*
X009298Y011362D01*
X009353Y011252D02*
X009353Y011178D01*
X009408Y011141D02*
X009408Y011068D01*
X009408Y011105D02*
X009298Y011105D01*
X009334Y011068D01*
X009316Y011031D02*
X009298Y011013D01*
X009298Y010976D01*
X009316Y010957D01*
X009334Y010957D01*
X009353Y010976D01*
X009353Y011031D01*
X009389Y011031D02*
X009316Y011031D01*
X009389Y011031D02*
X009408Y011013D01*
X009408Y010976D01*
X009389Y010957D01*
X009389Y010920D02*
X009408Y010902D01*
X009408Y010865D01*
X009389Y010847D01*
X009408Y010810D02*
X009408Y010736D01*
X009408Y010773D02*
X009298Y010773D01*
X009334Y010736D01*
X009316Y010699D02*
X009298Y010681D01*
X009298Y010644D01*
X009316Y010626D01*
X009389Y010626D01*
X009408Y010644D01*
X009408Y010681D01*
X009389Y010699D01*
X009298Y010589D02*
X009298Y010515D01*
X009298Y010552D02*
X009408Y010552D01*
X009408Y010478D02*
X009408Y010405D01*
X009298Y010405D01*
X009316Y010847D02*
X009298Y010865D01*
X009298Y010902D01*
X009316Y010920D01*
X009334Y010920D01*
X009353Y010902D01*
X009371Y010920D01*
X009389Y010920D01*
X009353Y010902D02*
X009353Y010884D01*
X007268Y010862D02*
X007268Y010962D01*
X007268Y011010D02*
X007268Y011085D01*
X007243Y011110D01*
X007143Y011110D01*
X007118Y011085D01*
X007118Y011010D01*
X007268Y011010D01*
X007193Y010912D02*
X007193Y010862D01*
X007118Y010862D02*
X007268Y010862D01*
X007268Y010815D02*
X007268Y010715D01*
X007118Y010715D01*
X007118Y010862D02*
X007118Y010962D01*
X007168Y011157D02*
X007118Y011207D01*
X007268Y011207D01*
X007268Y011157D02*
X007268Y011257D01*
X006901Y010910D02*
X006801Y010810D01*
X006826Y010785D01*
X006876Y010785D01*
X006901Y010810D01*
X006901Y010910D01*
X006876Y010935D01*
X006826Y010935D01*
X006801Y010910D01*
X006801Y010810D01*
X006753Y010810D02*
X006728Y010785D01*
X006678Y010785D01*
X006653Y010810D01*
X006753Y010910D01*
X006753Y010810D01*
X006653Y010810D02*
X006653Y010910D01*
X006678Y010935D01*
X006728Y010935D01*
X006753Y010910D01*
X006606Y010910D02*
X006606Y010885D01*
X006581Y010860D01*
X006606Y010835D01*
X006606Y010810D01*
X006581Y010785D01*
X006531Y010785D01*
X006506Y010810D01*
X006556Y010860D02*
X006581Y010860D01*
X006606Y010910D02*
X006581Y010935D01*
X006531Y010935D01*
X006506Y010910D01*
X005668Y011795D02*
X005608Y011795D01*
X005668Y011795D02*
X005698Y011825D01*
X005668Y011855D01*
X005608Y011855D01*
X005623Y011887D02*
X005683Y011887D01*
X005698Y011902D01*
X005698Y011932D01*
X005683Y011947D01*
X005683Y011979D02*
X005698Y011994D01*
X005698Y012024D01*
X005683Y012039D01*
X005683Y011979D02*
X005623Y011979D01*
X005608Y011994D01*
X005608Y012024D01*
X005623Y012039D01*
X005623Y011947D02*
X005608Y011932D01*
X005608Y011902D01*
X005623Y011887D01*
X004588Y011133D02*
X004438Y011133D01*
X004438Y011233D01*
X004513Y011183D02*
X004513Y011133D01*
X004488Y011086D02*
X004588Y011086D01*
X004588Y011011D01*
X004563Y010986D01*
X004488Y010986D01*
X004438Y010889D02*
X004588Y010889D01*
X004588Y010839D02*
X004588Y010939D01*
X004488Y010839D02*
X004438Y010889D01*
X004563Y010790D02*
X004588Y010790D01*
X004588Y010765D01*
X004563Y010765D01*
X004563Y010790D01*
X004418Y010250D02*
X004418Y010150D01*
X004568Y010150D01*
X004568Y010102D02*
X004468Y010102D01*
X004493Y010150D02*
X004493Y010200D01*
X004568Y010102D02*
X004568Y010027D01*
X004543Y010002D01*
X004468Y010002D01*
X004418Y009905D02*
X004568Y009905D01*
X004568Y009855D02*
X004568Y009955D01*
X004468Y009855D02*
X004418Y009905D01*
X004768Y008505D02*
X004743Y008480D01*
X004768Y008505D02*
X004818Y008505D01*
X004843Y008480D01*
X004843Y008455D01*
X004743Y008355D01*
X004843Y008355D01*
X004890Y008355D02*
X004990Y008455D01*
X004990Y008480D01*
X004965Y008505D01*
X004915Y008505D01*
X004890Y008480D01*
X004890Y008355D02*
X004990Y008355D01*
X004961Y007205D02*
X004911Y007205D01*
X004886Y007180D01*
X004838Y007180D02*
X004813Y007205D01*
X004763Y007205D01*
X004738Y007180D01*
X004838Y007180D02*
X004838Y007155D01*
X004738Y007055D01*
X004838Y007055D01*
X004886Y007055D02*
X004986Y007155D01*
X004986Y007180D01*
X004961Y007205D01*
X004986Y007055D02*
X004886Y007055D01*
X006266Y008785D02*
X006241Y008810D01*
X006266Y008785D02*
X006316Y008785D01*
X006341Y008810D01*
X006341Y008860D01*
X006316Y008885D01*
X006291Y008885D01*
X006241Y008860D01*
X006241Y008935D01*
X006341Y008935D01*
X006389Y008910D02*
X006414Y008935D01*
X006464Y008935D01*
X006489Y008910D01*
X006389Y008810D01*
X006414Y008785D01*
X006464Y008785D01*
X006489Y008810D01*
X006489Y008910D01*
X006536Y008910D02*
X006561Y008935D01*
X006611Y008935D01*
X006636Y008910D01*
X006536Y008810D01*
X006561Y008785D01*
X006611Y008785D01*
X006636Y008810D01*
X006636Y008910D01*
X006683Y008885D02*
X006708Y008885D01*
X006733Y008860D01*
X006758Y008885D01*
X006783Y008860D01*
X006783Y008785D01*
X006831Y008785D02*
X006831Y008885D01*
X006881Y008935D01*
X006931Y008885D01*
X006931Y008785D01*
X006931Y008860D02*
X006831Y008860D01*
X006733Y008860D02*
X006733Y008785D01*
X006683Y008785D02*
X006683Y008885D01*
X006536Y008910D02*
X006536Y008810D01*
X006389Y008810D02*
X006389Y008910D01*
X004907Y014625D02*
X004922Y014640D01*
X004922Y014700D01*
X004907Y014715D01*
X004862Y014715D01*
X004862Y014625D01*
X004907Y014625D01*
X004830Y014625D02*
X004830Y014715D01*
X004770Y014715D02*
X004770Y014625D01*
X004738Y014640D02*
X004738Y014670D01*
X004708Y014670D01*
X004738Y014640D02*
X004723Y014625D01*
X004693Y014625D01*
X004678Y014640D01*
X004678Y014700D01*
X004693Y014715D01*
X004723Y014715D01*
X004738Y014700D01*
X004770Y014715D02*
X004830Y014625D01*
X013168Y009280D02*
X013193Y009280D01*
X013193Y009255D01*
X013168Y009255D01*
X013168Y009280D01*
X013241Y009255D02*
X013342Y009255D01*
X013292Y009255D02*
X013292Y009405D01*
X013241Y009355D01*
X013389Y009355D02*
X013389Y009280D01*
X013414Y009255D01*
X013489Y009255D01*
X013489Y009355D01*
X013536Y009330D02*
X013586Y009330D01*
X013536Y009255D02*
X013536Y009405D01*
X013636Y009405D01*
X015419Y009080D02*
X015419Y009044D01*
X015438Y009025D01*
X015419Y009080D02*
X015438Y009099D01*
X015456Y009099D01*
X015529Y009025D01*
X015529Y009099D01*
X015529Y008988D02*
X015529Y008915D01*
X015529Y008951D02*
X015419Y008951D01*
X015456Y008915D01*
X015529Y008878D02*
X015529Y008804D01*
X015529Y008767D02*
X015456Y008767D01*
X015419Y008730D01*
X015456Y008694D01*
X015529Y008694D01*
X015511Y008657D02*
X015474Y008657D01*
X015474Y008620D01*
X015438Y008657D02*
X015419Y008638D01*
X015419Y008602D01*
X015438Y008583D01*
X015511Y008583D01*
X015529Y008602D01*
X015529Y008638D01*
X015511Y008657D01*
X015474Y008694D02*
X015474Y008767D01*
X015456Y008804D02*
X015419Y008841D01*
X015529Y008841D01*
X015474Y008546D02*
X015493Y008528D01*
X015493Y008473D01*
X015529Y008473D02*
X015419Y008473D01*
X015419Y008528D01*
X015438Y008546D01*
X015474Y008546D01*
X017458Y008573D02*
X017458Y008473D01*
X017608Y008473D01*
X017608Y008426D02*
X017508Y008426D01*
X017533Y008473D02*
X017533Y008523D01*
X017608Y008426D02*
X017608Y008351D01*
X017583Y008326D01*
X017508Y008326D01*
X017458Y008229D02*
X017608Y008229D01*
X017608Y008179D02*
X017608Y008279D01*
X017508Y008179D02*
X017458Y008229D01*
X017583Y008130D02*
X017608Y008130D01*
X017608Y008105D01*
X017583Y008105D01*
X017583Y008130D01*
X017986Y008315D02*
X018001Y008315D01*
X018001Y008330D01*
X017986Y008330D01*
X017986Y008315D01*
X018032Y008315D02*
X018092Y008315D01*
X018062Y008315D02*
X018062Y008405D01*
X018032Y008375D01*
X018124Y008375D02*
X018124Y008330D01*
X018139Y008315D01*
X018184Y008315D01*
X018184Y008375D01*
X018216Y008360D02*
X018246Y008360D01*
X018216Y008405D02*
X018276Y008405D01*
X018216Y008405D02*
X018216Y008315D01*
X017936Y009605D02*
X017936Y009755D01*
X018036Y009755D01*
X017986Y009680D02*
X017936Y009680D01*
X017889Y009705D02*
X017889Y009605D01*
X017814Y009605D01*
X017789Y009630D01*
X017789Y009705D01*
X017692Y009755D02*
X017692Y009605D01*
X017742Y009605D02*
X017641Y009605D01*
X017593Y009605D02*
X017568Y009605D01*
X017568Y009630D01*
X017593Y009630D01*
X017593Y009605D01*
X017641Y009705D02*
X017692Y009755D01*
X017136Y011505D02*
X017076Y011595D01*
X017044Y011595D02*
X017044Y011520D01*
X017029Y011505D01*
X016999Y011505D01*
X016984Y011520D01*
X016984Y011595D01*
X016952Y011595D02*
X016952Y011505D01*
X016892Y011505D02*
X016892Y011595D01*
X016922Y011565D01*
X016952Y011595D01*
X016860Y011550D02*
X016800Y011550D01*
X016767Y011505D02*
X016707Y011505D01*
X016737Y011505D02*
X016737Y011595D01*
X016707Y011565D01*
X016675Y011550D02*
X016630Y011550D01*
X016615Y011565D01*
X016615Y011580D01*
X016630Y011595D01*
X016660Y011595D01*
X016675Y011580D01*
X016675Y011520D01*
X016660Y011505D01*
X016630Y011505D01*
X016615Y011520D01*
X016583Y011520D02*
X016568Y011505D01*
X016538Y011505D01*
X016523Y011520D01*
X016491Y011505D02*
X016431Y011505D01*
X016461Y011505D02*
X016461Y011595D01*
X016431Y011565D01*
X016399Y011580D02*
X016384Y011595D01*
X016354Y011595D01*
X016339Y011580D01*
X016339Y011520D01*
X016354Y011505D01*
X016384Y011505D01*
X016399Y011520D01*
X016307Y011595D02*
X016247Y011595D01*
X016277Y011595D02*
X016277Y011505D01*
X016215Y011505D02*
X016155Y011505D01*
X016155Y011595D01*
X016523Y011580D02*
X016538Y011595D01*
X016568Y011595D01*
X016583Y011580D01*
X016583Y011565D01*
X016568Y011550D01*
X016583Y011535D01*
X016583Y011520D01*
X016568Y011550D02*
X016553Y011550D01*
X017076Y011505D02*
X017136Y011595D01*
X019688Y009630D02*
X019688Y009605D01*
X019713Y009605D01*
X019713Y009630D01*
X019688Y009630D01*
X019761Y009605D02*
X019862Y009605D01*
X019812Y009605D02*
X019812Y009755D01*
X019761Y009705D01*
X019909Y009705D02*
X019909Y009630D01*
X019934Y009605D01*
X020009Y009605D01*
X020009Y009705D01*
X020056Y009680D02*
X020106Y009680D01*
X020056Y009605D02*
X020056Y009755D01*
X020156Y009755D01*
X022475Y010493D02*
X022475Y010594D01*
X022525Y010644D01*
X022575Y010594D01*
X022575Y010493D01*
X022623Y010493D02*
X022698Y010493D01*
X022723Y010518D01*
X022723Y010619D01*
X022698Y010644D01*
X022623Y010644D01*
X022623Y010493D01*
X022575Y010568D02*
X022475Y010568D01*
X022770Y010518D02*
X022795Y010493D01*
X022845Y010493D01*
X022870Y010518D01*
X022870Y010568D01*
X022820Y010568D01*
X022770Y010518D02*
X022770Y010619D01*
X022795Y010644D01*
X022845Y010644D01*
X022870Y010619D01*
X022917Y010644D02*
X023017Y010644D01*
X023017Y010619D01*
X022917Y010518D01*
X022917Y010493D01*
X023065Y010518D02*
X023165Y010619D01*
X023165Y010518D01*
X023140Y010493D01*
X023090Y010493D01*
X023065Y010518D01*
X023065Y010619D01*
X023090Y010644D01*
X023140Y010644D01*
X023165Y010619D01*
X023212Y010568D02*
X023312Y010568D01*
X023359Y010568D02*
X023459Y010568D01*
X023507Y010493D02*
X023507Y010644D01*
X023557Y010594D01*
X023607Y010644D01*
X023607Y010493D01*
X023654Y010518D02*
X023679Y010493D01*
X023729Y010493D01*
X023754Y010518D01*
X023754Y010644D01*
X023801Y010644D02*
X023901Y010493D01*
X023801Y010493D02*
X023901Y010644D01*
X023654Y010644D02*
X023654Y010518D01*
X023287Y010493D02*
X023287Y010644D01*
X023212Y010568D01*
X024568Y011460D02*
X024568Y011535D01*
X024593Y011560D01*
X024643Y011560D01*
X024668Y011535D01*
X024668Y011460D01*
X024718Y011460D02*
X024568Y011460D01*
X024668Y011510D02*
X024718Y011560D01*
X024643Y011608D02*
X024643Y011708D01*
X024718Y011683D02*
X024568Y011683D01*
X024643Y011608D01*
X023790Y012805D02*
X023740Y012805D01*
X023715Y012830D01*
X023715Y012880D02*
X023765Y012905D01*
X023790Y012905D01*
X023815Y012880D01*
X023815Y012830D01*
X023790Y012805D01*
X023715Y012880D02*
X023715Y012955D01*
X023815Y012955D01*
X023668Y012930D02*
X023668Y012880D01*
X023643Y012855D01*
X023568Y012855D01*
X023618Y012855D02*
X023668Y012805D01*
X023568Y012805D02*
X023568Y012955D01*
X023643Y012955D01*
X023668Y012930D01*
X022365Y012955D02*
X022315Y012930D01*
X022265Y012880D01*
X022340Y012880D01*
X022365Y012855D01*
X022365Y012830D01*
X022340Y012805D01*
X022290Y012805D01*
X022265Y012830D01*
X022265Y012880D01*
X022218Y012880D02*
X022193Y012855D01*
X022118Y012855D01*
X022168Y012855D02*
X022218Y012805D01*
X022218Y012880D02*
X022218Y012930D01*
X022193Y012955D01*
X022118Y012955D01*
X022118Y012805D01*
X022664Y008615D02*
X022664Y008525D01*
X022634Y008525D02*
X022694Y008525D01*
X022726Y008540D02*
X022741Y008525D01*
X022786Y008525D01*
X022786Y008585D01*
X022818Y008570D02*
X022848Y008570D01*
X022818Y008525D02*
X022818Y008615D01*
X022878Y008615D01*
X022726Y008585D02*
X022726Y008540D01*
X022664Y008615D02*
X022634Y008585D01*
X022603Y008540D02*
X022603Y008525D01*
X022588Y008525D01*
X022588Y008540D01*
X022603Y008540D01*
X023588Y006795D02*
X023638Y006795D01*
X023663Y006770D01*
X023663Y006745D01*
X023638Y006720D01*
X023663Y006695D01*
X023663Y006670D01*
X023638Y006645D01*
X023588Y006645D01*
X023563Y006670D01*
X023613Y006720D02*
X023638Y006720D01*
X023710Y006670D02*
X023735Y006645D01*
X023785Y006645D01*
X023810Y006670D01*
X023810Y006695D01*
X023785Y006720D01*
X023760Y006720D01*
X023785Y006720D02*
X023810Y006745D01*
X023810Y006770D01*
X023785Y006795D01*
X023735Y006795D01*
X023710Y006770D01*
X023588Y006795D02*
X023563Y006770D01*
X023857Y006770D02*
X023857Y006670D01*
X023958Y006770D01*
X023958Y006670D01*
X023933Y006645D01*
X023883Y006645D01*
X023857Y006670D01*
X023857Y006770D02*
X023883Y006795D01*
X023933Y006795D01*
X023958Y006770D01*
X025283Y006797D02*
X025283Y006697D01*
X025358Y006697D01*
X025333Y006747D01*
X025333Y006772D01*
X025358Y006797D01*
X025408Y006797D01*
X025433Y006772D01*
X025433Y006722D01*
X025408Y006697D01*
X025408Y006650D02*
X025308Y006650D01*
X025283Y006625D01*
X025283Y006550D01*
X025433Y006550D01*
X025433Y006625D01*
X025408Y006650D01*
X025433Y006502D02*
X025433Y006402D01*
X025283Y006402D01*
X025283Y006502D01*
X025358Y006452D02*
X025358Y006402D01*
X025433Y006355D02*
X025433Y006255D01*
X025283Y006255D01*
X025993Y005633D02*
X026068Y005558D01*
X026068Y005658D01*
X026143Y005633D02*
X025993Y005633D01*
X026058Y005547D02*
X026083Y005547D01*
X026108Y005522D01*
X026108Y005472D01*
X026083Y005447D01*
X026058Y005447D01*
X026033Y005472D01*
X026033Y005522D01*
X026058Y005547D01*
X026018Y005510D02*
X025993Y005485D01*
X025993Y005410D01*
X026143Y005410D01*
X026143Y005485D01*
X026118Y005510D01*
X026018Y005510D01*
X026108Y005522D02*
X026133Y005547D01*
X026158Y005547D01*
X026183Y005522D01*
X026183Y005472D01*
X026158Y005447D01*
X026133Y005447D01*
X026108Y005472D01*
X026158Y005400D02*
X026058Y005400D01*
X026033Y005375D01*
X026033Y005300D01*
X026183Y005300D01*
X026183Y005375D01*
X026158Y005400D01*
X026143Y005363D02*
X026143Y005263D01*
X025993Y005263D01*
X025993Y005363D01*
X026068Y005313D02*
X026068Y005263D01*
X026033Y005252D02*
X026033Y005152D01*
X026183Y005152D01*
X026183Y005252D01*
X026143Y005216D02*
X026143Y005116D01*
X025993Y005116D01*
X026033Y005005D02*
X026183Y005005D01*
X026183Y005105D01*
X026108Y005152D02*
X026108Y005202D01*
X026783Y006255D02*
X026933Y006255D01*
X026933Y006355D01*
X026933Y006402D02*
X026933Y006502D01*
X026933Y006550D02*
X026933Y006625D01*
X026908Y006650D01*
X026808Y006650D01*
X026783Y006625D01*
X026783Y006550D01*
X026933Y006550D01*
X026858Y006452D02*
X026858Y006402D01*
X026783Y006402D02*
X026933Y006402D01*
X026783Y006402D02*
X026783Y006502D01*
X026858Y006697D02*
X026858Y006772D01*
X026883Y006797D01*
X026908Y006797D01*
X026933Y006772D01*
X026933Y006722D01*
X026908Y006697D01*
X026858Y006697D01*
X026808Y006747D01*
X026783Y006797D01*
X027493Y005658D02*
X027518Y005658D01*
X027618Y005558D01*
X027643Y005558D01*
X027618Y005510D02*
X027643Y005485D01*
X027643Y005410D01*
X027493Y005410D01*
X027493Y005485D01*
X027518Y005510D01*
X027618Y005510D01*
X027493Y005558D02*
X027493Y005658D01*
X027493Y005363D02*
X027493Y005263D01*
X027643Y005263D01*
X027643Y005363D01*
X027568Y005313D02*
X027568Y005263D01*
X027643Y005216D02*
X027643Y005116D01*
X027493Y005116D01*
X024683Y005105D02*
X024683Y005005D01*
X024533Y005005D01*
X024533Y005152D02*
X024683Y005152D01*
X024683Y005252D01*
X024683Y005300D02*
X024683Y005375D01*
X024658Y005400D01*
X024558Y005400D01*
X024533Y005375D01*
X024533Y005300D01*
X024683Y005300D01*
X024608Y005202D02*
X024608Y005152D01*
X024533Y005152D02*
X024533Y005252D01*
X024558Y005447D02*
X024533Y005472D01*
X024533Y005522D01*
X024558Y005547D01*
X024583Y005547D01*
X024608Y005522D01*
X024633Y005547D01*
X024658Y005547D01*
X024683Y005522D01*
X024683Y005472D01*
X024658Y005447D01*
X024608Y005497D02*
X024608Y005522D01*
X024186Y004315D02*
X024086Y004315D01*
X024086Y004165D01*
X024039Y004165D02*
X024039Y004265D01*
X024086Y004240D02*
X024136Y004240D01*
X024039Y004165D02*
X023964Y004165D01*
X023939Y004190D01*
X023939Y004265D01*
X023842Y004315D02*
X023842Y004165D01*
X023892Y004165D02*
X023791Y004165D01*
X023743Y004165D02*
X023718Y004165D01*
X023718Y004190D01*
X023743Y004190D01*
X023743Y004165D01*
X023791Y004265D02*
X023842Y004315D01*
X022358Y001473D02*
X022358Y001373D01*
X022508Y001373D01*
X022483Y001325D02*
X022508Y001300D01*
X022508Y001225D01*
X022508Y001178D02*
X022508Y001078D01*
X022408Y001178D01*
X022383Y001178D01*
X022358Y001153D01*
X022358Y001103D01*
X022383Y001078D01*
X022383Y001031D02*
X022358Y001006D01*
X022358Y000956D01*
X022383Y000931D01*
X022383Y001031D02*
X022408Y001031D01*
X022508Y000931D01*
X022508Y001031D01*
X022558Y001225D02*
X022408Y001225D01*
X022408Y001300D01*
X022433Y001325D01*
X022483Y001325D01*
X022433Y001373D02*
X022433Y001423D01*
X020107Y000555D02*
X020007Y000455D01*
X020107Y000455D01*
X020107Y000555D02*
X020007Y000555D01*
X019960Y000530D02*
X019860Y000530D01*
X019860Y000455D02*
X019860Y000605D01*
X019813Y000605D02*
X019813Y000455D01*
X019712Y000455D02*
X019712Y000605D01*
X019763Y000555D01*
X019813Y000605D01*
X019960Y000605D02*
X019960Y000455D01*
X019665Y000480D02*
X019665Y000505D01*
X019640Y000530D01*
X019565Y000530D01*
X019565Y000480D01*
X019590Y000455D01*
X019640Y000455D01*
X019665Y000480D01*
X019615Y000580D02*
X019565Y000530D01*
X019615Y000580D02*
X019665Y000605D01*
X019468Y000605D02*
X019468Y000455D01*
X019418Y000455D02*
X019518Y000455D01*
X019418Y000555D02*
X019468Y000605D01*
X018518Y000691D02*
X018418Y000791D01*
X018393Y000791D01*
X018368Y000766D01*
X018368Y000716D01*
X018393Y000691D01*
X018518Y000691D02*
X018518Y000791D01*
X018518Y000838D02*
X018418Y000938D01*
X018393Y000938D01*
X018368Y000913D01*
X018368Y000863D01*
X018393Y000838D01*
X018518Y000838D02*
X018518Y000938D01*
X018518Y000985D02*
X018518Y001060D01*
X018493Y001085D01*
X018443Y001085D01*
X018418Y001060D01*
X018418Y000985D01*
X018568Y000985D01*
X018518Y001133D02*
X018368Y001133D01*
X018368Y001233D01*
X018443Y001183D02*
X018443Y001133D01*
X017121Y004745D02*
X017121Y004895D01*
X017221Y004895D01*
X017171Y004820D02*
X017121Y004820D01*
X017073Y004845D02*
X017073Y004745D01*
X016998Y004745D01*
X016973Y004770D01*
X016973Y004845D01*
X016876Y004895D02*
X016876Y004745D01*
X016826Y004745D02*
X016926Y004745D01*
X016826Y004845D02*
X016876Y004895D01*
X014771Y002770D02*
X014771Y002745D01*
X014746Y002720D01*
X014696Y002720D01*
X014671Y002745D01*
X014671Y002770D01*
X014696Y002795D01*
X014746Y002795D01*
X014771Y002770D01*
X014746Y002720D02*
X014771Y002695D01*
X014771Y002670D01*
X014746Y002645D01*
X014696Y002645D01*
X014671Y002670D01*
X014671Y002695D01*
X014696Y002720D01*
X014623Y002720D02*
X014598Y002695D01*
X014523Y002695D01*
X014523Y002645D02*
X014523Y002795D01*
X014598Y002795D01*
X014623Y002770D01*
X014623Y002720D01*
X014573Y002695D02*
X014623Y002645D01*
D14*
X018777Y006675D02*
X018779Y006695D01*
X018784Y006715D01*
X018794Y006733D01*
X018806Y006750D01*
X018821Y006764D01*
X018839Y006774D01*
X018858Y006782D01*
X018878Y006786D01*
X018898Y006786D01*
X018918Y006782D01*
X018937Y006774D01*
X018955Y006764D01*
X018970Y006750D01*
X018982Y006733D01*
X018992Y006715D01*
X018997Y006695D01*
X018999Y006675D01*
X018997Y006655D01*
X018992Y006635D01*
X018982Y006617D01*
X018970Y006600D01*
X018955Y006586D01*
X018937Y006576D01*
X018918Y006568D01*
X018898Y006564D01*
X018878Y006564D01*
X018858Y006568D01*
X018839Y006576D01*
X018821Y006586D01*
X018806Y006600D01*
X018794Y006617D01*
X018784Y006635D01*
X018779Y006655D01*
X018777Y006675D01*
D15*
X023983Y006340D03*
X023993Y005740D03*
X023963Y005080D03*
X005163Y007500D03*
X005163Y008100D03*
D16*
X005362Y003602D02*
X005592Y003602D01*
X005669Y003525D01*
X005669Y003372D01*
X005592Y003295D01*
X005362Y003295D01*
X005362Y003142D02*
X005362Y003602D01*
X005515Y003295D02*
X005669Y003142D01*
X005822Y003142D02*
X006129Y003142D01*
X006283Y003218D02*
X006359Y003142D01*
X006513Y003142D01*
X006590Y003218D01*
X006590Y003295D01*
X006513Y003372D01*
X006359Y003372D01*
X006283Y003449D01*
X006283Y003525D01*
X006359Y003602D01*
X006513Y003602D01*
X006590Y003525D01*
X006743Y003602D02*
X006743Y003142D01*
X007050Y003142D01*
X006897Y003372D02*
X006743Y003372D01*
X006743Y003602D02*
X007050Y003602D01*
X007204Y003602D02*
X007510Y003602D01*
X007357Y003602D02*
X007357Y003142D01*
X006129Y003602D02*
X005822Y003602D01*
X005822Y003142D01*
X005822Y003372D02*
X005976Y003372D01*
D17*
X005263Y009988D02*
X005263Y010012D01*
X005263Y010888D02*
X005263Y010912D01*
X013563Y009712D02*
X013563Y009688D01*
X017151Y008000D02*
X017175Y008000D01*
X017463Y009288D02*
X017463Y009312D01*
X018513Y008012D02*
X018513Y007988D01*
X020083Y010038D02*
X020083Y010062D01*
X022363Y008212D02*
X022363Y008188D01*
X023651Y003500D02*
X023675Y003500D01*
X017113Y005188D02*
X017113Y005212D01*
D18*
X018801Y001250D02*
X018825Y001250D01*
X022051Y001500D02*
X022075Y001500D01*
D19*
X024263Y011400D03*
X006913Y010100D03*
D20*
X023638Y015197D02*
X023699Y015135D01*
X023761Y015135D01*
X023823Y015197D01*
X023823Y015320D01*
X023884Y015382D01*
X023946Y015382D01*
X024008Y015320D01*
X024008Y015197D01*
X023946Y015135D01*
X023638Y015197D02*
X023638Y015320D01*
X023699Y015382D01*
X023638Y015503D02*
X023638Y015750D01*
X023699Y015750D01*
X023946Y015503D01*
X024008Y015503D01*
X026031Y014804D02*
X026031Y014742D01*
X026093Y014680D01*
X026216Y014680D01*
X026278Y014618D01*
X026278Y014557D01*
X026216Y014495D01*
X026093Y014495D01*
X026031Y014557D01*
X026031Y014804D02*
X026093Y014865D01*
X026216Y014865D01*
X026278Y014804D01*
X026400Y014804D02*
X026400Y014742D01*
X026461Y014680D01*
X026585Y014680D01*
X026646Y014618D01*
X026646Y014557D01*
X026585Y014495D01*
X026461Y014495D01*
X026400Y014557D01*
X026400Y014618D01*
X026461Y014680D01*
X026585Y014680D02*
X026646Y014742D01*
X026646Y014804D01*
X026585Y014865D01*
X026461Y014865D01*
X026400Y014804D01*
D21*
X023913Y012500D03*
X022463Y012500D03*
X014463Y003100D03*
M02*
