G75*
G70*
%OFA0B0*%
%FSLAX24Y24*%
%IPPOS*%
%LPD*%
%AMOC8*
5,1,8,0,0,1.08239X$1,22.5*
%
%ADD10R,0.0591X0.0197*%
%ADD11R,0.0197X0.0591*%
%ADD12R,0.0276X0.0354*%
%ADD13R,0.0984X0.0197*%
%ADD14R,0.0984X0.0787*%
%ADD15R,0.0394X0.0709*%
%ADD16OC8,0.0610*%
%ADD17C,0.0083*%
%ADD18R,0.0433X0.0394*%
%ADD19R,0.0394X0.0433*%
%ADD20R,0.0748X0.0433*%
%ADD21R,0.0354X0.0276*%
%ADD22R,0.0315X0.0315*%
%ADD23C,0.0050*%
%ADD24C,0.1266*%
%ADD25R,0.1760X0.2960*%
%ADD26R,0.0236X0.0866*%
%ADD27R,0.0118X0.0394*%
%ADD28R,0.0394X0.0118*%
%ADD29C,0.0080*%
%ADD30R,0.0250X0.0500*%
%ADD31R,0.0500X0.0250*%
%ADD32OC8,0.0700*%
%ADD33C,0.0600*%
%ADD34C,0.0100*%
%ADD35C,0.0160*%
%ADD36C,0.0120*%
%ADD37C,0.0357*%
D10*
X018179Y003605D03*
X018179Y003920D03*
X018179Y004235D03*
X018179Y004550D03*
X018179Y004865D03*
X018179Y005180D03*
X018179Y005495D03*
X018179Y005810D03*
X018179Y006125D03*
X018179Y006440D03*
X018179Y006755D03*
X022746Y006755D03*
X022746Y006440D03*
X022746Y006125D03*
X022746Y005810D03*
X022746Y005495D03*
X022746Y005180D03*
X022746Y004865D03*
X022746Y004550D03*
X022746Y004235D03*
X022746Y003920D03*
X022746Y003605D03*
D11*
X022038Y002897D03*
X021723Y002897D03*
X021408Y002897D03*
X021093Y002897D03*
X020778Y002897D03*
X020463Y002897D03*
X020148Y002897D03*
X019833Y002897D03*
X019518Y002897D03*
X019203Y002897D03*
X018888Y002897D03*
X018888Y007463D03*
X019203Y007463D03*
X019518Y007463D03*
X019833Y007463D03*
X020148Y007463D03*
X020463Y007463D03*
X020778Y007463D03*
X021093Y007463D03*
X021408Y007463D03*
X021723Y007463D03*
X022038Y007463D03*
D12*
X023727Y006420D03*
X024239Y006420D03*
X024249Y005820D03*
X023737Y005820D03*
X023707Y005160D03*
X024219Y005160D03*
X005419Y007580D03*
X004907Y007580D03*
X004907Y008180D03*
X005419Y008180D03*
D13*
X003447Y008310D03*
X003447Y007995D03*
X003447Y007680D03*
X003447Y007365D03*
X003447Y007050D03*
D14*
X003447Y005908D03*
X001282Y005908D03*
X001282Y009452D03*
X003447Y009452D03*
D15*
X004812Y009180D03*
X005914Y009180D03*
D16*
X010463Y007680D03*
X011463Y007680D03*
X011463Y006680D03*
X011463Y005680D03*
X010463Y005680D03*
X010463Y006680D03*
D17*
X008390Y006300D02*
X007842Y006300D01*
X008390Y006300D02*
X008390Y005832D01*
X007842Y005832D01*
X007842Y006300D01*
X007842Y005914D02*
X008390Y005914D01*
X008390Y005996D02*
X007842Y005996D01*
X007842Y006078D02*
X008390Y006078D01*
X008390Y006160D02*
X007842Y006160D01*
X007842Y006242D02*
X008390Y006242D01*
X008390Y005414D02*
X007842Y005414D01*
X008390Y005414D02*
X008390Y004946D01*
X007842Y004946D01*
X007842Y005414D01*
X007842Y005028D02*
X008390Y005028D01*
X008390Y005110D02*
X007842Y005110D01*
X007842Y005192D02*
X008390Y005192D01*
X008390Y005274D02*
X007842Y005274D01*
X007842Y005356D02*
X008390Y005356D01*
X008390Y004528D02*
X007842Y004528D01*
X008390Y004528D02*
X008390Y004060D01*
X007842Y004060D01*
X007842Y004528D01*
X007842Y004142D02*
X008390Y004142D01*
X008390Y004224D02*
X007842Y004224D01*
X007842Y004306D02*
X008390Y004306D01*
X008390Y004388D02*
X007842Y004388D01*
X007842Y004470D02*
X008390Y004470D01*
X005083Y004528D02*
X004535Y004528D01*
X005083Y004528D02*
X005083Y004060D01*
X004535Y004060D01*
X004535Y004528D01*
X004535Y004142D02*
X005083Y004142D01*
X005083Y004224D02*
X004535Y004224D01*
X004535Y004306D02*
X005083Y004306D01*
X005083Y004388D02*
X004535Y004388D01*
X004535Y004470D02*
X005083Y004470D01*
X005083Y006300D02*
X004535Y006300D01*
X005083Y006300D02*
X005083Y005832D01*
X004535Y005832D01*
X004535Y006300D01*
X004535Y005914D02*
X005083Y005914D01*
X005083Y005996D02*
X004535Y005996D01*
X004535Y006078D02*
X005083Y006078D01*
X005083Y006160D02*
X004535Y006160D01*
X004535Y006242D02*
X005083Y006242D01*
D18*
X004928Y010080D03*
X005597Y010080D03*
X005597Y010980D03*
X004928Y010980D03*
X013228Y009780D03*
X013897Y009780D03*
X017128Y009380D03*
X017797Y009380D03*
X018098Y008230D03*
X018767Y008230D03*
X019678Y010080D03*
X020347Y010080D03*
X022028Y008280D03*
X022697Y008280D03*
X022797Y012580D03*
X022128Y012580D03*
X023578Y012580D03*
X024247Y012580D03*
X017447Y005280D03*
X016778Y005280D03*
X014797Y003180D03*
X014128Y003180D03*
D19*
X017183Y006905D03*
X017183Y007575D03*
X023663Y003915D03*
X023663Y003245D03*
X024263Y011145D03*
X024263Y011815D03*
X006913Y010515D03*
X006913Y009845D03*
D20*
X019684Y001983D03*
X019684Y001077D03*
X021141Y001077D03*
X021141Y001983D03*
D21*
X022063Y001836D03*
X022063Y001324D03*
X018813Y001074D03*
X018813Y001586D03*
D22*
X024963Y005135D03*
X024963Y005725D03*
X025713Y005725D03*
X025713Y005135D03*
X026463Y005135D03*
X026463Y005725D03*
X025713Y006385D03*
X025713Y006975D03*
X027213Y006975D03*
X027213Y006385D03*
X027213Y005725D03*
X027213Y005135D03*
X007563Y009785D03*
X007563Y010375D03*
D23*
X008063Y015180D02*
X008063Y018170D01*
X009853Y018170D01*
X009853Y015180D01*
X008073Y015180D01*
X006353Y015180D02*
X004573Y015180D01*
X004563Y015180D02*
X004563Y018170D01*
X006353Y018170D01*
X006353Y015180D01*
X002853Y015180D02*
X001073Y015180D01*
X001063Y015180D02*
X001063Y018170D01*
X002853Y018170D01*
X002853Y015180D01*
X011563Y015180D02*
X011563Y018170D01*
X013353Y018170D01*
X013353Y015180D01*
X011573Y015180D01*
X014813Y015180D02*
X014813Y018170D01*
X016603Y018170D01*
X016603Y015180D01*
X014823Y015180D01*
X018063Y015180D02*
X018063Y018170D01*
X019853Y018170D01*
X019853Y015180D01*
X018073Y015180D01*
X021563Y015180D02*
X021563Y018170D01*
X023353Y018170D01*
X023353Y015180D01*
X021573Y015180D01*
X025063Y015180D02*
X025063Y018170D01*
X026853Y018170D01*
X026853Y015180D01*
X025073Y015180D01*
D24*
X025943Y015980D03*
X025973Y017340D03*
X022473Y017340D03*
X022443Y015980D03*
X018943Y015980D03*
X018973Y017340D03*
X015723Y017340D03*
X015693Y015980D03*
X012443Y015980D03*
X012473Y017340D03*
X008973Y017340D03*
X008943Y015980D03*
X005443Y015980D03*
X005473Y017340D03*
X001973Y017340D03*
X001943Y015980D03*
D25*
X001963Y016680D03*
X005463Y016680D03*
X008963Y016680D03*
X012463Y016680D03*
X015713Y016680D03*
X018963Y016680D03*
X022463Y016680D03*
X025963Y016680D03*
D26*
X019713Y013054D03*
X019213Y013054D03*
X018713Y013054D03*
X018213Y013054D03*
X017713Y013054D03*
X017213Y013054D03*
X016713Y013054D03*
X016213Y013054D03*
X016213Y011006D03*
X016713Y011006D03*
X017213Y011006D03*
X017713Y011006D03*
X018213Y011006D03*
X018713Y011006D03*
X019213Y011006D03*
X019713Y011006D03*
X013213Y010656D03*
X012713Y010656D03*
X012213Y010656D03*
X011713Y010656D03*
X011213Y010656D03*
X010713Y010656D03*
X010213Y010656D03*
X009713Y010656D03*
X009713Y012704D03*
X010213Y012704D03*
X010713Y012704D03*
X011213Y012704D03*
X011713Y012704D03*
X012213Y012704D03*
X012713Y012704D03*
X013213Y012704D03*
D27*
X015819Y009916D03*
X016016Y009916D03*
X016213Y009916D03*
X016410Y009916D03*
X016607Y009916D03*
X016607Y008144D03*
X016410Y008144D03*
X016213Y008144D03*
X016016Y008144D03*
X015819Y008144D03*
D28*
X021577Y011086D03*
X021577Y011283D03*
X021577Y011480D03*
X021577Y011677D03*
X021577Y011874D03*
X023349Y011874D03*
X023349Y011677D03*
X023349Y011480D03*
X023349Y011283D03*
X023349Y011086D03*
D29*
X007363Y012930D02*
X007063Y012930D01*
X007063Y014180D02*
X007363Y014180D01*
D30*
X007413Y014180D03*
X007013Y014180D03*
X007013Y012930D03*
X007413Y012930D03*
X005140Y014180D03*
X004786Y014180D03*
D31*
X006213Y012357D03*
X006213Y012003D03*
D32*
X027213Y011680D03*
X027213Y010680D03*
X027213Y009680D03*
X027213Y008680D03*
X027213Y012680D03*
X027213Y013680D03*
D33*
X002423Y012640D02*
X001823Y012640D01*
X001823Y011640D02*
X002423Y011640D01*
D34*
X002143Y012640D02*
X002823Y012820D01*
X004143Y012360D01*
X005123Y011520D01*
X006153Y011520D01*
X006213Y011460D01*
X006213Y012003D01*
X006213Y012357D02*
X006213Y012930D01*
X007013Y012930D01*
X007413Y012930D02*
X009713Y012930D01*
X009713Y012704D01*
X009713Y012430D01*
X008963Y011680D01*
X009823Y011860D02*
X010213Y012180D01*
X010213Y012704D01*
X010213Y013530D01*
X010063Y013680D01*
X009463Y013680D01*
X008903Y014180D01*
X007463Y014180D01*
X007013Y014180D02*
X006463Y014180D01*
X005140Y014180D01*
X005463Y015180D02*
X005463Y015960D01*
X005443Y015980D01*
X005463Y015180D02*
X006463Y014180D01*
X006213Y012930D02*
X004463Y012930D01*
X001413Y015980D01*
X001943Y015980D01*
X002123Y012640D02*
X002143Y012640D01*
X004963Y011045D02*
X004963Y010180D01*
X004963Y009331D01*
X004812Y009180D01*
X004763Y009131D01*
X004763Y008980D01*
X004093Y008310D01*
X003447Y008310D01*
X003447Y007995D02*
X004278Y007995D01*
X004463Y008180D01*
X004907Y008180D01*
X004807Y007680D02*
X004907Y007580D01*
X004807Y007680D02*
X003447Y007680D01*
X005419Y007580D02*
X007663Y007580D01*
X007763Y007680D01*
X006963Y008180D02*
X005419Y008180D01*
X005914Y009180D02*
X005914Y009381D01*
X006213Y009680D01*
X006213Y011460D01*
X004963Y011045D02*
X004928Y010980D01*
X004963Y010180D02*
X004928Y010145D01*
X004928Y010080D01*
X007393Y009180D02*
X007533Y009320D01*
X007533Y009755D01*
X009713Y008930D02*
X010213Y009430D01*
X010213Y010656D01*
X010233Y010676D01*
X010233Y011330D01*
X010863Y011960D01*
X011653Y011960D01*
X011963Y011650D01*
X013773Y011650D01*
X015013Y010410D01*
X015293Y010410D01*
X015713Y010830D01*
X015713Y011430D01*
X015963Y011680D01*
X016463Y011680D01*
X016713Y011430D01*
X016713Y011006D01*
X017213Y011006D02*
X017213Y011780D01*
X017713Y011780D02*
X017713Y011630D01*
X017713Y011006D01*
X017743Y010280D02*
X016723Y010280D01*
X016450Y010277D01*
X016410Y009916D01*
X016413Y009913D01*
X016413Y009580D01*
X016013Y009180D01*
X014963Y009180D01*
X014613Y009530D01*
X014613Y010280D01*
X013563Y011330D01*
X012913Y011330D01*
X012713Y011130D01*
X012713Y010656D01*
X013213Y010656D02*
X013213Y010330D01*
X013213Y010345D02*
X013228Y009780D01*
X011963Y009680D02*
X011713Y009930D01*
X011713Y010656D01*
X011213Y010656D02*
X011213Y009680D01*
X011963Y008930D01*
X015963Y008930D01*
X016213Y008680D01*
X016213Y008144D01*
X016213Y007530D01*
X016503Y007200D01*
X016463Y007200D01*
X016847Y006955D02*
X016983Y006820D01*
X017097Y006820D01*
X017183Y006905D02*
X017318Y006770D01*
X017703Y007231D02*
X017703Y007940D01*
X017499Y008144D01*
X016607Y008144D01*
X016413Y008147D02*
X016410Y008144D01*
X016410Y007733D01*
X016463Y007680D01*
X016847Y007680D01*
X016847Y006955D01*
X016783Y006260D02*
X017013Y006130D01*
X018174Y006130D01*
X018179Y006125D01*
X018179Y005810D02*
X016633Y005810D01*
X016613Y005830D01*
X015083Y007370D01*
X014783Y007580D01*
X014213Y007430D02*
X014213Y008180D01*
X014713Y008680D01*
X015203Y008720D01*
X015996Y008597D01*
X016016Y008144D01*
X016413Y008147D02*
X016413Y008880D01*
X016913Y009380D01*
X017128Y009380D01*
X017133Y009670D01*
X016901Y009902D01*
X016607Y009902D01*
X016607Y009916D01*
X016413Y009919D02*
X016410Y009916D01*
X015819Y009916D02*
X015783Y009880D01*
X015263Y009880D01*
X015153Y011240D02*
X015313Y011950D01*
X015313Y012630D01*
X015963Y013180D01*
X016086Y013180D01*
X016213Y013054D01*
X016713Y013054D02*
X016593Y012490D01*
X016243Y012390D01*
X015713Y012390D01*
X015163Y013180D02*
X014763Y012780D01*
X015163Y013180D02*
X015663Y013680D01*
X016963Y013680D01*
X017213Y013430D01*
X017213Y013054D01*
X017713Y013054D02*
X017713Y013680D01*
X017613Y013780D01*
X017563Y013780D01*
X018213Y013930D02*
X017213Y014930D01*
X017213Y015440D01*
X016863Y015790D01*
X016133Y015790D01*
X015693Y015980D01*
X015213Y015250D01*
X015213Y015180D01*
X014713Y014680D01*
X014563Y014530D01*
X012413Y014530D01*
X011713Y013980D01*
X011713Y012704D01*
X012213Y012704D02*
X012213Y013730D01*
X012563Y014080D01*
X013913Y014080D01*
X014663Y014080D01*
X015263Y014680D01*
X016463Y014680D01*
X015613Y014330D02*
X014036Y012704D01*
X013213Y012704D01*
X012713Y012704D02*
X012713Y012130D01*
X012863Y011980D01*
X014673Y011980D01*
X011503Y011420D02*
X010713Y011280D01*
X010713Y010656D01*
X009713Y008930D02*
X009713Y006930D01*
X009963Y006680D01*
X010463Y006680D01*
X010963Y007180D01*
X012963Y007180D01*
X013213Y007430D01*
X014213Y007430D01*
X015213Y006430D01*
X015213Y006030D01*
X017008Y004235D01*
X018179Y004235D01*
X018170Y003930D02*
X018179Y003920D01*
X018170Y003930D02*
X016713Y003930D01*
X013963Y006680D01*
X011463Y006680D01*
X010963Y006180D02*
X010463Y005680D01*
X010963Y006180D02*
X013863Y006180D01*
X016438Y003605D01*
X018179Y003605D01*
X019203Y002897D02*
X019203Y002896D01*
X019203Y002420D01*
X019063Y002280D01*
X017213Y002280D01*
X016563Y002930D01*
X016013Y003480D01*
X015713Y003180D01*
X014797Y003180D01*
X014128Y003180D02*
X013656Y003652D01*
X012640Y003652D01*
X012313Y003980D01*
X012313Y004037D01*
X013229Y005414D02*
X014079Y005414D01*
X015840Y003652D01*
X016013Y003480D01*
X017547Y005180D02*
X017447Y005280D01*
X017547Y005180D02*
X018179Y005180D01*
X018164Y005480D02*
X018179Y005495D01*
X018453Y006430D02*
X018463Y006440D01*
X018179Y006440D01*
X016783Y006260D02*
X014913Y008210D01*
X012963Y005680D02*
X013229Y005414D01*
X011463Y005680D02*
X010783Y005030D01*
X009063Y004430D02*
X008927Y004294D01*
X008116Y004294D01*
X004809Y004294D01*
X010713Y012704D02*
X010713Y013780D01*
X010313Y014180D01*
X009963Y014180D01*
X008963Y015180D01*
X008943Y015980D01*
X011003Y014730D02*
X012453Y016140D01*
X012443Y015980D02*
X012463Y017180D01*
X011003Y014730D02*
X011213Y013880D01*
X011213Y012704D01*
X017743Y010280D02*
X018223Y010030D01*
X018767Y009659D02*
X019678Y010080D01*
X019713Y010115D01*
X019713Y011006D01*
X019713Y011750D01*
X020363Y012400D01*
X021343Y012400D01*
X021577Y012166D01*
X021577Y011874D01*
X021574Y011680D02*
X021577Y011677D01*
X022060Y011677D01*
X022163Y011780D01*
X022163Y012545D01*
X022128Y012580D01*
X022797Y012580D02*
X022797Y011965D01*
X022113Y011280D01*
X021580Y011280D01*
X021577Y011283D01*
X021577Y011086D02*
X021163Y010816D01*
X020963Y010680D01*
X020963Y009980D01*
X020778Y009487D01*
X020778Y007463D01*
X021093Y007463D02*
X021093Y009310D01*
X021963Y010180D01*
X022963Y010180D01*
X023463Y010680D01*
X023463Y010972D01*
X023349Y011086D01*
X023342Y011080D01*
X023349Y011283D02*
X023860Y011283D01*
X024013Y011130D01*
X024247Y011130D01*
X024263Y011145D01*
X024228Y011780D02*
X024013Y011780D01*
X023910Y011677D01*
X023349Y011677D01*
X023349Y011874D02*
X023017Y011874D01*
X022773Y011630D01*
X022773Y011380D01*
X022543Y011150D01*
X021577Y011480D02*
X021023Y011480D01*
X020763Y011220D01*
X020653Y011220D01*
X021013Y011780D02*
X021143Y011690D01*
X021574Y011680D01*
X021013Y011780D02*
X020713Y011930D01*
X020336Y013054D02*
X019713Y013054D01*
X019213Y013054D02*
X019213Y012680D01*
X018863Y012330D01*
X018753Y012220D01*
X018353Y012220D01*
X018213Y013054D02*
X018213Y013930D01*
X018713Y013054D02*
X018713Y015750D01*
X018943Y015980D01*
X019713Y014430D02*
X020893Y014430D01*
X022443Y015980D01*
X022463Y015680D01*
X021463Y014180D02*
X024213Y014180D01*
X026163Y016130D01*
X026163Y016480D01*
X025943Y015980D01*
X024247Y012580D02*
X024263Y012565D01*
X024263Y011815D01*
X024228Y011780D01*
X023578Y012580D02*
X022797Y012580D01*
X021463Y014180D02*
X020336Y013054D01*
X019213Y013054D02*
X019213Y013930D01*
X019713Y014430D01*
X019283Y011830D02*
X019223Y011770D01*
X019223Y011730D01*
X019213Y011720D01*
X019213Y011006D01*
X018767Y009659D02*
X018767Y008230D01*
X018888Y008109D01*
X019463Y008680D02*
X019373Y008790D01*
X019463Y008680D02*
X019833Y008310D01*
X019833Y007463D01*
X019813Y007443D01*
X020463Y007463D02*
X020463Y008430D01*
X021408Y008305D02*
X021413Y008310D01*
X021413Y008720D01*
X021873Y009140D01*
X022038Y008289D02*
X022038Y008180D01*
X022028Y008189D01*
X022028Y008280D01*
X022038Y008180D02*
X022038Y007463D01*
X021763Y007504D02*
X021723Y007463D01*
X021408Y007463D02*
X021408Y008305D01*
X022746Y006125D02*
X023198Y006125D01*
X023483Y006410D01*
X023717Y006410D01*
X023727Y006420D01*
X024239Y006420D02*
X024653Y006430D01*
X024963Y006740D01*
X024963Y007120D01*
X025253Y007410D01*
X026778Y007410D01*
X027213Y006975D01*
X027713Y006680D01*
X027713Y005930D01*
X027213Y005725D01*
X026463Y005725D01*
X026463Y005135D02*
X025713Y005135D01*
X024963Y005135D01*
X024219Y005160D01*
X023707Y005160D02*
X022746Y005180D01*
X022746Y005495D02*
X023293Y005490D01*
X023737Y005820D01*
X024249Y005820D02*
X024963Y005725D01*
X025713Y005725D01*
X026413Y006340D01*
X026467Y006343D01*
X026263Y006980D01*
X025713Y006975D01*
X025713Y006385D02*
X024963Y006740D01*
X026467Y006343D02*
X027213Y006385D01*
X027213Y005135D02*
X026463Y005135D01*
X023663Y003915D02*
X023657Y003920D01*
X022746Y003920D01*
X022746Y004235D02*
X022368Y004235D01*
X022023Y004650D01*
X021603Y005250D02*
X021893Y005450D01*
X022003Y005610D01*
X022203Y005790D01*
X022746Y005810D01*
X022746Y005810D01*
X020793Y005340D02*
X020623Y005340D01*
X020103Y004370D02*
X021033Y003600D01*
X021093Y002897D01*
X021408Y002897D02*
X021348Y003635D01*
X020833Y004230D01*
X020603Y003690D02*
X020233Y003690D01*
X020213Y003670D01*
X020213Y003680D01*
X020073Y003820D01*
X020603Y003690D02*
X020778Y003515D01*
X020778Y002897D01*
X020513Y002847D02*
X020463Y002897D01*
X020513Y002847D02*
X020513Y002380D01*
X020910Y001983D01*
X021141Y001983D01*
X021916Y001983D01*
X022063Y001836D01*
X021723Y002897D02*
X021723Y003830D01*
X021653Y003900D01*
X022131Y002990D02*
X022633Y002990D01*
X020263Y002380D02*
X020263Y001430D01*
X019910Y001077D01*
X019684Y001077D01*
X018816Y001077D01*
X018813Y001074D01*
X020163Y002480D02*
X020163Y002882D01*
X020148Y002897D01*
X020163Y002480D02*
X020263Y002380D01*
D35*
X000743Y000460D02*
X000743Y005335D01*
X001848Y005335D01*
X001954Y005440D01*
X001954Y006377D01*
X001848Y006482D01*
X000743Y006482D01*
X000743Y008878D01*
X001848Y008878D01*
X001954Y008983D01*
X001954Y009920D01*
X001848Y010025D01*
X000743Y010025D01*
X000743Y018146D01*
X000858Y018146D01*
X000858Y015095D01*
X000978Y014975D01*
X002093Y014975D01*
X004233Y012835D01*
X004368Y012700D01*
X005983Y012700D01*
X005983Y012662D01*
X005888Y012662D01*
X005783Y012557D01*
X005783Y011803D01*
X005836Y011750D01*
X005208Y011750D01*
X004329Y012503D01*
X004308Y012546D01*
X004260Y012563D01*
X004220Y012597D01*
X004173Y012593D01*
X002919Y013030D01*
X002856Y013067D01*
X002832Y013060D01*
X002809Y013069D01*
X002743Y013037D01*
X002713Y013029D01*
X002695Y013047D01*
X002518Y013120D01*
X001727Y013120D01*
X001551Y013047D01*
X001416Y012912D01*
X001343Y012735D01*
X001343Y012545D01*
X001416Y012368D01*
X001551Y012233D01*
X001727Y012160D01*
X002518Y012160D01*
X002695Y012233D01*
X002830Y012368D01*
X002903Y012545D01*
X002903Y012549D01*
X004026Y012157D01*
X004960Y011357D01*
X004637Y011357D01*
X004532Y011251D01*
X004532Y010709D01*
X004637Y010603D01*
X004733Y010603D01*
X004733Y010457D01*
X004637Y010457D01*
X004532Y010351D01*
X004532Y009809D01*
X004626Y009714D01*
X004540Y009714D01*
X004435Y009609D01*
X004435Y008977D01*
X004030Y008572D01*
X004014Y008588D01*
X002920Y008588D01*
X002920Y008637D01*
X002850Y008805D01*
X002722Y008934D01*
X002554Y009003D01*
X002372Y009003D01*
X002204Y008934D01*
X002075Y008805D01*
X002006Y008637D01*
X002006Y008455D01*
X002075Y008287D01*
X002204Y008159D01*
X002372Y008089D01*
X002554Y008089D01*
X002722Y008159D01*
X002775Y008212D01*
X002775Y007192D01*
X002779Y007188D01*
X002775Y007172D01*
X002775Y007148D01*
X002722Y007201D01*
X002554Y007271D01*
X002372Y007271D01*
X002204Y007201D01*
X002075Y007073D01*
X002006Y006905D01*
X002006Y006723D01*
X002075Y006555D01*
X002204Y006426D01*
X002372Y006357D01*
X002554Y006357D01*
X002722Y006426D01*
X002850Y006555D01*
X002920Y006723D01*
X002920Y006775D01*
X002931Y006772D01*
X003447Y006772D01*
X003447Y007050D01*
X003447Y007050D01*
X003447Y006772D01*
X003963Y006772D01*
X004009Y006784D01*
X004050Y006808D01*
X004083Y006841D01*
X004107Y006882D01*
X004119Y006928D01*
X004119Y007050D01*
X003447Y007050D01*
X003447Y007050D01*
X004119Y007050D01*
X004119Y007172D01*
X004115Y007188D01*
X004119Y007192D01*
X004119Y007450D01*
X004589Y007450D01*
X004589Y007328D01*
X004695Y007223D01*
X005119Y007223D01*
X005163Y007266D01*
X005206Y007223D01*
X005631Y007223D01*
X005737Y007328D01*
X005737Y007350D01*
X007623Y007350D01*
X007692Y007322D01*
X007834Y007322D01*
X007966Y007376D01*
X008067Y007477D01*
X008121Y007609D01*
X008121Y007751D01*
X008067Y007883D01*
X007966Y007984D01*
X007834Y008038D01*
X007692Y008038D01*
X007560Y007984D01*
X007459Y007883D01*
X007429Y007810D01*
X005737Y007810D01*
X005737Y007832D01*
X005688Y007880D01*
X005737Y007928D01*
X005737Y007950D01*
X006686Y007950D01*
X006760Y007876D01*
X006892Y007822D01*
X007034Y007822D01*
X007166Y007876D01*
X007267Y007977D01*
X007321Y008109D01*
X007321Y008251D01*
X007267Y008383D01*
X007166Y008484D01*
X007034Y008538D01*
X006892Y008538D01*
X006760Y008484D01*
X006686Y008410D01*
X005737Y008410D01*
X005737Y008432D01*
X005631Y008537D01*
X005206Y008537D01*
X005163Y008494D01*
X005119Y008537D01*
X004695Y008537D01*
X004589Y008432D01*
X004589Y008410D01*
X004518Y008410D01*
X004754Y008646D01*
X005083Y008646D01*
X005189Y008751D01*
X005189Y009232D01*
X005193Y009236D01*
X005193Y009703D01*
X005219Y009703D01*
X005263Y009747D01*
X005270Y009739D01*
X005311Y009715D01*
X005357Y009703D01*
X005579Y009703D01*
X005579Y010062D01*
X005616Y010062D01*
X005616Y009703D01*
X005631Y009703D01*
X005537Y009609D01*
X005537Y008751D01*
X005643Y008646D01*
X006185Y008646D01*
X006291Y008751D01*
X006291Y008920D01*
X007314Y008920D01*
X008633Y008041D01*
X008633Y006105D01*
X008629Y006069D01*
X008633Y006054D01*
X008633Y006038D01*
X008647Y006005D01*
X008657Y005970D01*
X008666Y005957D01*
X008672Y005943D01*
X008698Y005917D01*
X009377Y005057D01*
X009383Y005042D01*
X009409Y005016D01*
X009431Y004988D01*
X009445Y004980D01*
X009542Y004883D01*
X009616Y004810D01*
X009711Y004770D01*
X011212Y004770D01*
X011954Y004027D01*
X011954Y003909D01*
X012009Y003777D01*
X012110Y003676D01*
X012242Y003622D01*
X012346Y003622D01*
X012410Y003557D01*
X012545Y003422D01*
X013560Y003422D01*
X013732Y003251D01*
X013732Y002909D01*
X013837Y002803D01*
X014419Y002803D01*
X014463Y002847D01*
X014506Y002803D01*
X015089Y002803D01*
X015194Y002909D01*
X015194Y002950D01*
X015808Y002950D01*
X016013Y003155D01*
X016468Y002700D01*
X016983Y002185D01*
X017118Y002050D01*
X019130Y002050D01*
X019130Y001838D01*
X019101Y001868D01*
X019059Y001891D01*
X019014Y001904D01*
X018813Y001904D01*
X018813Y001586D01*
X019170Y001586D01*
X019170Y001652D01*
X019236Y001586D01*
X020033Y001586D01*
X020033Y001525D01*
X019981Y001474D01*
X019236Y001474D01*
X019164Y001402D01*
X019170Y001424D01*
X019170Y001586D01*
X018813Y001586D01*
X018813Y001586D01*
X018813Y001586D01*
X018813Y001904D01*
X018612Y001904D01*
X018566Y001891D01*
X018525Y001868D01*
X018492Y001834D01*
X018468Y001793D01*
X018456Y001747D01*
X018456Y001586D01*
X018813Y001586D01*
X018813Y001586D01*
X018456Y001586D01*
X018456Y001424D01*
X018468Y001379D01*
X018492Y001338D01*
X018499Y001330D01*
X018456Y001286D01*
X018456Y000862D01*
X018561Y000756D01*
X019065Y000756D01*
X019130Y000822D01*
X019130Y000786D01*
X019236Y000681D01*
X020133Y000681D01*
X020239Y000786D01*
X020239Y001080D01*
X020358Y001200D01*
X020493Y001335D01*
X020493Y002075D01*
X020587Y001980D01*
X020587Y001692D01*
X020693Y001586D01*
X021590Y001586D01*
X021695Y001692D01*
X021695Y001753D01*
X021706Y001753D01*
X021706Y001624D01*
X021749Y001580D01*
X021742Y001572D01*
X021718Y001531D01*
X021706Y001486D01*
X021706Y001324D01*
X021706Y001163D01*
X021718Y001117D01*
X021742Y001076D01*
X021775Y001042D01*
X021816Y001019D01*
X021862Y001006D01*
X022063Y001006D01*
X022264Y001006D01*
X022309Y001019D01*
X022351Y001042D01*
X022384Y001076D01*
X022408Y001117D01*
X022420Y001163D01*
X022420Y001324D01*
X022063Y001324D01*
X022063Y001324D01*
X022063Y001006D01*
X022063Y001324D01*
X022063Y001324D01*
X022420Y001324D01*
X022420Y001486D01*
X022408Y001531D01*
X022384Y001572D01*
X022376Y001580D01*
X022420Y001624D01*
X022420Y002048D01*
X022315Y002154D01*
X022070Y002154D01*
X022011Y002213D01*
X021695Y002213D01*
X021695Y002274D01*
X021590Y002379D01*
X020839Y002379D01*
X020797Y002421D01*
X022211Y002421D01*
X022316Y002527D01*
X022316Y002760D01*
X022356Y002760D01*
X022430Y002686D01*
X022562Y002632D01*
X022704Y002632D01*
X022836Y002686D01*
X022937Y002787D01*
X022991Y002919D01*
X022991Y003061D01*
X022937Y003193D01*
X022836Y003294D01*
X022756Y003327D01*
X023065Y003327D01*
X023111Y003339D01*
X023152Y003363D01*
X023186Y003396D01*
X023209Y003437D01*
X023222Y003483D01*
X023222Y003605D01*
X022746Y003605D01*
X022271Y003605D01*
X022271Y003483D01*
X022283Y003437D01*
X022307Y003396D01*
X022341Y003363D01*
X022382Y003339D01*
X022427Y003327D01*
X022509Y003327D01*
X022430Y003294D01*
X022356Y003220D01*
X022316Y003220D01*
X022316Y003266D01*
X022211Y003372D01*
X021953Y003372D01*
X021953Y003693D01*
X021957Y003697D01*
X021992Y003782D01*
X022028Y003747D01*
X022062Y003712D01*
X022065Y003711D01*
X022068Y003708D01*
X022112Y003690D01*
X022156Y003671D01*
X022160Y003671D01*
X022164Y003669D01*
X022212Y003670D01*
X022271Y003669D01*
X022271Y003605D01*
X022746Y003605D01*
X022746Y003605D01*
X022746Y003605D01*
X023222Y003605D01*
X023222Y003690D01*
X023286Y003690D01*
X023286Y003624D01*
X023330Y003580D01*
X023322Y003572D01*
X023298Y003531D01*
X023286Y003486D01*
X023286Y003264D01*
X023644Y003264D01*
X023644Y003227D01*
X023286Y003227D01*
X023286Y003005D01*
X023298Y002959D01*
X023322Y002918D01*
X023355Y002885D01*
X023397Y002861D01*
X023442Y002849D01*
X023644Y002849D01*
X023644Y003227D01*
X023681Y003227D01*
X023681Y002849D01*
X023883Y002849D01*
X023929Y002861D01*
X023970Y002885D01*
X024004Y002918D01*
X024027Y002959D01*
X024040Y003005D01*
X024040Y003227D01*
X023681Y003227D01*
X023681Y003264D01*
X024040Y003264D01*
X024040Y003486D01*
X024027Y003531D01*
X024004Y003572D01*
X023996Y003580D01*
X024040Y003624D01*
X024040Y004206D01*
X023934Y004311D01*
X023391Y004311D01*
X023286Y004206D01*
X023286Y004150D01*
X023222Y004150D01*
X023222Y004940D01*
X023389Y004937D01*
X023389Y004908D01*
X023495Y004803D01*
X023919Y004803D01*
X023963Y004846D01*
X024006Y004803D01*
X024431Y004803D01*
X024537Y004908D01*
X024537Y004919D01*
X024625Y004916D01*
X024625Y004903D01*
X024731Y004797D01*
X025195Y004797D01*
X025300Y004903D01*
X025300Y004905D01*
X025375Y004905D01*
X025375Y004903D01*
X025481Y004797D01*
X025945Y004797D01*
X026050Y004903D01*
X026050Y004905D01*
X026125Y004905D01*
X026125Y004903D01*
X026231Y004797D01*
X026695Y004797D01*
X026800Y004903D01*
X026800Y004905D01*
X026875Y004905D01*
X026875Y004903D01*
X026981Y004797D01*
X027445Y004797D01*
X027550Y004903D01*
X027550Y005367D01*
X027487Y005430D01*
X027550Y005493D01*
X027550Y005615D01*
X027758Y005700D01*
X027803Y005700D01*
X027803Y000460D01*
X000743Y000460D01*
X000743Y000497D02*
X027803Y000497D01*
X027803Y000656D02*
X000743Y000656D01*
X000743Y000814D02*
X018503Y000814D01*
X018456Y000973D02*
X000743Y000973D01*
X000743Y001131D02*
X018456Y001131D01*
X018459Y001290D02*
X000743Y001290D01*
X000743Y001448D02*
X018456Y001448D01*
X018456Y001607D02*
X000743Y001607D01*
X000743Y001765D02*
X018460Y001765D01*
X018813Y001765D02*
X018813Y001765D01*
X018813Y001607D02*
X018813Y001607D01*
X019170Y001607D02*
X019216Y001607D01*
X019210Y001448D02*
X019170Y001448D01*
X019130Y001924D02*
X000743Y001924D01*
X000743Y002082D02*
X017086Y002082D01*
X016927Y002241D02*
X000743Y002241D01*
X000743Y002399D02*
X016769Y002399D01*
X016610Y002558D02*
X000743Y002558D01*
X000743Y002716D02*
X016452Y002716D01*
X016468Y002700D02*
X016468Y002700D01*
X016293Y002875D02*
X015160Y002875D01*
X015891Y003033D02*
X016135Y003033D01*
X016468Y003350D02*
X017786Y003350D01*
X017810Y003327D02*
X017761Y003375D01*
X016443Y003375D01*
X016793Y003025D01*
X016793Y003025D01*
X017308Y002510D01*
X018626Y002510D01*
X018610Y002527D01*
X018610Y003266D01*
X018715Y003372D01*
X019258Y003372D01*
X019258Y004083D01*
X019250Y004086D01*
X019149Y004187D01*
X019094Y004319D01*
X019094Y004461D01*
X019149Y004593D01*
X019193Y004637D01*
X019193Y004932D01*
X019232Y005027D01*
X019690Y005485D01*
X018995Y006180D01*
X018655Y006180D01*
X018655Y005637D01*
X018650Y005633D01*
X018655Y005617D01*
X018655Y005495D01*
X018179Y005495D01*
X018179Y005495D01*
X018655Y005495D01*
X018655Y005373D01*
X018650Y005357D01*
X018655Y005353D01*
X018655Y003432D01*
X018549Y003327D01*
X017810Y003327D01*
X018572Y003350D02*
X018693Y003350D01*
X018655Y003509D02*
X019258Y003509D01*
X019258Y003667D02*
X018655Y003667D01*
X018655Y003826D02*
X019258Y003826D01*
X019258Y003984D02*
X018655Y003984D01*
X018655Y004143D02*
X019193Y004143D01*
X019102Y004301D02*
X018655Y004301D01*
X018655Y004460D02*
X019094Y004460D01*
X019174Y004618D02*
X018655Y004618D01*
X018655Y004777D02*
X019193Y004777D01*
X019194Y004935D02*
X018655Y004935D01*
X018655Y005094D02*
X019299Y005094D01*
X019457Y005252D02*
X018655Y005252D01*
X018655Y005411D02*
X019616Y005411D01*
X019606Y005569D02*
X018655Y005569D01*
X018655Y005728D02*
X019448Y005728D01*
X019289Y005886D02*
X018655Y005886D01*
X018655Y006045D02*
X019131Y006045D01*
X019213Y006330D02*
X018888Y006655D01*
X018888Y007463D01*
X018888Y008109D01*
X019164Y008105D02*
X019603Y008105D01*
X019603Y008215D02*
X019386Y008432D01*
X019302Y008432D01*
X019170Y008486D01*
X019164Y008492D01*
X019164Y007959D01*
X019148Y007943D01*
X019148Y007939D01*
X019203Y007939D01*
X019203Y007463D01*
X019203Y006988D01*
X019148Y006988D01*
X019148Y006762D01*
X019250Y006660D01*
X019250Y006660D01*
X019323Y006587D01*
X019323Y006587D01*
X019360Y006550D01*
X019360Y006550D01*
X020278Y005632D01*
X020311Y005600D01*
X020515Y005600D01*
X021778Y006862D01*
X021778Y006988D01*
X021723Y006988D01*
X021723Y007463D01*
X021723Y007463D01*
X021723Y006988D01*
X021601Y006988D01*
X021585Y006992D01*
X021581Y006988D01*
X019345Y006988D01*
X019341Y006992D01*
X019325Y006988D01*
X019203Y006988D01*
X019203Y007463D01*
X019203Y007463D01*
X019203Y007463D01*
X019203Y007939D01*
X019325Y007939D01*
X019341Y007935D01*
X019345Y007939D01*
X019603Y007939D01*
X019603Y008215D01*
X019554Y008264D02*
X019164Y008264D01*
X019164Y008422D02*
X019396Y008422D01*
X019062Y008603D02*
X019059Y008607D01*
X018997Y008607D01*
X018997Y009512D01*
X019411Y009703D01*
X019969Y009703D01*
X020013Y009747D01*
X020020Y009739D01*
X020061Y009715D01*
X020107Y009703D01*
X020329Y009703D01*
X020329Y010062D01*
X020366Y010062D01*
X020366Y009703D01*
X020588Y009703D01*
X020616Y009711D01*
X020580Y009615D01*
X020548Y009582D01*
X020548Y009529D01*
X020529Y009479D01*
X020548Y009437D01*
X020548Y008783D01*
X020534Y008788D01*
X020392Y008788D01*
X020260Y008734D01*
X020159Y008633D01*
X020104Y008501D01*
X020104Y008359D01*
X020159Y008227D01*
X020233Y008153D01*
X020233Y007939D01*
X020063Y007939D01*
X020063Y008405D01*
X019731Y008737D01*
X019731Y008861D01*
X019677Y008993D01*
X019576Y009094D01*
X019444Y009148D01*
X019302Y009148D01*
X019170Y009094D01*
X019069Y008993D01*
X019014Y008861D01*
X019014Y008719D01*
X019062Y008603D01*
X019014Y008739D02*
X018997Y008739D01*
X018997Y008898D02*
X019029Y008898D01*
X018997Y009056D02*
X019132Y009056D01*
X018997Y009215D02*
X020548Y009215D01*
X020548Y009373D02*
X018997Y009373D01*
X019039Y009532D02*
X020548Y009532D01*
X020608Y009690D02*
X019382Y009690D01*
X019282Y010150D02*
X018717Y009889D01*
X018672Y009889D01*
X018634Y009851D01*
X018585Y009828D01*
X018569Y009786D01*
X018537Y009755D01*
X018537Y009700D01*
X018519Y009649D01*
X018537Y009609D01*
X018537Y008607D01*
X018476Y008607D01*
X018433Y008563D01*
X018425Y008571D01*
X018384Y008595D01*
X018338Y008607D01*
X018117Y008607D01*
X018117Y008248D01*
X018080Y008248D01*
X018080Y008607D01*
X017858Y008607D01*
X017812Y008595D01*
X017771Y008571D01*
X017738Y008537D01*
X017714Y008496D01*
X017702Y008451D01*
X017702Y008266D01*
X017594Y008374D01*
X016846Y008374D01*
X016846Y008416D01*
X016740Y008521D01*
X016643Y008521D01*
X016643Y008785D01*
X016861Y009003D01*
X017419Y009003D01*
X017463Y009047D01*
X017470Y009039D01*
X017511Y009015D01*
X017557Y009003D01*
X017779Y009003D01*
X017779Y009362D01*
X017816Y009362D01*
X017816Y009398D01*
X018194Y009398D01*
X018194Y009601D01*
X018182Y009646D01*
X018167Y009672D01*
X018294Y009672D01*
X018426Y009726D01*
X018527Y009827D01*
X018581Y009959D01*
X018581Y010101D01*
X018527Y010233D01*
X018426Y010334D01*
X018294Y010388D01*
X018152Y010388D01*
X018085Y010361D01*
X018023Y010393D01*
X018406Y010393D01*
X018463Y010451D01*
X018484Y010429D01*
X018525Y010406D01*
X018571Y010393D01*
X018713Y010393D01*
X018855Y010393D01*
X018900Y010406D01*
X018941Y010429D01*
X018963Y010451D01*
X019020Y010393D01*
X019324Y010393D01*
X019282Y010351D01*
X019282Y010150D01*
X019282Y010166D02*
X018555Y010166D01*
X018581Y010007D02*
X018972Y010007D01*
X019282Y010324D02*
X018436Y010324D01*
X018713Y010393D02*
X018713Y011006D01*
X018713Y010393D01*
X018713Y010483D02*
X018713Y010483D01*
X018713Y010641D02*
X018713Y010641D01*
X018713Y010800D02*
X018713Y010800D01*
X018713Y010958D02*
X018713Y010958D01*
X018713Y011006D02*
X018713Y011006D01*
X018713Y011006D01*
X018713Y011619D01*
X018855Y011619D01*
X018900Y011607D01*
X018941Y011583D01*
X018963Y011562D01*
X018983Y011582D01*
X018983Y011623D01*
X018979Y011627D01*
X018924Y011759D01*
X018924Y011901D01*
X018979Y012033D01*
X019080Y012134D01*
X019212Y012188D01*
X019354Y012188D01*
X019486Y012134D01*
X019587Y012033D01*
X019611Y011974D01*
X019618Y011980D01*
X020268Y012630D01*
X021438Y012630D01*
X021573Y012495D01*
X021732Y012336D01*
X021732Y012851D01*
X021837Y012957D01*
X022419Y012957D01*
X022463Y012913D01*
X022506Y012957D01*
X023089Y012957D01*
X023188Y012858D01*
X023287Y012957D01*
X023869Y012957D01*
X023913Y012913D01*
X023956Y012957D01*
X024539Y012957D01*
X024644Y012851D01*
X024644Y012309D01*
X024540Y012205D01*
X024640Y012106D01*
X024640Y011524D01*
X024596Y011480D01*
X024640Y011436D01*
X024640Y010854D01*
X024534Y010749D01*
X023991Y010749D01*
X023886Y010854D01*
X023886Y010932D01*
X023783Y011035D01*
X023764Y011053D01*
X023726Y011053D01*
X023726Y010953D01*
X023693Y010920D01*
X023693Y010585D01*
X023558Y010450D01*
X023058Y009950D01*
X022058Y009950D01*
X021323Y009215D01*
X021323Y008950D01*
X021324Y008950D01*
X021514Y009124D01*
X021514Y009211D01*
X021569Y009343D01*
X021670Y009444D01*
X021802Y009498D01*
X021944Y009498D01*
X022076Y009444D01*
X022177Y009343D01*
X022231Y009211D01*
X022231Y009069D01*
X022177Y008937D01*
X022076Y008836D01*
X021944Y008782D01*
X021821Y008782D01*
X021643Y008619D01*
X021643Y008563D01*
X021737Y008657D01*
X022319Y008657D01*
X022363Y008613D01*
X022370Y008621D01*
X022411Y008645D01*
X022457Y008657D01*
X022679Y008657D01*
X022679Y008298D01*
X022716Y008298D01*
X023094Y008298D01*
X023094Y008501D01*
X023082Y008546D01*
X023058Y008587D01*
X023025Y008621D01*
X022983Y008645D01*
X022938Y008657D01*
X022716Y008657D01*
X022716Y008298D01*
X022716Y008262D01*
X023094Y008262D01*
X023094Y008059D01*
X023082Y008014D01*
X023058Y007973D01*
X023025Y007939D01*
X022983Y007915D01*
X022938Y007903D01*
X022716Y007903D01*
X022716Y008262D01*
X022679Y008262D01*
X022679Y007903D01*
X022457Y007903D01*
X022411Y007915D01*
X022370Y007939D01*
X022363Y007947D01*
X022319Y007903D01*
X022268Y007903D01*
X022268Y007882D01*
X022316Y007833D01*
X022316Y007094D01*
X022298Y007075D01*
X022298Y006954D01*
X022376Y007033D01*
X023116Y007033D01*
X023222Y006928D01*
X023222Y006474D01*
X023253Y006505D01*
X023388Y006640D01*
X023409Y006640D01*
X023409Y006672D01*
X023515Y006777D01*
X023939Y006777D01*
X023983Y006734D01*
X024026Y006777D01*
X024451Y006777D01*
X024557Y006672D01*
X024557Y006659D01*
X024733Y006835D01*
X024733Y007215D01*
X025023Y007505D01*
X025158Y007640D01*
X026873Y007640D01*
X027201Y007313D01*
X027445Y007313D01*
X027550Y007207D01*
X027550Y007043D01*
X027776Y006910D01*
X027803Y006910D01*
X027803Y018146D01*
X027058Y018146D01*
X027058Y015095D01*
X026938Y014975D01*
X025333Y014975D01*
X024443Y014085D01*
X024443Y014085D01*
X024308Y013950D01*
X021740Y013950D01*
X021666Y013876D01*
X021534Y013822D01*
X021430Y013822D01*
X020432Y012824D01*
X020011Y012824D01*
X020011Y012546D01*
X019906Y012441D01*
X019520Y012441D01*
X019463Y012498D01*
X019406Y012441D01*
X019299Y012441D01*
X018958Y012100D01*
X018958Y012100D01*
X018848Y011990D01*
X018630Y011990D01*
X018556Y011916D01*
X018424Y011862D01*
X018282Y011862D01*
X018150Y011916D01*
X018049Y012017D01*
X017994Y012149D01*
X017994Y012291D01*
X018049Y012423D01*
X018066Y012441D01*
X018020Y012441D01*
X017963Y012498D01*
X017906Y012441D01*
X017520Y012441D01*
X017463Y012498D01*
X017406Y012441D01*
X017020Y012441D01*
X016963Y012498D01*
X016906Y012441D01*
X016828Y012441D01*
X016811Y012408D01*
X016798Y012349D01*
X016766Y012328D01*
X016748Y012295D01*
X016689Y012278D01*
X016638Y012245D01*
X016601Y012253D01*
X016363Y012185D01*
X016338Y012160D01*
X016275Y012160D01*
X016214Y012143D01*
X016183Y012160D01*
X015990Y012160D01*
X015916Y012086D01*
X015784Y012032D01*
X015642Y012032D01*
X015543Y012072D01*
X015543Y012017D01*
X015558Y011992D01*
X015543Y011924D01*
X015543Y011855D01*
X015523Y011834D01*
X015438Y011461D01*
X015457Y011443D01*
X015483Y011380D01*
X015483Y011525D01*
X015618Y011660D01*
X015868Y011910D01*
X016558Y011910D01*
X016693Y011775D01*
X016849Y011619D01*
X016891Y011619D01*
X016854Y011709D01*
X016854Y011851D01*
X016909Y011983D01*
X017010Y012084D01*
X017142Y012138D01*
X017284Y012138D01*
X017416Y012084D01*
X017463Y012037D01*
X017510Y012084D01*
X017642Y012138D01*
X017784Y012138D01*
X017916Y012084D01*
X018017Y011983D01*
X018071Y011851D01*
X018071Y011709D01*
X018034Y011619D01*
X018406Y011619D01*
X018463Y011562D01*
X018484Y011583D01*
X018525Y011607D01*
X018571Y011619D01*
X018713Y011619D01*
X018713Y011006D01*
X018713Y011117D02*
X018713Y011117D01*
X018713Y011275D02*
X018713Y011275D01*
X018713Y011434D02*
X018713Y011434D01*
X018713Y011592D02*
X018713Y011592D01*
X018927Y011592D02*
X018983Y011592D01*
X018928Y011751D02*
X018071Y011751D01*
X018047Y011909D02*
X018167Y011909D01*
X018028Y012068D02*
X017932Y012068D01*
X017994Y012226D02*
X016506Y012226D01*
X016559Y011909D02*
X016878Y011909D01*
X016854Y011751D02*
X016718Y011751D01*
X016993Y012068D02*
X015871Y012068D01*
X015867Y011909D02*
X015543Y011909D01*
X015543Y012068D02*
X015555Y012068D01*
X015504Y011751D02*
X015708Y011751D01*
X015550Y011592D02*
X015468Y011592D01*
X015461Y011434D02*
X015483Y011434D01*
X015915Y010707D02*
X015915Y010550D01*
X015927Y010504D01*
X015951Y010463D01*
X015984Y010429D01*
X016025Y010406D01*
X016071Y010393D01*
X016213Y010393D01*
X016231Y010393D01*
X016230Y010381D01*
X016219Y010369D01*
X016219Y010293D01*
X016016Y010293D01*
X015686Y010293D01*
X015580Y010187D01*
X015580Y010110D01*
X015540Y010110D01*
X015466Y010184D01*
X015414Y010206D01*
X015523Y010315D01*
X015915Y010707D01*
X015915Y010641D02*
X015849Y010641D01*
X015939Y010483D02*
X015691Y010483D01*
X015532Y010324D02*
X016219Y010324D01*
X016213Y010393D02*
X016213Y011006D01*
X016213Y010393D01*
X016213Y010483D02*
X016213Y010483D01*
X016213Y010641D02*
X016213Y010641D01*
X016213Y010800D02*
X016213Y010800D01*
X016213Y010958D02*
X016213Y010958D01*
X016213Y011006D02*
X016213Y011006D01*
X016016Y010293D02*
X016016Y010229D01*
X016016Y010229D01*
X016016Y010229D01*
X016016Y010293D01*
X015580Y010166D02*
X015484Y010166D01*
X014603Y009215D02*
X012004Y009215D01*
X012058Y009160D02*
X014658Y009160D01*
X014383Y009435D01*
X014383Y010185D01*
X013511Y011057D01*
X013511Y010157D01*
X013519Y010157D01*
X013563Y010113D01*
X013570Y010121D01*
X013611Y010145D01*
X013657Y010157D01*
X013879Y010157D01*
X013879Y009798D01*
X013916Y009798D01*
X014294Y009798D01*
X014294Y010001D01*
X014282Y010046D01*
X014258Y010087D01*
X014225Y010121D01*
X014183Y010145D01*
X014138Y010157D01*
X013916Y010157D01*
X013916Y009798D01*
X013916Y009762D01*
X014294Y009762D01*
X014294Y009559D01*
X014282Y009514D01*
X014258Y009473D01*
X014225Y009439D01*
X014183Y009415D01*
X014138Y009403D01*
X013916Y009403D01*
X013916Y009762D01*
X013879Y009762D01*
X013879Y009403D01*
X013657Y009403D01*
X013611Y009415D01*
X013570Y009439D01*
X013563Y009447D01*
X013519Y009403D01*
X012937Y009403D01*
X012832Y009509D01*
X012832Y010043D01*
X012520Y010043D01*
X012463Y010101D01*
X012441Y010079D01*
X012400Y010056D01*
X012355Y010043D01*
X012213Y010043D01*
X012213Y010656D01*
X012213Y010656D01*
X012213Y010043D01*
X012071Y010043D01*
X012025Y010056D01*
X011984Y010079D01*
X011963Y010101D01*
X011943Y010081D01*
X011943Y010038D01*
X012034Y010038D01*
X012166Y009984D01*
X012267Y009883D01*
X012321Y009751D01*
X012321Y009609D01*
X012267Y009477D01*
X012166Y009376D01*
X012034Y009322D01*
X011897Y009322D01*
X012058Y009160D01*
X012158Y009373D02*
X014445Y009373D01*
X014383Y009532D02*
X014287Y009532D01*
X014294Y009690D02*
X014383Y009690D01*
X014383Y009849D02*
X014294Y009849D01*
X014292Y010007D02*
X014383Y010007D01*
X014383Y010166D02*
X013511Y010166D01*
X013511Y010324D02*
X014244Y010324D01*
X014085Y010483D02*
X013511Y010483D01*
X013511Y010641D02*
X013927Y010641D01*
X013768Y010800D02*
X013511Y010800D01*
X013511Y010958D02*
X013610Y010958D01*
X013213Y010345D02*
X013213Y010330D01*
X012832Y010007D02*
X012110Y010007D01*
X012213Y010166D02*
X012213Y010166D01*
X012213Y010324D02*
X012213Y010324D01*
X012213Y010483D02*
X012213Y010483D01*
X012213Y010641D02*
X012213Y010641D01*
X012213Y010656D02*
X012213Y011269D01*
X012213Y010656D01*
X012213Y010656D01*
X012213Y010800D02*
X012213Y010800D01*
X012213Y010958D02*
X012213Y010958D01*
X012213Y011117D02*
X012213Y011117D01*
X012213Y011269D02*
X012071Y011269D01*
X012025Y011257D01*
X011984Y011233D01*
X011963Y011212D01*
X011906Y011269D01*
X011828Y011269D01*
X011861Y011349D01*
X011861Y011426D01*
X011868Y011420D01*
X012678Y011420D01*
X012527Y011269D01*
X012520Y011269D01*
X012463Y011212D01*
X012441Y011233D01*
X012400Y011257D01*
X012355Y011269D01*
X012213Y011269D01*
X012533Y011275D02*
X011831Y011275D01*
X010668Y012091D02*
X010138Y011560D01*
X010003Y011425D01*
X010003Y011252D01*
X009963Y011212D01*
X009941Y011233D01*
X009900Y011257D01*
X009855Y011269D01*
X009713Y011269D01*
X009713Y010656D01*
X009713Y010043D01*
X009855Y010043D01*
X009900Y010056D01*
X009941Y010079D01*
X009963Y010101D01*
X009983Y010081D01*
X009983Y009525D01*
X009483Y009025D01*
X009483Y006835D01*
X009618Y006700D01*
X009868Y006450D01*
X010007Y006450D01*
X010262Y006195D01*
X010652Y006195D01*
X010623Y006165D01*
X010262Y006165D01*
X009978Y005881D01*
X009978Y005479D01*
X010167Y005290D01*
X009871Y005290D01*
X009798Y005362D01*
X009153Y006180D01*
X009153Y008155D01*
X009158Y008180D01*
X009153Y008206D01*
X009153Y008232D01*
X009143Y008256D01*
X009138Y008282D01*
X009123Y008303D01*
X009113Y008327D01*
X009095Y008346D01*
X009080Y008368D01*
X009058Y008382D01*
X009040Y008400D01*
X009016Y008410D01*
X007763Y009246D01*
X007763Y009447D01*
X007795Y009447D01*
X007900Y009553D01*
X007900Y010017D01*
X007837Y010080D01*
X007900Y010143D01*
X007900Y010607D01*
X007795Y010713D01*
X007732Y010713D01*
X007710Y010735D01*
X007615Y010775D01*
X007290Y010775D01*
X007290Y010806D01*
X007184Y010911D01*
X006641Y010911D01*
X006536Y010806D01*
X006536Y010224D01*
X006580Y010180D01*
X006572Y010172D01*
X006548Y010131D01*
X006536Y010086D01*
X006536Y009864D01*
X006894Y009864D01*
X006894Y009827D01*
X006536Y009827D01*
X006536Y009605D01*
X006548Y009559D01*
X006572Y009518D01*
X006605Y009485D01*
X006647Y009461D01*
X006692Y009449D01*
X006894Y009449D01*
X006894Y009827D01*
X006931Y009827D01*
X006931Y009449D01*
X007133Y009449D01*
X007179Y009461D01*
X007220Y009485D01*
X007254Y009518D01*
X007256Y009522D01*
X007303Y009475D01*
X007303Y009440D01*
X006298Y009440D01*
X006308Y009450D01*
X006443Y009585D01*
X006443Y011698D01*
X006537Y011698D01*
X006643Y011803D01*
X006643Y012557D01*
X006537Y012662D01*
X006443Y012662D01*
X006443Y012700D01*
X006708Y012700D01*
X006708Y012605D01*
X006813Y012500D01*
X007212Y012500D01*
X007213Y012500D01*
X007612Y012500D01*
X007718Y012605D01*
X007718Y012700D01*
X009415Y012700D01*
X009415Y012457D01*
X008996Y012038D01*
X008892Y012038D01*
X008760Y011984D01*
X008659Y011883D01*
X008604Y011751D01*
X008604Y011609D01*
X008659Y011477D01*
X008760Y011376D01*
X008892Y011322D01*
X009034Y011322D01*
X009166Y011376D01*
X009267Y011477D01*
X009321Y011609D01*
X009321Y011713D01*
X009464Y011856D01*
X009464Y011789D01*
X009519Y011657D01*
X009620Y011556D01*
X009752Y011502D01*
X009894Y011502D01*
X010026Y011556D01*
X010127Y011657D01*
X010181Y011789D01*
X010181Y011857D01*
X010295Y011950D01*
X010308Y011950D01*
X010367Y012009D01*
X010432Y012063D01*
X010434Y012076D01*
X010443Y012085D01*
X010443Y012128D01*
X010463Y012148D01*
X010520Y012091D01*
X010668Y012091D01*
X010645Y012068D02*
X010433Y012068D01*
X010487Y011909D02*
X010245Y011909D01*
X010165Y011751D02*
X010328Y011751D01*
X010170Y011592D02*
X010062Y011592D01*
X010011Y011434D02*
X009223Y011434D01*
X009314Y011592D02*
X009584Y011592D01*
X009480Y011751D02*
X009359Y011751D01*
X009525Y011257D02*
X009571Y011269D01*
X009713Y011269D01*
X009713Y010656D01*
X009713Y010656D01*
X009713Y010043D01*
X009571Y010043D01*
X009525Y010056D01*
X009484Y010079D01*
X009451Y010113D01*
X009427Y010154D01*
X009415Y010200D01*
X009415Y010656D01*
X009713Y010656D01*
X009713Y010656D01*
X009713Y010656D01*
X009415Y010656D01*
X009415Y011113D01*
X009427Y011159D01*
X009451Y011200D01*
X009484Y011233D01*
X009525Y011257D01*
X009416Y011117D02*
X006443Y011117D01*
X006443Y011275D02*
X010003Y011275D01*
X009713Y011117D02*
X009713Y011117D01*
X009713Y010958D02*
X009713Y010958D01*
X009713Y010800D02*
X009713Y010800D01*
X009713Y010641D02*
X009713Y010641D01*
X009713Y010483D02*
X009713Y010483D01*
X009713Y010324D02*
X009713Y010324D01*
X009713Y010166D02*
X009713Y010166D01*
X009424Y010166D02*
X007900Y010166D01*
X007900Y010324D02*
X009415Y010324D01*
X009415Y010483D02*
X007900Y010483D01*
X007867Y010641D02*
X009415Y010641D01*
X009415Y010800D02*
X007290Y010800D01*
X007563Y010515D02*
X006913Y010515D01*
X006536Y010483D02*
X006443Y010483D01*
X006443Y010641D02*
X006536Y010641D01*
X006536Y010800D02*
X006443Y010800D01*
X006443Y010958D02*
X009415Y010958D01*
X008702Y011434D02*
X006443Y011434D01*
X006443Y011592D02*
X008611Y011592D01*
X008604Y011751D02*
X006590Y011751D01*
X006643Y011909D02*
X008685Y011909D01*
X009025Y012068D02*
X006643Y012068D01*
X006643Y012226D02*
X009184Y012226D01*
X009342Y012385D02*
X006643Y012385D01*
X006643Y012543D02*
X006770Y012543D01*
X007213Y012500D02*
X007213Y012500D01*
X007655Y012543D02*
X009415Y012543D01*
X009415Y013160D02*
X007718Y013160D01*
X007718Y013255D01*
X007612Y013360D01*
X007213Y013360D01*
X007213Y013360D01*
X007212Y013360D01*
X006813Y013360D01*
X006708Y013255D01*
X006708Y013160D01*
X004558Y013160D01*
X002743Y014975D01*
X002938Y014975D01*
X003058Y015095D01*
X003058Y018146D01*
X004358Y018146D01*
X004358Y015095D01*
X004478Y014975D01*
X005343Y014975D01*
X005368Y014950D01*
X005908Y014410D01*
X005445Y014410D01*
X005445Y014505D01*
X005340Y014610D01*
X004940Y014610D01*
X004939Y014609D01*
X004934Y014610D01*
X004786Y014610D01*
X004786Y014180D01*
X004786Y013750D01*
X004934Y013750D01*
X004939Y013751D01*
X004940Y013750D01*
X005340Y013750D01*
X005445Y013855D01*
X005445Y013950D01*
X006708Y013950D01*
X006708Y013855D01*
X006813Y013750D01*
X007212Y013750D01*
X007213Y013750D01*
X007612Y013750D01*
X007718Y013855D01*
X007718Y013950D01*
X008815Y013950D01*
X009305Y013513D01*
X009368Y013450D01*
X009375Y013450D01*
X009381Y013445D01*
X009469Y013450D01*
X009968Y013450D01*
X009983Y013435D01*
X009983Y013279D01*
X009963Y013259D01*
X009906Y013317D01*
X009520Y013317D01*
X009415Y013211D01*
X009415Y013160D01*
X009415Y013177D02*
X007718Y013177D01*
X007637Y013336D02*
X009983Y013336D01*
X009324Y013494D02*
X004224Y013494D01*
X004066Y013653D02*
X009148Y013653D01*
X008971Y013811D02*
X007673Y013811D01*
X007213Y013750D02*
X007213Y013750D01*
X006752Y013811D02*
X005401Y013811D01*
X005445Y014445D02*
X005873Y014445D01*
X005714Y014604D02*
X005346Y014604D01*
X005556Y014762D02*
X002956Y014762D01*
X002798Y014921D02*
X005397Y014921D01*
X004786Y014610D02*
X004786Y014180D01*
X004786Y014180D01*
X004786Y014180D01*
X004786Y013750D01*
X004637Y013750D01*
X004591Y013762D01*
X004550Y013786D01*
X004517Y013819D01*
X004493Y013861D01*
X004481Y013906D01*
X004481Y014180D01*
X004786Y014180D01*
X004786Y014180D01*
X004481Y014180D01*
X004481Y014454D01*
X004493Y014499D01*
X004517Y014541D01*
X004550Y014574D01*
X004591Y014598D01*
X004637Y014610D01*
X004786Y014610D01*
X004786Y014604D02*
X004786Y014604D01*
X004786Y014445D02*
X004786Y014445D01*
X004786Y014287D02*
X004786Y014287D01*
X004786Y014128D02*
X004786Y014128D01*
X004786Y013970D02*
X004786Y013970D01*
X004786Y013811D02*
X004786Y013811D01*
X004525Y013811D02*
X003907Y013811D01*
X003749Y013970D02*
X004481Y013970D01*
X004481Y014128D02*
X003590Y014128D01*
X003432Y014287D02*
X004481Y014287D01*
X004481Y014445D02*
X003273Y014445D01*
X003115Y014604D02*
X004613Y014604D01*
X004374Y015079D02*
X003042Y015079D01*
X003058Y015238D02*
X004358Y015238D01*
X004358Y015396D02*
X003058Y015396D01*
X003058Y015555D02*
X004358Y015555D01*
X004358Y015713D02*
X003058Y015713D01*
X003058Y015872D02*
X004358Y015872D01*
X004358Y016030D02*
X003058Y016030D01*
X003058Y016189D02*
X004358Y016189D01*
X004358Y016347D02*
X003058Y016347D01*
X003058Y016506D02*
X004358Y016506D01*
X004358Y016664D02*
X003058Y016664D01*
X003058Y016823D02*
X004358Y016823D01*
X004358Y016981D02*
X003058Y016981D01*
X003058Y017140D02*
X004358Y017140D01*
X004358Y017298D02*
X003058Y017298D01*
X003058Y017457D02*
X004358Y017457D01*
X004358Y017615D02*
X003058Y017615D01*
X003058Y017774D02*
X004358Y017774D01*
X004358Y017932D02*
X003058Y017932D01*
X003058Y018091D02*
X004358Y018091D01*
X000858Y018091D02*
X000743Y018091D01*
X000743Y017932D02*
X000858Y017932D01*
X000858Y017774D02*
X000743Y017774D01*
X000743Y017615D02*
X000858Y017615D01*
X000858Y017457D02*
X000743Y017457D01*
X000743Y017298D02*
X000858Y017298D01*
X000858Y017140D02*
X000743Y017140D01*
X000743Y016981D02*
X000858Y016981D01*
X000858Y016823D02*
X000743Y016823D01*
X000743Y016664D02*
X000858Y016664D01*
X000858Y016506D02*
X000743Y016506D01*
X000743Y016347D02*
X000858Y016347D01*
X000858Y016189D02*
X000743Y016189D01*
X000743Y016030D02*
X000858Y016030D01*
X000858Y015872D02*
X000743Y015872D01*
X000743Y015713D02*
X000858Y015713D01*
X000858Y015555D02*
X000743Y015555D01*
X000743Y015396D02*
X000858Y015396D01*
X000858Y015238D02*
X000743Y015238D01*
X000743Y015079D02*
X000874Y015079D01*
X000743Y014921D02*
X002147Y014921D01*
X002306Y014762D02*
X000743Y014762D01*
X000743Y014604D02*
X002464Y014604D01*
X002623Y014445D02*
X000743Y014445D01*
X000743Y014287D02*
X002781Y014287D01*
X002940Y014128D02*
X000743Y014128D01*
X000743Y013970D02*
X003098Y013970D01*
X003257Y013811D02*
X000743Y013811D01*
X000743Y013653D02*
X003415Y013653D01*
X003574Y013494D02*
X000743Y013494D01*
X000743Y013336D02*
X003732Y013336D01*
X003891Y013177D02*
X000743Y013177D01*
X000743Y013019D02*
X001523Y013019D01*
X001394Y012860D02*
X000743Y012860D01*
X000743Y012702D02*
X001343Y012702D01*
X001343Y012543D02*
X000743Y012543D01*
X000743Y012385D02*
X001409Y012385D01*
X001568Y012226D02*
X000743Y012226D01*
X000743Y012068D02*
X001605Y012068D01*
X001639Y012085D02*
X001571Y012051D01*
X001510Y012006D01*
X001457Y011953D01*
X001412Y011892D01*
X001378Y011824D01*
X001355Y011752D01*
X001343Y011678D01*
X001343Y011660D01*
X002103Y011660D01*
X002103Y012120D01*
X001785Y012120D01*
X001710Y012108D01*
X001639Y012085D01*
X001425Y011909D02*
X000743Y011909D01*
X000743Y011751D02*
X001354Y011751D01*
X001343Y011620D02*
X001343Y011602D01*
X001355Y011528D01*
X001378Y011456D01*
X001412Y011388D01*
X001457Y011327D01*
X001510Y011274D01*
X001571Y011229D01*
X001639Y011195D01*
X001710Y011172D01*
X001785Y011160D01*
X002103Y011160D01*
X002103Y011620D01*
X002143Y011620D01*
X002143Y011660D01*
X002903Y011660D01*
X002903Y011678D01*
X002891Y011752D01*
X002868Y011824D01*
X002833Y011892D01*
X002789Y011953D01*
X002736Y012006D01*
X002674Y012051D01*
X002607Y012085D01*
X002535Y012108D01*
X002461Y012120D01*
X002143Y012120D01*
X002143Y011660D01*
X002103Y011660D01*
X002103Y011620D01*
X001343Y011620D01*
X001344Y011592D02*
X000743Y011592D01*
X000743Y011434D02*
X001389Y011434D01*
X001509Y011275D02*
X000743Y011275D01*
X000743Y011117D02*
X004532Y011117D01*
X004532Y010958D02*
X000743Y010958D01*
X000743Y010800D02*
X004532Y010800D01*
X004599Y010641D02*
X000743Y010641D01*
X000743Y010483D02*
X004733Y010483D01*
X004532Y010324D02*
X000743Y010324D01*
X000743Y010166D02*
X004532Y010166D01*
X004532Y010007D02*
X004032Y010007D01*
X004014Y010025D02*
X002880Y010025D01*
X002775Y009920D01*
X002775Y008983D01*
X002880Y008878D01*
X004014Y008878D01*
X004119Y008983D01*
X004119Y009920D01*
X004014Y010025D01*
X004119Y009849D02*
X004532Y009849D01*
X004516Y009690D02*
X004119Y009690D01*
X004119Y009532D02*
X004435Y009532D01*
X004435Y009373D02*
X004119Y009373D01*
X004119Y009215D02*
X004435Y009215D01*
X004435Y009056D02*
X004119Y009056D01*
X004033Y008898D02*
X004355Y008898D01*
X004197Y008739D02*
X002878Y008739D01*
X002861Y008898D02*
X002758Y008898D01*
X002775Y009056D02*
X001954Y009056D01*
X001954Y009215D02*
X002775Y009215D01*
X002775Y009373D02*
X001954Y009373D01*
X001954Y009532D02*
X002775Y009532D01*
X002775Y009690D02*
X001954Y009690D01*
X001954Y009849D02*
X002775Y009849D01*
X002862Y010007D02*
X001867Y010007D01*
X001868Y008898D02*
X002168Y008898D01*
X002048Y008739D02*
X000743Y008739D01*
X000743Y008581D02*
X002006Y008581D01*
X002019Y008422D02*
X000743Y008422D01*
X000743Y008264D02*
X002099Y008264D01*
X002333Y008105D02*
X000743Y008105D01*
X000743Y007947D02*
X002775Y007947D01*
X002775Y008105D02*
X002592Y008105D01*
X002775Y007788D02*
X000743Y007788D01*
X000743Y007630D02*
X002775Y007630D01*
X002775Y007471D02*
X000743Y007471D01*
X000743Y007313D02*
X002775Y007313D01*
X002769Y007154D02*
X002775Y007154D01*
X002902Y006679D02*
X008633Y006679D01*
X008633Y006837D02*
X004079Y006837D01*
X004119Y006996D02*
X008633Y006996D01*
X008633Y007154D02*
X004119Y007154D01*
X004119Y007313D02*
X004605Y007313D01*
X004507Y006521D02*
X004450Y006506D01*
X004400Y006477D01*
X004359Y006436D01*
X004329Y006386D01*
X004314Y006329D01*
X004314Y006124D01*
X004751Y006124D01*
X004751Y006008D01*
X004314Y006008D01*
X004314Y005802D01*
X004329Y005746D01*
X004359Y005696D01*
X004400Y005654D01*
X004450Y005625D01*
X004507Y005610D01*
X004751Y005610D01*
X004751Y006008D01*
X004867Y006008D01*
X004867Y005610D01*
X005112Y005610D01*
X005168Y005625D01*
X005219Y005654D01*
X005260Y005696D01*
X005289Y005746D01*
X005304Y005802D01*
X005304Y006008D01*
X004867Y006008D01*
X004867Y006124D01*
X004751Y006124D01*
X004751Y006521D01*
X004507Y006521D01*
X004501Y006520D02*
X002816Y006520D01*
X002880Y006482D02*
X002775Y006377D01*
X002775Y005440D01*
X002880Y005335D01*
X004014Y005335D01*
X004119Y005440D01*
X004119Y006377D01*
X004014Y006482D01*
X002880Y006482D01*
X002775Y006362D02*
X002565Y006362D01*
X002360Y006362D02*
X001954Y006362D01*
X001954Y006203D02*
X002775Y006203D01*
X002775Y006045D02*
X001954Y006045D01*
X001954Y005886D02*
X002775Y005886D01*
X002775Y005728D02*
X001954Y005728D01*
X001954Y005569D02*
X002775Y005569D01*
X002805Y005411D02*
X001924Y005411D01*
X002110Y006520D02*
X000743Y006520D01*
X000743Y006679D02*
X002024Y006679D01*
X002006Y006837D02*
X000743Y006837D01*
X000743Y006996D02*
X002043Y006996D01*
X002156Y007154D02*
X000743Y007154D01*
X000743Y005252D02*
X007621Y005252D01*
X007621Y005094D02*
X000743Y005094D01*
X000743Y004935D02*
X007621Y004935D01*
X007621Y004854D02*
X007738Y004737D01*
X007621Y004620D01*
X007621Y004524D01*
X005304Y004524D01*
X005304Y004620D01*
X005175Y004750D01*
X004444Y004750D01*
X004314Y004620D01*
X004314Y003968D01*
X004444Y003839D01*
X005175Y003839D01*
X005304Y003968D01*
X005304Y004064D01*
X007621Y004064D01*
X007621Y003968D01*
X007751Y003839D01*
X008482Y003839D01*
X008611Y003968D01*
X008611Y004064D01*
X009022Y004064D01*
X009030Y004072D01*
X009134Y004072D01*
X009266Y004126D01*
X009367Y004227D01*
X009421Y004359D01*
X009421Y004501D01*
X009367Y004633D01*
X009266Y004734D01*
X009134Y004788D01*
X008992Y004788D01*
X008860Y004734D01*
X008759Y004633D01*
X008714Y004524D01*
X008611Y004524D01*
X008611Y004620D01*
X008494Y004737D01*
X008611Y004854D01*
X008611Y005506D01*
X008486Y005631D01*
X008526Y005654D01*
X008567Y005696D01*
X008596Y005746D01*
X008611Y005802D01*
X008611Y006008D01*
X008174Y006008D01*
X008174Y006124D01*
X008059Y006124D01*
X008059Y006521D01*
X007814Y006521D01*
X007757Y006506D01*
X007707Y006477D01*
X007666Y006436D01*
X007637Y006386D01*
X007621Y006329D01*
X007621Y006124D01*
X008059Y006124D01*
X008059Y006008D01*
X007621Y006008D01*
X007621Y005802D01*
X007637Y005746D01*
X007666Y005696D01*
X007707Y005654D01*
X007747Y005631D01*
X007621Y005506D01*
X007621Y004854D01*
X007699Y004777D02*
X000743Y004777D01*
X000743Y004618D02*
X004314Y004618D01*
X004314Y004460D02*
X000743Y004460D01*
X000743Y004301D02*
X004314Y004301D01*
X004314Y004143D02*
X000743Y004143D01*
X000743Y003984D02*
X004314Y003984D01*
X005304Y003984D02*
X007621Y003984D01*
X007621Y004618D02*
X005304Y004618D01*
X005278Y005728D02*
X007647Y005728D01*
X007621Y005886D02*
X005304Y005886D01*
X005304Y006124D02*
X004867Y006124D01*
X004867Y006521D01*
X005112Y006521D01*
X005168Y006506D01*
X005219Y006477D01*
X005260Y006436D01*
X005289Y006386D01*
X005304Y006329D01*
X005304Y006124D01*
X005304Y006203D02*
X007621Y006203D01*
X007630Y006362D02*
X005296Y006362D01*
X005117Y006520D02*
X007808Y006520D01*
X008059Y006520D02*
X008174Y006520D01*
X008174Y006521D02*
X008174Y006124D01*
X008611Y006124D01*
X008611Y006329D01*
X008596Y006386D01*
X008567Y006436D01*
X008526Y006477D01*
X008475Y006506D01*
X008419Y006521D01*
X008174Y006521D01*
X008174Y006362D02*
X008059Y006362D01*
X008059Y006203D02*
X008174Y006203D01*
X008174Y006045D02*
X008633Y006045D01*
X008633Y006203D02*
X008611Y006203D01*
X008603Y006362D02*
X008633Y006362D01*
X008633Y006520D02*
X008424Y006520D01*
X008059Y006045D02*
X004867Y006045D01*
X004751Y006045D02*
X004119Y006045D01*
X004119Y006203D02*
X004314Y006203D01*
X004323Y006362D02*
X004119Y006362D01*
X004119Y005886D02*
X004314Y005886D01*
X004340Y005728D02*
X004119Y005728D01*
X004119Y005569D02*
X007684Y005569D01*
X007621Y005411D02*
X004090Y005411D01*
X004751Y005728D02*
X004867Y005728D01*
X004867Y005886D02*
X004751Y005886D01*
X004751Y006203D02*
X004867Y006203D01*
X004867Y006362D02*
X004751Y006362D01*
X004751Y006520D02*
X004867Y006520D01*
X005721Y007313D02*
X008633Y007313D01*
X008633Y007471D02*
X008061Y007471D01*
X008121Y007630D02*
X008633Y007630D01*
X008633Y007788D02*
X008106Y007788D01*
X008003Y007947D02*
X008633Y007947D01*
X008537Y008105D02*
X007320Y008105D01*
X007316Y008264D02*
X008299Y008264D01*
X008061Y008422D02*
X007228Y008422D01*
X007586Y008739D02*
X006279Y008739D01*
X006291Y008898D02*
X007348Y008898D01*
X007393Y009180D02*
X008893Y008180D01*
X008893Y006090D01*
X009603Y005189D01*
X009763Y005030D01*
X010783Y005030D01*
X011320Y005030D01*
X012313Y004037D01*
X011954Y003984D02*
X008611Y003984D01*
X009282Y004143D02*
X011839Y004143D01*
X011681Y004301D02*
X009397Y004301D01*
X009421Y004460D02*
X011522Y004460D01*
X011364Y004618D02*
X009373Y004618D01*
X009163Y004777D02*
X009695Y004777D01*
X009490Y004935D02*
X008611Y004935D01*
X008611Y005094D02*
X009348Y005094D01*
X009223Y005252D02*
X008611Y005252D01*
X008611Y005411D02*
X009098Y005411D01*
X008973Y005569D02*
X008548Y005569D01*
X008585Y005728D02*
X008848Y005728D01*
X008723Y005886D02*
X008611Y005886D01*
X009153Y006203D02*
X010254Y006203D01*
X010141Y006045D02*
X009260Y006045D01*
X009385Y005886D02*
X009983Y005886D01*
X009978Y005728D02*
X009510Y005728D01*
X009635Y005569D02*
X009978Y005569D01*
X010046Y005411D02*
X009760Y005411D01*
X010095Y006362D02*
X009153Y006362D01*
X009153Y006520D02*
X009798Y006520D01*
X009639Y006679D02*
X009153Y006679D01*
X009153Y006837D02*
X009483Y006837D01*
X009483Y006996D02*
X009153Y006996D01*
X009153Y007154D02*
X009483Y007154D01*
X009483Y007313D02*
X009153Y007313D01*
X009153Y007471D02*
X009483Y007471D01*
X009483Y007630D02*
X009153Y007630D01*
X009153Y007788D02*
X009483Y007788D01*
X009483Y007947D02*
X009153Y007947D01*
X009153Y008105D02*
X009483Y008105D01*
X009483Y008264D02*
X009141Y008264D01*
X008999Y008422D02*
X009483Y008422D01*
X009483Y008581D02*
X008761Y008581D01*
X008523Y008739D02*
X009483Y008739D01*
X009483Y008898D02*
X008285Y008898D01*
X008048Y009056D02*
X009514Y009056D01*
X009672Y009215D02*
X007810Y009215D01*
X007763Y009373D02*
X009831Y009373D01*
X009983Y009532D02*
X007879Y009532D01*
X007900Y009690D02*
X009983Y009690D01*
X009983Y009849D02*
X007900Y009849D01*
X007900Y010007D02*
X009983Y010007D01*
X010443Y010007D02*
X010983Y010007D01*
X010983Y010081D02*
X010983Y009585D01*
X011733Y008835D01*
X011868Y008700D01*
X014408Y008700D01*
X014118Y008410D01*
X013983Y008275D01*
X013983Y007660D01*
X013118Y007660D01*
X012868Y007410D01*
X011879Y007410D01*
X011948Y007479D01*
X011948Y007666D01*
X011476Y007666D01*
X011476Y007694D01*
X011449Y007694D01*
X011449Y008165D01*
X011262Y008165D01*
X010978Y007881D01*
X010978Y007694D01*
X011449Y007694D01*
X011449Y007666D01*
X010978Y007666D01*
X010978Y007479D01*
X011047Y007410D01*
X010879Y007410D01*
X010948Y007479D01*
X010948Y007881D01*
X010664Y008165D01*
X010262Y008165D01*
X009978Y007881D01*
X009978Y007479D01*
X010262Y007195D01*
X010652Y007195D01*
X010623Y007165D01*
X010262Y007165D01*
X010032Y006936D01*
X009943Y007025D01*
X009943Y008835D01*
X010443Y009335D01*
X010443Y010081D01*
X010463Y010101D01*
X010520Y010043D01*
X010906Y010043D01*
X010963Y010101D01*
X010983Y010081D01*
X010983Y009849D02*
X010443Y009849D01*
X010443Y009690D02*
X010983Y009690D01*
X011036Y009532D02*
X010443Y009532D01*
X010443Y009373D02*
X011195Y009373D01*
X011353Y009215D02*
X010323Y009215D01*
X010164Y009056D02*
X011512Y009056D01*
X011670Y008898D02*
X010006Y008898D01*
X009943Y008739D02*
X011829Y008739D01*
X011664Y008165D02*
X011476Y008165D01*
X011476Y007694D01*
X011948Y007694D01*
X011948Y007881D01*
X011664Y008165D01*
X011724Y008105D02*
X013983Y008105D01*
X013983Y007947D02*
X011882Y007947D01*
X011948Y007788D02*
X013983Y007788D01*
X013983Y008264D02*
X009943Y008264D01*
X009943Y008422D02*
X014130Y008422D01*
X014288Y008581D02*
X009943Y008581D01*
X009943Y008105D02*
X010202Y008105D01*
X010043Y007947D02*
X009943Y007947D01*
X009943Y007788D02*
X009978Y007788D01*
X009978Y007630D02*
X009943Y007630D01*
X009943Y007471D02*
X009986Y007471D01*
X009943Y007313D02*
X010144Y007313D01*
X010251Y007154D02*
X009943Y007154D01*
X009973Y006996D02*
X010092Y006996D01*
X010940Y007471D02*
X010986Y007471D01*
X010978Y007630D02*
X010948Y007630D01*
X010948Y007788D02*
X010978Y007788D01*
X011043Y007947D02*
X010882Y007947D01*
X010724Y008105D02*
X011202Y008105D01*
X011449Y008105D02*
X011476Y008105D01*
X011476Y007947D02*
X011449Y007947D01*
X011449Y007788D02*
X011476Y007788D01*
X011948Y007630D02*
X013087Y007630D01*
X012929Y007471D02*
X011940Y007471D01*
X012289Y009532D02*
X012832Y009532D01*
X012832Y009690D02*
X012321Y009690D01*
X012281Y009849D02*
X012832Y009849D01*
X013879Y009849D02*
X013916Y009849D01*
X013916Y010007D02*
X013879Y010007D01*
X013879Y009690D02*
X013916Y009690D01*
X013916Y009532D02*
X013879Y009532D01*
X015145Y008485D02*
X015194Y008489D01*
X015601Y008425D01*
X015592Y008411D01*
X015580Y008365D01*
X015580Y008144D01*
X015580Y007924D01*
X015592Y007878D01*
X015616Y007837D01*
X015650Y007803D01*
X015691Y007780D01*
X015736Y007767D01*
X015819Y007767D01*
X015819Y007831D01*
X015819Y007831D01*
X015819Y007767D01*
X015983Y007767D01*
X015983Y007537D01*
X015977Y007450D01*
X015983Y007443D01*
X015983Y007435D01*
X016045Y007373D01*
X016114Y007294D01*
X016113Y007291D01*
X015271Y008169D01*
X015271Y008281D01*
X015217Y008413D01*
X015145Y008485D01*
X015208Y008422D02*
X015599Y008422D01*
X015580Y008264D02*
X015271Y008264D01*
X015332Y008105D02*
X015580Y008105D01*
X015580Y008144D02*
X015777Y008144D01*
X015777Y008144D01*
X015580Y008144D01*
X015580Y007947D02*
X015484Y007947D01*
X015636Y007788D02*
X015676Y007788D01*
X015819Y007788D02*
X015819Y007788D01*
X015788Y007630D02*
X015983Y007630D01*
X015979Y007471D02*
X015940Y007471D01*
X016092Y007313D02*
X016098Y007313D01*
X015288Y006837D02*
X015131Y006837D01*
X015131Y006996D02*
X014973Y006996D01*
X014973Y007154D02*
X014814Y007154D01*
X014854Y007222D02*
X014879Y007232D01*
X014934Y007193D01*
X016383Y005735D01*
X016383Y005735D01*
X016450Y005668D01*
X016480Y005637D01*
X016451Y005621D01*
X016418Y005587D01*
X016394Y005546D01*
X016382Y005501D01*
X016382Y005298D01*
X016760Y005298D01*
X016760Y005262D01*
X016382Y005262D01*
X016382Y005186D01*
X015443Y006125D01*
X015443Y006525D01*
X015308Y006660D01*
X014747Y007222D01*
X014854Y007222D01*
X015290Y006679D02*
X015446Y006679D01*
X015443Y006520D02*
X015603Y006520D01*
X015761Y006362D02*
X015443Y006362D01*
X015443Y006203D02*
X015918Y006203D01*
X016076Y006045D02*
X015524Y006045D01*
X015682Y005886D02*
X016233Y005886D01*
X016390Y005728D02*
X015841Y005728D01*
X015999Y005569D02*
X016407Y005569D01*
X016382Y005411D02*
X016158Y005411D01*
X016316Y005252D02*
X016382Y005252D01*
X016665Y004903D02*
X016760Y004903D01*
X016760Y005262D01*
X016797Y005262D01*
X016797Y004903D01*
X017018Y004903D01*
X017064Y004915D01*
X017105Y004939D01*
X017113Y004947D01*
X017156Y004903D01*
X017704Y004903D01*
X017704Y004465D01*
X017103Y004465D01*
X016665Y004903D01*
X016760Y004935D02*
X016797Y004935D01*
X016797Y005094D02*
X016760Y005094D01*
X016760Y005252D02*
X016797Y005252D01*
X017098Y004935D02*
X017125Y004935D01*
X016950Y004618D02*
X017704Y004618D01*
X017704Y004777D02*
X016792Y004777D01*
X016627Y003192D02*
X018610Y003192D01*
X018610Y003033D02*
X016785Y003033D01*
X016944Y002875D02*
X018610Y002875D01*
X018610Y002716D02*
X017102Y002716D01*
X017261Y002558D02*
X018610Y002558D01*
X019433Y002421D02*
X019433Y002379D01*
X019938Y002379D01*
X019933Y002385D01*
X019933Y002421D01*
X019833Y002421D01*
X019833Y002897D01*
X019833Y002897D01*
X019833Y003372D01*
X019955Y003372D01*
X019971Y003368D01*
X019975Y003372D01*
X020290Y003372D01*
X020548Y003372D01*
X020548Y003420D01*
X020508Y003460D01*
X020328Y003460D01*
X020308Y003440D01*
X020118Y003440D01*
X020096Y003462D01*
X020002Y003462D01*
X019870Y003516D01*
X019778Y003608D01*
X019778Y003372D01*
X019833Y003372D01*
X019833Y002897D01*
X019833Y002897D01*
X019833Y002421D01*
X019711Y002421D01*
X019695Y002425D01*
X019691Y002421D01*
X019433Y002421D01*
X019433Y002399D02*
X019933Y002399D01*
X019833Y002558D02*
X019833Y002558D01*
X019833Y002716D02*
X019833Y002716D01*
X019833Y002875D02*
X019833Y002875D01*
X019833Y003033D02*
X019833Y003033D01*
X019833Y003192D02*
X019833Y003192D01*
X019833Y003350D02*
X019833Y003350D01*
X019778Y003509D02*
X019888Y003509D01*
X019518Y002897D02*
X019518Y004325D01*
X019453Y004390D01*
X019453Y004880D01*
X020058Y005485D01*
X019213Y006330D01*
X019103Y006440D02*
X018463Y006440D01*
X018453Y006430D02*
X017503Y006430D01*
X017318Y006525D01*
X017318Y006770D01*
X017183Y006905D02*
X017097Y006820D01*
X017830Y007033D02*
X017933Y007136D01*
X017933Y007853D01*
X018080Y007853D01*
X018080Y008212D01*
X018117Y008212D01*
X018117Y007853D01*
X018338Y007853D01*
X018384Y007865D01*
X018425Y007889D01*
X018433Y007897D01*
X018476Y007853D01*
X018628Y007853D01*
X018628Y007852D01*
X018610Y007833D01*
X018610Y007094D01*
X018628Y007075D01*
X018628Y006954D01*
X018549Y007033D01*
X017830Y007033D01*
X017933Y007154D02*
X018610Y007154D01*
X018610Y007313D02*
X017933Y007313D01*
X017933Y007471D02*
X018610Y007471D01*
X018610Y007630D02*
X017933Y007630D01*
X017933Y007788D02*
X018610Y007788D01*
X018117Y007947D02*
X018080Y007947D01*
X018080Y008105D02*
X018117Y008105D01*
X018117Y008264D02*
X018080Y008264D01*
X018080Y008422D02*
X018117Y008422D01*
X018117Y008581D02*
X018080Y008581D01*
X017788Y008581D02*
X016643Y008581D01*
X016643Y008739D02*
X018537Y008739D01*
X018537Y008898D02*
X016756Y008898D01*
X016839Y008422D02*
X017702Y008422D01*
X017816Y009003D02*
X018038Y009003D01*
X018083Y009015D01*
X018125Y009039D01*
X018158Y009073D01*
X018182Y009114D01*
X018194Y009159D01*
X018194Y009362D01*
X017816Y009362D01*
X017816Y009003D01*
X017816Y009056D02*
X017779Y009056D01*
X017779Y009215D02*
X017816Y009215D01*
X017816Y009373D02*
X018537Y009373D01*
X018537Y009215D02*
X018194Y009215D01*
X018141Y009056D02*
X018537Y009056D01*
X018450Y008581D02*
X018409Y008581D01*
X018537Y009532D02*
X018194Y009532D01*
X018339Y009690D02*
X018534Y009690D01*
X018536Y009849D02*
X018629Y009849D01*
X017989Y009757D02*
X017816Y009757D01*
X017816Y009398D01*
X017779Y009398D01*
X017779Y009757D01*
X017557Y009757D01*
X017511Y009745D01*
X017470Y009721D01*
X017463Y009713D01*
X017419Y009757D01*
X017364Y009757D01*
X017364Y009762D01*
X017363Y009763D01*
X017363Y009765D01*
X017297Y009831D01*
X017232Y009898D01*
X017230Y009898D01*
X017078Y010050D01*
X017687Y010050D01*
X017865Y009957D01*
X017919Y009827D01*
X017989Y009757D01*
X017910Y009849D02*
X017280Y009849D01*
X017121Y010007D02*
X017769Y010007D01*
X017779Y009690D02*
X017816Y009690D01*
X017816Y009532D02*
X017779Y009532D01*
X019152Y007947D02*
X019603Y007947D01*
X019203Y007788D02*
X019203Y007788D01*
X019203Y007630D02*
X019203Y007630D01*
X019203Y007471D02*
X019203Y007471D01*
X019203Y007313D02*
X019203Y007313D01*
X019203Y007154D02*
X019203Y007154D01*
X019203Y006996D02*
X019203Y006996D01*
X019148Y006837D02*
X021752Y006837D01*
X021723Y006996D02*
X021723Y006996D01*
X021723Y007154D02*
X021723Y007154D01*
X021723Y007313D02*
X021723Y007313D01*
X022038Y007463D02*
X022038Y006755D01*
X020623Y005340D01*
X020203Y005340D01*
X020058Y005485D01*
X020183Y005728D02*
X020643Y005728D01*
X020801Y005886D02*
X020025Y005886D01*
X019866Y006045D02*
X020960Y006045D01*
X021118Y006203D02*
X019708Y006203D01*
X019549Y006362D02*
X021277Y006362D01*
X021435Y006520D02*
X019391Y006520D01*
X019232Y006679D02*
X021594Y006679D01*
X022298Y006996D02*
X022339Y006996D01*
X022316Y007154D02*
X024733Y007154D01*
X024733Y006996D02*
X023154Y006996D01*
X023222Y006837D02*
X024733Y006837D01*
X024576Y006679D02*
X024550Y006679D01*
X024830Y007313D02*
X022316Y007313D01*
X022316Y007471D02*
X024989Y007471D01*
X025147Y007630D02*
X022316Y007630D01*
X022316Y007788D02*
X027803Y007788D01*
X027803Y007630D02*
X026884Y007630D01*
X027042Y007471D02*
X027803Y007471D01*
X027803Y007313D02*
X027445Y007313D01*
X027550Y007154D02*
X027803Y007154D01*
X027803Y006996D02*
X027631Y006996D01*
X027803Y007947D02*
X023032Y007947D01*
X023094Y008105D02*
X027803Y008105D01*
X027803Y008264D02*
X027546Y008264D01*
X027432Y008150D02*
X027743Y008460D01*
X027743Y008900D01*
X027462Y009180D01*
X027743Y009460D01*
X027743Y009900D01*
X027462Y010180D01*
X027743Y010460D01*
X027743Y010900D01*
X027462Y011180D01*
X027743Y011460D01*
X027743Y011900D01*
X027462Y012180D01*
X027743Y012460D01*
X027743Y012900D01*
X027462Y013180D01*
X027743Y013460D01*
X027743Y013900D01*
X027432Y014210D01*
X026993Y014210D01*
X026683Y013900D01*
X026683Y013460D01*
X026963Y013180D01*
X026683Y012900D01*
X026683Y012460D01*
X026963Y012180D01*
X026683Y011900D01*
X026683Y011460D01*
X026963Y011180D01*
X026683Y010900D01*
X026683Y010460D01*
X026963Y010180D01*
X026683Y009900D01*
X026683Y009460D01*
X026963Y009180D01*
X026683Y008900D01*
X026683Y008460D01*
X026993Y008150D01*
X027432Y008150D01*
X027704Y008422D02*
X027803Y008422D01*
X027803Y008581D02*
X027743Y008581D01*
X027743Y008739D02*
X027803Y008739D01*
X027803Y008898D02*
X027743Y008898D01*
X027803Y009056D02*
X027586Y009056D01*
X027497Y009215D02*
X027803Y009215D01*
X027803Y009373D02*
X027655Y009373D01*
X027743Y009532D02*
X027803Y009532D01*
X027803Y009690D02*
X027743Y009690D01*
X027743Y009849D02*
X027803Y009849D01*
X027803Y010007D02*
X027635Y010007D01*
X027477Y010166D02*
X027803Y010166D01*
X027803Y010324D02*
X027606Y010324D01*
X027743Y010483D02*
X027803Y010483D01*
X027803Y010641D02*
X027743Y010641D01*
X027743Y010800D02*
X027803Y010800D01*
X027803Y010958D02*
X027684Y010958D01*
X027803Y011117D02*
X027526Y011117D01*
X027557Y011275D02*
X027803Y011275D01*
X027803Y011434D02*
X027716Y011434D01*
X027743Y011592D02*
X027803Y011592D01*
X027803Y011751D02*
X027743Y011751D01*
X027733Y011909D02*
X027803Y011909D01*
X027803Y012068D02*
X027575Y012068D01*
X027508Y012226D02*
X027803Y012226D01*
X027803Y012385D02*
X027667Y012385D01*
X027743Y012543D02*
X027803Y012543D01*
X027803Y012702D02*
X027743Y012702D01*
X027743Y012860D02*
X027803Y012860D01*
X027803Y013019D02*
X027624Y013019D01*
X027465Y013177D02*
X027803Y013177D01*
X027803Y013336D02*
X027618Y013336D01*
X027743Y013494D02*
X027803Y013494D01*
X027803Y013653D02*
X027743Y013653D01*
X027743Y013811D02*
X027803Y013811D01*
X027803Y013970D02*
X027673Y013970D01*
X027803Y014128D02*
X027514Y014128D01*
X027803Y014287D02*
X024645Y014287D01*
X024803Y014445D02*
X027803Y014445D01*
X027803Y014604D02*
X024962Y014604D01*
X025120Y014762D02*
X027803Y014762D01*
X027803Y014921D02*
X025279Y014921D01*
X024486Y014128D02*
X026911Y014128D01*
X026753Y013970D02*
X024328Y013970D01*
X024635Y012860D02*
X026683Y012860D01*
X026683Y012702D02*
X024644Y012702D01*
X024644Y012543D02*
X026683Y012543D01*
X026759Y012385D02*
X024644Y012385D01*
X024561Y012226D02*
X026917Y012226D01*
X026851Y012068D02*
X024640Y012068D01*
X024640Y011909D02*
X026692Y011909D01*
X026683Y011751D02*
X024640Y011751D01*
X024640Y011592D02*
X026683Y011592D01*
X026710Y011434D02*
X024640Y011434D01*
X024640Y011275D02*
X026868Y011275D01*
X026900Y011117D02*
X024640Y011117D01*
X024640Y010958D02*
X026741Y010958D01*
X026683Y010800D02*
X024585Y010800D01*
X023941Y010800D02*
X023693Y010800D01*
X023693Y010641D02*
X026683Y010641D01*
X026683Y010483D02*
X023591Y010483D01*
X023432Y010324D02*
X026819Y010324D01*
X026949Y010166D02*
X023274Y010166D01*
X023115Y010007D02*
X026790Y010007D01*
X026683Y009849D02*
X021957Y009849D01*
X021798Y009690D02*
X026683Y009690D01*
X026683Y009532D02*
X021640Y009532D01*
X021599Y009373D02*
X021481Y009373D01*
X021516Y009215D02*
X021323Y009215D01*
X021323Y009056D02*
X021440Y009056D01*
X021643Y008581D02*
X021661Y008581D01*
X021775Y008739D02*
X026683Y008739D01*
X026683Y008581D02*
X023062Y008581D01*
X023094Y008422D02*
X026721Y008422D01*
X026880Y008264D02*
X022716Y008264D01*
X022716Y008422D02*
X022679Y008422D01*
X022679Y008581D02*
X022716Y008581D01*
X022716Y008105D02*
X022679Y008105D01*
X022679Y007947D02*
X022716Y007947D01*
X022363Y007947D02*
X022363Y007947D01*
X022137Y008898D02*
X026683Y008898D01*
X026839Y009056D02*
X022226Y009056D01*
X022230Y009215D02*
X026929Y009215D01*
X026770Y009373D02*
X022147Y009373D01*
X020733Y010342D02*
X020733Y010609D01*
X020719Y010629D01*
X020733Y010702D01*
X020733Y010775D01*
X020750Y010792D01*
X020755Y010816D01*
X020815Y010858D01*
X020868Y010910D01*
X020892Y010910D01*
X020957Y010954D01*
X020957Y010957D01*
X021035Y011008D01*
X021112Y011060D01*
X021115Y011059D01*
X021200Y011115D01*
X021200Y011250D01*
X021118Y011250D01*
X021007Y011139D01*
X020957Y011017D01*
X020856Y010916D01*
X020724Y010862D01*
X020582Y010862D01*
X020450Y010916D01*
X020349Y011017D01*
X020294Y011149D01*
X020294Y011291D01*
X020349Y011423D01*
X020450Y011524D01*
X020582Y011578D01*
X020625Y011578D01*
X020510Y011626D01*
X020409Y011727D01*
X020354Y011859D01*
X020354Y012001D01*
X020400Y012112D01*
X019943Y011655D01*
X019943Y011582D01*
X020011Y011514D01*
X020011Y010499D01*
X019969Y010457D01*
X019969Y010457D01*
X020013Y010413D01*
X020020Y010421D01*
X020061Y010445D01*
X020107Y010457D01*
X020329Y010457D01*
X020329Y010098D01*
X020366Y010098D01*
X020366Y010457D01*
X020588Y010457D01*
X020633Y010445D01*
X020675Y010421D01*
X020708Y010387D01*
X020732Y010346D01*
X020733Y010342D01*
X020733Y010483D02*
X019995Y010483D01*
X020011Y010641D02*
X020721Y010641D01*
X020751Y010800D02*
X020011Y010800D01*
X020011Y010958D02*
X020408Y010958D01*
X020308Y011117D02*
X020011Y011117D01*
X020011Y011275D02*
X020294Y011275D01*
X020359Y011434D02*
X020011Y011434D01*
X019943Y011592D02*
X020592Y011592D01*
X020399Y011751D02*
X020039Y011751D01*
X020197Y011909D02*
X020354Y011909D01*
X020356Y012068D02*
X020382Y012068D01*
X020181Y012543D02*
X020008Y012543D01*
X020011Y012702D02*
X021732Y012702D01*
X021740Y012860D02*
X020468Y012860D01*
X020627Y013019D02*
X026802Y013019D01*
X026960Y013177D02*
X020785Y013177D01*
X020944Y013336D02*
X026808Y013336D01*
X026683Y013494D02*
X021102Y013494D01*
X021261Y013653D02*
X026683Y013653D01*
X026683Y013811D02*
X021419Y013811D01*
X021525Y012543D02*
X021732Y012543D01*
X021732Y012385D02*
X021684Y012385D01*
X021200Y011117D02*
X020998Y011117D01*
X020959Y010958D02*
X020898Y010958D01*
X020366Y010324D02*
X020329Y010324D01*
X020329Y010166D02*
X020366Y010166D01*
X020366Y010007D02*
X020329Y010007D01*
X020329Y009849D02*
X020366Y009849D01*
X020548Y009056D02*
X019614Y009056D01*
X019716Y008898D02*
X020548Y008898D01*
X020272Y008739D02*
X019731Y008739D01*
X019888Y008581D02*
X020137Y008581D01*
X020104Y008422D02*
X020046Y008422D01*
X020063Y008264D02*
X020144Y008264D01*
X020063Y008105D02*
X020233Y008105D01*
X020233Y007947D02*
X020063Y007947D01*
X018628Y006996D02*
X018587Y006996D01*
X020793Y005340D02*
X021723Y004410D01*
X022213Y003930D01*
X022746Y003920D01*
X022271Y003667D02*
X021953Y003667D01*
X021953Y003509D02*
X022271Y003509D01*
X022232Y003350D02*
X022363Y003350D01*
X022131Y002990D02*
X022038Y002897D01*
X022316Y002716D02*
X022400Y002716D01*
X022316Y002558D02*
X027803Y002558D01*
X027803Y002716D02*
X022866Y002716D01*
X022973Y002875D02*
X023373Y002875D01*
X023286Y003033D02*
X022991Y003033D01*
X022937Y003192D02*
X023286Y003192D01*
X023286Y003350D02*
X023130Y003350D01*
X023222Y003509D02*
X023292Y003509D01*
X023286Y003667D02*
X023222Y003667D01*
X023644Y003192D02*
X023681Y003192D01*
X023681Y003033D02*
X023644Y003033D01*
X023644Y002875D02*
X023681Y002875D01*
X023952Y002875D02*
X027803Y002875D01*
X027803Y003033D02*
X024040Y003033D01*
X024040Y003192D02*
X027803Y003192D01*
X027803Y003350D02*
X024040Y003350D01*
X024034Y003509D02*
X027803Y003509D01*
X027803Y003667D02*
X024040Y003667D01*
X024040Y003826D02*
X027803Y003826D01*
X027803Y003984D02*
X024040Y003984D01*
X024040Y004143D02*
X027803Y004143D01*
X027803Y004301D02*
X023944Y004301D01*
X023381Y004301D02*
X023222Y004301D01*
X023222Y004460D02*
X027803Y004460D01*
X027803Y004618D02*
X023222Y004618D01*
X023222Y004777D02*
X027803Y004777D01*
X027803Y004935D02*
X027550Y004935D01*
X027550Y005094D02*
X027803Y005094D01*
X027803Y005252D02*
X027550Y005252D01*
X027507Y005411D02*
X027803Y005411D01*
X027803Y005569D02*
X027550Y005569D01*
X027803Y002399D02*
X020819Y002399D01*
X020587Y001924D02*
X020493Y001924D01*
X020493Y001765D02*
X020587Y001765D01*
X020672Y001607D02*
X020493Y001607D01*
X020493Y001448D02*
X020667Y001448D01*
X020693Y001474D02*
X020587Y001368D01*
X020587Y000786D01*
X020693Y000681D01*
X021590Y000681D01*
X021695Y000786D01*
X021695Y001368D01*
X021590Y001474D01*
X020693Y001474D01*
X020587Y001290D02*
X020448Y001290D01*
X020587Y001131D02*
X020289Y001131D01*
X020239Y000973D02*
X020587Y000973D01*
X020587Y000814D02*
X020239Y000814D01*
X019130Y000814D02*
X019122Y000814D01*
X021616Y001448D02*
X021706Y001448D01*
X021706Y001324D02*
X022063Y001324D01*
X021706Y001324D01*
X021706Y001290D02*
X021695Y001290D01*
X021695Y001131D02*
X021714Y001131D01*
X021695Y000973D02*
X027803Y000973D01*
X027803Y001131D02*
X022412Y001131D01*
X022420Y001290D02*
X027803Y001290D01*
X027803Y001448D02*
X022420Y001448D01*
X022403Y001607D02*
X027803Y001607D01*
X027803Y001765D02*
X022420Y001765D01*
X022420Y001924D02*
X027803Y001924D01*
X027803Y002082D02*
X022386Y002082D01*
X021695Y002241D02*
X027803Y002241D01*
X027803Y000814D02*
X021695Y000814D01*
X022063Y001131D02*
X022063Y001131D01*
X022063Y001290D02*
X022063Y001290D01*
X022063Y001324D02*
X022063Y001324D01*
X021723Y001607D02*
X021610Y001607D01*
X023222Y004935D02*
X023389Y004935D01*
X023268Y006520D02*
X023222Y006520D01*
X023222Y006679D02*
X023416Y006679D01*
X023726Y010958D02*
X023860Y010958D01*
X023190Y012860D02*
X023185Y012860D01*
X020022Y012385D02*
X019243Y012385D01*
X019084Y012226D02*
X019864Y012226D01*
X019705Y012068D02*
X019552Y012068D01*
X019013Y012068D02*
X018926Y012068D01*
X018928Y011909D02*
X018539Y011909D01*
X018499Y011592D02*
X018433Y011592D01*
X018033Y012385D02*
X016806Y012385D01*
X017432Y012068D02*
X017493Y012068D01*
X012443Y015980D02*
X012443Y016077D01*
X012492Y016126D01*
X006789Y013336D02*
X004383Y013336D01*
X004541Y013177D02*
X006708Y013177D01*
X005783Y012543D02*
X004310Y012543D01*
X004366Y012702D02*
X003862Y012702D01*
X004049Y013019D02*
X002952Y013019D01*
X002919Y012543D02*
X002902Y012543D01*
X002837Y012385D02*
X003374Y012385D01*
X003407Y012860D02*
X004208Y012860D01*
X004468Y012385D02*
X005783Y012385D01*
X005783Y012226D02*
X004653Y012226D01*
X004837Y012068D02*
X005783Y012068D01*
X005783Y011909D02*
X005022Y011909D01*
X005207Y011751D02*
X005836Y011751D01*
X005616Y010962D02*
X005616Y010603D01*
X005838Y010603D01*
X005883Y010615D01*
X005925Y010639D01*
X005958Y010673D01*
X005982Y010714D01*
X005983Y010718D01*
X005983Y010342D01*
X005982Y010346D01*
X005958Y010387D01*
X005925Y010421D01*
X005883Y010445D01*
X005838Y010457D01*
X005616Y010457D01*
X005616Y010098D01*
X005579Y010098D01*
X005579Y010457D01*
X005357Y010457D01*
X005311Y010445D01*
X005270Y010421D01*
X005263Y010413D01*
X005219Y010457D01*
X005193Y010457D01*
X005193Y010603D01*
X005219Y010603D01*
X005263Y010647D01*
X005270Y010639D01*
X005311Y010615D01*
X005357Y010603D01*
X005579Y010603D01*
X005579Y010962D01*
X005616Y010962D01*
X005616Y010958D02*
X005579Y010958D01*
X005579Y010800D02*
X005616Y010800D01*
X005616Y010641D02*
X005579Y010641D01*
X005269Y010641D02*
X005257Y010641D01*
X005193Y010483D02*
X005983Y010483D01*
X005983Y010641D02*
X005926Y010641D01*
X005616Y010324D02*
X005579Y010324D01*
X005579Y010166D02*
X005616Y010166D01*
X005616Y010007D02*
X005579Y010007D01*
X005579Y009849D02*
X005616Y009849D01*
X005618Y009690D02*
X005193Y009690D01*
X005193Y009532D02*
X005537Y009532D01*
X005537Y009373D02*
X005193Y009373D01*
X005189Y009215D02*
X005537Y009215D01*
X005537Y009056D02*
X005189Y009056D01*
X005189Y008898D02*
X005537Y008898D01*
X005549Y008739D02*
X005176Y008739D01*
X004689Y008581D02*
X007823Y008581D01*
X007393Y009180D02*
X005914Y009180D01*
X006390Y009532D02*
X006564Y009532D01*
X006536Y009690D02*
X006443Y009690D01*
X006443Y009849D02*
X006894Y009849D01*
X006894Y009690D02*
X006931Y009690D01*
X006931Y009532D02*
X006894Y009532D01*
X006536Y010007D02*
X006443Y010007D01*
X006443Y010166D02*
X006568Y010166D01*
X006536Y010324D02*
X006443Y010324D01*
X007563Y010375D02*
X007563Y010515D01*
X007563Y009785D02*
X007533Y009755D01*
X006698Y008422D02*
X005737Y008422D01*
X005737Y007947D02*
X006689Y007947D01*
X007236Y007947D02*
X007522Y007947D01*
X004589Y008422D02*
X004530Y008422D01*
X004038Y008581D02*
X004022Y008581D01*
X003447Y006996D02*
X003447Y006996D01*
X003447Y006837D02*
X003447Y006837D01*
X000743Y003826D02*
X011989Y003826D01*
X012132Y003667D02*
X000743Y003667D01*
X000743Y003509D02*
X012459Y003509D01*
X012410Y003557D02*
X012410Y003557D01*
X013633Y003350D02*
X000743Y003350D01*
X000743Y003192D02*
X013732Y003192D01*
X013732Y003033D02*
X000743Y003033D01*
X000743Y002875D02*
X013766Y002875D01*
X008963Y004777D02*
X008534Y004777D01*
X008611Y004618D02*
X008753Y004618D01*
X002736Y011274D02*
X002674Y011229D01*
X002607Y011195D01*
X002535Y011172D01*
X002461Y011160D01*
X002143Y011160D01*
X002143Y011620D01*
X002903Y011620D01*
X002903Y011602D01*
X002891Y011528D01*
X002868Y011456D01*
X002833Y011388D01*
X002789Y011327D01*
X002736Y011274D01*
X002737Y011275D02*
X004555Y011275D01*
X004685Y011592D02*
X002901Y011592D01*
X002891Y011751D02*
X004500Y011751D01*
X004316Y011909D02*
X002821Y011909D01*
X002641Y012068D02*
X004131Y012068D01*
X003828Y012226D02*
X002678Y012226D01*
X002143Y012068D02*
X002103Y012068D01*
X002103Y011909D02*
X002143Y011909D01*
X002143Y011751D02*
X002103Y011751D01*
X002103Y011592D02*
X002143Y011592D01*
X002143Y011434D02*
X002103Y011434D01*
X002103Y011275D02*
X002143Y011275D01*
X002856Y011434D02*
X004870Y011434D01*
X027042Y015079D02*
X027803Y015079D01*
X027803Y015238D02*
X027058Y015238D01*
X027058Y015396D02*
X027803Y015396D01*
X027803Y015555D02*
X027058Y015555D01*
X027058Y015713D02*
X027803Y015713D01*
X027803Y015872D02*
X027058Y015872D01*
X027058Y016030D02*
X027803Y016030D01*
X027803Y016189D02*
X027058Y016189D01*
X027058Y016347D02*
X027803Y016347D01*
X027803Y016506D02*
X027058Y016506D01*
X027058Y016664D02*
X027803Y016664D01*
X027803Y016823D02*
X027058Y016823D01*
X027058Y016981D02*
X027803Y016981D01*
X027803Y017140D02*
X027058Y017140D01*
X027058Y017298D02*
X027803Y017298D01*
X027803Y017457D02*
X027058Y017457D01*
X027058Y017615D02*
X027803Y017615D01*
X027803Y017774D02*
X027058Y017774D01*
X027058Y017932D02*
X027803Y017932D01*
X027803Y018091D02*
X027058Y018091D01*
D36*
X019103Y006440D02*
X019213Y006330D01*
D37*
X019453Y004390D03*
X020103Y004370D03*
X020073Y003820D03*
X020833Y004230D03*
X021653Y003900D03*
X022023Y004650D03*
X021603Y005250D03*
X022633Y002990D03*
X020463Y008430D03*
X019373Y008790D03*
X018223Y010030D03*
X017713Y011780D03*
X017213Y011780D03*
X018353Y012220D03*
X019283Y011830D03*
X020713Y011930D03*
X020653Y011220D03*
X022543Y011150D03*
X021873Y009140D03*
X017563Y013780D03*
X016463Y014680D03*
X015613Y014330D03*
X014763Y012780D03*
X014673Y011980D03*
X015153Y011240D03*
X015713Y012390D03*
X015263Y009880D03*
X014913Y008210D03*
X014783Y007580D03*
X013963Y006680D03*
X012963Y005680D03*
X012313Y003980D03*
X009063Y004430D03*
X007763Y007680D03*
X006963Y008180D03*
X008963Y011680D03*
X009823Y011860D03*
X011503Y011420D03*
X011963Y009680D03*
X016463Y007200D03*
X021463Y014180D03*
M02*
