G75*
G70*
%OFA0B0*%
%FSLAX24Y24*%
%IPPOS*%
%LPD*%
%AMOC8*
5,1,8,0,0,1.08239X$1,22.5*
%
%ADD10C,0.0434*%
%ADD11OC8,0.0690*%
%ADD12C,0.1346*%
%ADD13OC8,0.0780*%
%ADD14C,0.0680*%
%ADD15C,0.0437*%
D10*
X002463Y006814D03*
X002463Y008546D03*
D11*
X010463Y007680D03*
X011463Y007680D03*
X011463Y006680D03*
X011463Y005680D03*
X010463Y005680D03*
X010463Y006680D03*
D12*
X008943Y015980D03*
X008973Y017340D03*
X005473Y017340D03*
X005443Y015980D03*
X001943Y015980D03*
X001973Y017340D03*
X012473Y017340D03*
X012443Y015980D03*
X015693Y015980D03*
X015723Y017340D03*
X018973Y017340D03*
X018943Y015980D03*
X022443Y015980D03*
X022473Y017340D03*
X025973Y017340D03*
X025943Y015980D03*
D13*
X027213Y013680D03*
X027213Y012680D03*
X027213Y011680D03*
X027213Y010680D03*
X027213Y009680D03*
X027213Y008680D03*
D14*
X002423Y011640D02*
X001823Y011640D01*
X001823Y012640D02*
X002423Y012640D01*
D15*
X006963Y008180D03*
X007763Y007680D03*
X009063Y004430D03*
X012313Y003980D03*
X012963Y005680D03*
X013963Y006680D03*
X014783Y007580D03*
X014913Y008210D03*
X015263Y009880D03*
X015153Y011240D03*
X014673Y011980D03*
X014763Y012780D03*
X015713Y012390D03*
X017213Y011780D03*
X017713Y011780D03*
X018353Y012220D03*
X019283Y011830D03*
X020713Y011930D03*
X020653Y011220D03*
X022543Y011150D03*
X021873Y009140D03*
X020463Y008430D03*
X019373Y008790D03*
X018223Y010030D03*
X016463Y007200D03*
X019453Y004390D03*
X020103Y004370D03*
X020073Y003820D03*
X020833Y004230D03*
X021653Y003900D03*
X022023Y004650D03*
X021603Y005250D03*
X022633Y002990D03*
X011963Y009680D03*
X011503Y011420D03*
X009823Y011860D03*
X008963Y011680D03*
X015613Y014330D03*
X016463Y014680D03*
X017563Y013780D03*
X021463Y014180D03*
M02*
