G75*
G70*
%OFA0B0*%
%FSLAX24Y24*%
%IPPOS*%
%LPD*%
%AMOC8*
5,1,8,0,0,1.08239X$1,22.5*
%
%ADD10R,0.0671X0.0277*%
%ADD11R,0.0277X0.0671*%
%ADD12R,0.0356X0.0434*%
%ADD13R,0.1064X0.0277*%
%ADD14R,0.1064X0.0867*%
%ADD15C,0.0434*%
%ADD16R,0.0474X0.0789*%
%ADD17OC8,0.0690*%
%ADD18C,0.0095*%
%ADD19R,0.0513X0.0474*%
%ADD20R,0.0474X0.0513*%
%ADD21R,0.0828X0.0513*%
%ADD22R,0.0434X0.0356*%
%ADD23R,0.0395X0.0395*%
%ADD24C,0.1346*%
%ADD25R,0.1890X0.3110*%
%ADD26R,0.0316X0.0946*%
%ADD27R,0.0198X0.0474*%
%ADD28R,0.0474X0.0198*%
%ADD29R,0.0330X0.0580*%
%ADD30R,0.0580X0.0330*%
%ADD31OC8,0.0780*%
%ADD32C,0.0437*%
%ADD33C,0.0476*%
D10*
X018179Y003525D03*
X018179Y003840D03*
X018179Y004155D03*
X018179Y004470D03*
X018179Y004785D03*
X018179Y005100D03*
X018179Y005415D03*
X018179Y005730D03*
X018179Y006045D03*
X018179Y006360D03*
X018179Y006675D03*
X022746Y006675D03*
X022746Y006360D03*
X022746Y006045D03*
X022746Y005730D03*
X022746Y005415D03*
X022746Y005100D03*
X022746Y004785D03*
X022746Y004470D03*
X022746Y004155D03*
X022746Y003840D03*
X022746Y003525D03*
D11*
X022038Y002817D03*
X021723Y002817D03*
X021408Y002817D03*
X021093Y002817D03*
X020778Y002817D03*
X020463Y002817D03*
X020148Y002817D03*
X019833Y002817D03*
X019518Y002817D03*
X019203Y002817D03*
X018888Y002817D03*
X018888Y007383D03*
X019203Y007383D03*
X019518Y007383D03*
X019833Y007383D03*
X020148Y007383D03*
X020463Y007383D03*
X020778Y007383D03*
X021093Y007383D03*
X021408Y007383D03*
X021723Y007383D03*
X022038Y007383D03*
D12*
X023727Y006340D03*
X024239Y006340D03*
X024249Y005740D03*
X023737Y005740D03*
X023707Y005080D03*
X024219Y005080D03*
X005419Y007500D03*
X004907Y007500D03*
X004907Y008100D03*
X005419Y008100D03*
D13*
X003447Y008230D03*
X003447Y007915D03*
X003447Y007600D03*
X003447Y007285D03*
X003447Y006970D03*
D14*
X003447Y005828D03*
X001282Y005828D03*
X001282Y009372D03*
X003447Y009372D03*
D15*
X002463Y008466D03*
X002463Y006734D03*
D16*
X004812Y009100D03*
X005914Y009100D03*
D17*
X010463Y007600D03*
X011463Y007600D03*
X011463Y006600D03*
X010463Y006600D03*
X010463Y005600D03*
X011463Y005600D03*
D18*
X005117Y004482D02*
X004501Y004482D01*
X005117Y004482D02*
X005117Y003946D01*
X004501Y003946D01*
X004501Y004482D01*
X004501Y004040D02*
X005117Y004040D01*
X005117Y004134D02*
X004501Y004134D01*
X004501Y004228D02*
X005117Y004228D01*
X005117Y004322D02*
X004501Y004322D01*
X004501Y004416D02*
X005117Y004416D01*
X005117Y006254D02*
X004501Y006254D01*
X005117Y006254D02*
X005117Y005718D01*
X004501Y005718D01*
X004501Y006254D01*
X004501Y005812D02*
X005117Y005812D01*
X005117Y005906D02*
X004501Y005906D01*
X004501Y006000D02*
X005117Y006000D01*
X005117Y006094D02*
X004501Y006094D01*
X004501Y006188D02*
X005117Y006188D01*
X007808Y006254D02*
X008424Y006254D01*
X008424Y005718D01*
X007808Y005718D01*
X007808Y006254D01*
X007808Y005812D02*
X008424Y005812D01*
X008424Y005906D02*
X007808Y005906D01*
X007808Y006000D02*
X008424Y006000D01*
X008424Y006094D02*
X007808Y006094D01*
X007808Y006188D02*
X008424Y006188D01*
X008424Y005368D02*
X007808Y005368D01*
X008424Y005368D02*
X008424Y004832D01*
X007808Y004832D01*
X007808Y005368D01*
X007808Y004926D02*
X008424Y004926D01*
X008424Y005020D02*
X007808Y005020D01*
X007808Y005114D02*
X008424Y005114D01*
X008424Y005208D02*
X007808Y005208D01*
X007808Y005302D02*
X008424Y005302D01*
X008424Y004482D02*
X007808Y004482D01*
X008424Y004482D02*
X008424Y003946D01*
X007808Y003946D01*
X007808Y004482D01*
X007808Y004040D02*
X008424Y004040D01*
X008424Y004134D02*
X007808Y004134D01*
X007808Y004228D02*
X008424Y004228D01*
X008424Y004322D02*
X007808Y004322D01*
X007808Y004416D02*
X008424Y004416D01*
D19*
X013228Y009700D03*
X013897Y009700D03*
X017128Y009300D03*
X017797Y009300D03*
X018178Y008000D03*
X018847Y008000D03*
X019748Y010050D03*
X020417Y010050D03*
X022028Y008200D03*
X022697Y008200D03*
X022797Y012500D03*
X022128Y012500D03*
X023578Y012500D03*
X024247Y012500D03*
X017447Y005200D03*
X016778Y005200D03*
X014797Y003100D03*
X014128Y003100D03*
X005597Y010000D03*
X004928Y010000D03*
X004928Y010900D03*
X005597Y010900D03*
D20*
X006913Y010435D03*
X006913Y009765D03*
X017163Y008335D03*
X017163Y007665D03*
X023663Y003835D03*
X023663Y003165D03*
X024263Y011065D03*
X024263Y011735D03*
D21*
X021141Y001903D03*
X021141Y000997D03*
X019684Y000997D03*
X019684Y001903D03*
D22*
X018813Y001506D03*
X018813Y000994D03*
X022063Y001244D03*
X022063Y001756D03*
D23*
X024963Y005055D03*
X024963Y005645D03*
X025713Y005645D03*
X025713Y006305D03*
X025713Y006895D03*
X026463Y005645D03*
X026463Y005055D03*
X025713Y005055D03*
X027213Y005055D03*
X027213Y005645D03*
X027213Y006305D03*
X027213Y006895D03*
X007563Y009705D03*
X007563Y010295D03*
D24*
X008943Y015900D03*
X008973Y017260D03*
X005473Y017260D03*
X005443Y015900D03*
X001973Y017260D03*
X001943Y015900D03*
X012443Y015900D03*
X012473Y017260D03*
X015723Y017260D03*
X015693Y015900D03*
X018943Y015900D03*
X018973Y017260D03*
X022473Y017260D03*
X022443Y015900D03*
X025943Y015900D03*
X025973Y017260D03*
D25*
X025968Y016595D03*
X022468Y016595D03*
X018968Y016595D03*
X015718Y016595D03*
X012468Y016595D03*
X008968Y016595D03*
X005468Y016595D03*
X001968Y016595D03*
D26*
X009713Y012624D03*
X010213Y012624D03*
X010713Y012624D03*
X011213Y012624D03*
X011713Y012624D03*
X012213Y012624D03*
X012713Y012624D03*
X013213Y012624D03*
X013213Y010576D03*
X012713Y010576D03*
X012213Y010576D03*
X011713Y010576D03*
X011213Y010576D03*
X010713Y010576D03*
X010213Y010576D03*
X009713Y010576D03*
X016213Y010926D03*
X016713Y010926D03*
X017213Y010926D03*
X017713Y010926D03*
X018213Y010926D03*
X018713Y010926D03*
X019213Y010926D03*
X019713Y010926D03*
X019713Y012974D03*
X019213Y012974D03*
X018713Y012974D03*
X018213Y012974D03*
X017713Y012974D03*
X017213Y012974D03*
X016713Y012974D03*
X016213Y012974D03*
D27*
X016213Y009836D03*
X016410Y009836D03*
X016607Y009836D03*
X016016Y009836D03*
X015819Y009836D03*
X015819Y008064D03*
X016016Y008064D03*
X016213Y008064D03*
X016410Y008064D03*
X016607Y008064D03*
D28*
X021577Y011006D03*
X021577Y011203D03*
X021577Y011400D03*
X021577Y011597D03*
X021577Y011794D03*
X023349Y011794D03*
X023349Y011597D03*
X023349Y011400D03*
X023349Y011203D03*
X023349Y011006D03*
D29*
X007413Y012850D03*
X007013Y012850D03*
X007013Y014100D03*
X007413Y014100D03*
X005140Y014100D03*
X004786Y014100D03*
D30*
X006213Y012277D03*
X006213Y011923D03*
D31*
X027213Y011600D03*
X027213Y010600D03*
X027213Y009600D03*
X027213Y008600D03*
X027213Y012600D03*
X027213Y013600D03*
D32*
X021963Y009100D03*
X020463Y011100D03*
X020213Y011850D03*
X021463Y012400D03*
X021463Y014100D03*
X018353Y012140D03*
X017713Y011700D03*
X017213Y011700D03*
X015713Y012310D03*
X014763Y012700D03*
X014673Y011900D03*
X015153Y011160D03*
X015263Y009800D03*
X015183Y007910D03*
X014923Y007440D03*
X013963Y006600D03*
X012963Y005600D03*
X012313Y003900D03*
X009063Y004350D03*
X007763Y007600D03*
X006963Y008100D03*
X008963Y011600D03*
X009823Y011780D03*
X011503Y011340D03*
X011963Y009600D03*
X016763Y007000D03*
X018963Y009100D03*
X018213Y010100D03*
X017563Y013700D03*
X016463Y014600D03*
X015613Y014250D03*
X019663Y003750D03*
D33*
X018463Y002850D03*
X021463Y005600D03*
X020463Y006600D03*
X017963Y007100D03*
X025463Y008350D03*
X025463Y010600D03*
X026293Y012090D03*
M02*
